SplineFontDB: 3.2
FontName: Payhas
FullName: Payhas
FamilyName: Payhas
Weight: Bold
Copyright: Copyright 2020 "Payhasly" Ceation Studio. Modification of this file requires prior written permission.
Version: 2.000
ItalicAngle: 0
UnderlinePosition: -150
UnderlineWidth: 50
Ascent: 800
Descent: 200
InvalidEm: 0
sfntRevision: 0x00020000
LayerCount: 2
Layer: 0 1 "Back" 1
Layer: 1 1 "Fore" 0
XUID: [1021 679 1698035989 27043]
StyleMap: 0x0020
FSType: 0
OS2Version: 3
OS2_WeightWidthSlopeOnly: 0
OS2_UseTypoMetrics: 0
CreationTime: 1465833692
ModificationTime: 1594788667
PfmFamily: 17
TTFWeight: 700
TTFWidth: 5
LineGap: 0
VLineGap: 0
Panose: 2 11 8 3 6 2 2 2 2 4
OS2TypoAscent: 1292
OS2TypoAOffset: 0
OS2TypoDescent: -518
OS2TypoDOffset: 0
OS2TypoLinegap: 0
OS2WinAscent: 1292
OS2WinAOffset: 0
OS2WinDescent: 518
OS2WinDOffset: 0
HheadAscent: 1292
HheadAOffset: 0
HheadDescent: -518
HheadDOffset: 0
OS2SubXSize: 700
OS2SubYSize: 650
OS2SubXOff: 0
OS2SubYOff: 95
OS2SupXSize: 700
OS2SupYSize: 650
OS2SupXOff: 0
OS2SupYOff: 387
OS2StrikeYSize: 50
OS2StrikeYPos: 250
OS2CapHeight: 686
OS2XHeight: 510
OS2FamilyClass: 2052
OS2Vendor: 'DAMA'
OS2CodePages: 200000df.20000000
OS2UnicodeRanges: a00022af.9000a05b.00000008.00000000
Lookup: 1 0 0 "'locl' Localized Forms in Latin lookup 0" { "'locl' Localized Forms in Latin lookup 0 subtable"  } ['locl' ('latn' <'MOL ' 'ROM ' > ) ]
Lookup: 1 0 0 "'frac' Diagonal Fractions in Arabic lookup 1" { "'frac' Diagonal Fractions in Arabic lookup 1 subtable"  } ['frac' ('DFLT' <'dflt' > 'arab' <'ARA ' 'FAR ' 'URD ' 'dflt' > ) ]
Lookup: 1 0 0 "'frac' Diagonal Fractions lookup 2" { "'frac' Diagonal Fractions lookup 2 subtable"  } ['frac' ('DFLT' <'dflt' > 'arab' <'ARA ' 'FAR ' 'URD ' 'dflt' > 'latn' <'MOL ' 'ROM ' 'dflt' > ) ]
Lookup: 4 0 0 "'frac' Diagonal Fractions lookup 3" { "'frac' Diagonal Fractions lookup 3 subtable"  } ['frac' ('DFLT' <'dflt' > 'arab' <'ARA ' 'FAR ' 'URD ' 'dflt' > 'latn' <'MOL ' 'ROM ' 'dflt' > ) ]

StartChar: .notdef
Encoding: 65536 -1 0
Width: 500
GlyphClass: 2
Flags: W
LayerCount: 2
Fore
SplineSet
50 0 m 1,0,-1
 50 750 l 1,1,-1
 450 750 l 1,2,-1
 450 0 l 1,3,-1
 50 0 l 1,0,-1
400 50 m 1,4,-1
 400 700 l 1,5,-1
 100 700 l 1,6,-1
 100 50 l 1,7,-1
 400 50 l 1,4,-1
EndSplineSet
EndChar

StartChar: exclam
Encoding: 33 33 4
Width: 278
GlyphClass: 2
Flags: W
LayerCount: 2
Fore
SplineSet
58 615 m 2,0,1
 58 654 58 654 81 670 c 128,-1,2
 104 686 104 686 142 686 c 0,3,4
 169 686 169 686 191 679.5 c 128,-1,5
 213 673 213 673 219 671 c 1,6,-1
 219 245 l 1,7,-1
 58 245 l 1,8,-1
 58 615 l 2,0,1
43 76 m 256,9,10
 43 95 43 95 50.5 111.5 c 128,-1,11
 58 128 58 128 71.5 140.5 c 128,-1,12
 85 153 85 153 102 160.5 c 128,-1,13
 119 168 119 168 139 168 c 0,14,15
 158 168 158 168 175.5 160.5 c 128,-1,16
 193 153 193 153 206.5 140.5 c 128,-1,17
 220 128 220 128 227.5 111.5 c 128,-1,18
 235 95 235 95 235 76 c 256,19,20
 235 57 235 57 227.5 40 c 128,-1,21
 220 23 220 23 206.5 10.5 c 128,-1,22
 193 -2 193 -2 175.5 -9.5 c 128,-1,23
 158 -17 158 -17 139 -17 c 0,24,25
 119 -17 119 -17 102 -9.5 c 128,-1,26
 85 -2 85 -2 71.5 10.5 c 128,-1,27
 58 23 58 23 50.5 40 c 128,-1,28
 43 57 43 57 43 76 c 256,9,10
EndSplineSet
EndChar

StartChar: numbersign
Encoding: 35 35 6
Width: 755
GlyphClass: 2
Flags: W
LayerCount: 2
Fore
SplineSet
116 0 m 1,0,-1
 140 145 l 1,1,-1
 109 145 l 2,2,3
 69 145 69 145 52 161.5 c 128,-1,4
 35 178 35 178 35 210 c 0,5,6
 35 233 35 233 42.5 253 c 128,-1,7
 50 273 50 273 53 278 c 1,8,-1
 163 278 l 1,9,-1
 187 421 l 1,10,-1
 156 421 l 2,11,12
 116 421 116 421 99 437 c 128,-1,13
 82 453 82 453 82 485 c 0,14,15
 82 509 82 509 89.5 528.5 c 128,-1,16
 97 548 97 548 100 554 c 1,17,-1
 210 554 l 1,18,-1
 225 643 l 2,19,20
 231 677 231 677 253 690.5 c 128,-1,21
 275 704 275 704 307 704 c 0,22,23
 330 704 330 704 348 698.5 c 128,-1,24
 366 693 366 693 371 691 c 1,25,-1
 347 554 l 1,26,-1
 478 554 l 1,27,-1
 493 643 l 2,28,29
 498 677 498 677 520 690.5 c 128,-1,30
 542 704 542 704 574 704 c 0,31,32
 598 704 598 704 615.5 698.5 c 128,-1,33
 633 693 633 693 638 691 c 1,34,-1
 614 554 l 1,35,-1
 646 554 l 2,36,37
 686 554 686 554 703 537.5 c 128,-1,38
 720 521 720 521 720 489 c 0,39,40
 720 466 720 466 712.5 446 c 128,-1,41
 705 426 705 426 702 421 c 1,42,-1
 592 421 l 1,43,-1
 567 278 l 1,44,-1
 599 278 l 2,45,46
 639 278 639 278 656 262 c 128,-1,47
 673 246 673 246 673 214 c 0,48,49
 673 190 673 190 665.5 170.5 c 128,-1,50
 658 151 658 151 655 145 c 1,51,-1
 546 145 l 1,52,-1
 521 0 l 1,53,-1
 383 0 l 1,54,-1
 408 145 l 1,55,-1
 278 145 l 1,56,-1
 254 0 l 1,57,-1
 116 0 l 1,0,-1
300 278 m 1,58,-1
 431 278 l 1,59,-1
 455 421 l 1,60,-1
 324 421 l 1,61,-1
 300 278 l 1,58,-1
EndSplineSet
EndChar

StartChar: dollar
Encoding: 36 36 7
Width: 655
GlyphClass: 2
Flags: W
LayerCount: 2
Fore
SplineSet
92 201 m 1,0,1
 97 197 97 197 113 188.5 c 128,-1,2
 129 180 129 180 154 170.5 c 128,-1,3
 179 161 179 161 211 152.5 c 128,-1,4
 243 144 243 144 281 141 c 1,5,-1
 281 271 l 1,6,-1
 256 276 l 2,7,8
 218 283 218 283 180 296 c 128,-1,9
 142 309 142 309 112 331.5 c 128,-1,10
 82 354 82 354 63 389 c 128,-1,11
 44 424 44 424 44 476 c 0,12,13
 44 518 44 518 58.5 555.5 c 128,-1,14
 73 593 73 593 102 622 c 128,-1,15
 131 651 131 651 176 669.5 c 128,-1,16
 221 688 221 688 281 692 c 1,17,-1
 281 758 l 2,18,19
 281 778 281 778 292.5 787 c 128,-1,20
 304 796 304 796 324 796 c 0,21,22
 339 796 339 796 350.5 792.5 c 128,-1,23
 362 789 362 789 365 788 c 2,24,-1
 365 691 l 1,25,26
 437 685 437 685 477 670 c 128,-1,27
 517 655 517 655 530 647 c 0,28,29
 546 637 546 637 561 620 c 128,-1,30
 576 603 576 603 576 580 c 0,31,32
 576 563 576 563 570.5 548 c 128,-1,33
 565 533 565 533 556.5 520.5 c 128,-1,34
 548 508 548 508 539 498.5 c 128,-1,35
 530 489 530 489 523 485 c 1,36,37
 507 502 507 502 466 521.5 c 128,-1,38
 425 541 425 541 365 549 c 1,39,-1
 365 411 l 1,40,-1
 391 406 l 2,41,42
 444 395 444 395 484.5 380 c 128,-1,43
 525 365 525 365 552 341.5 c 128,-1,44
 579 318 579 318 593 285.5 c 128,-1,45
 607 253 607 253 607 207 c 0,46,47
 607 113 607 113 544 58.5 c 128,-1,48
 481 4 481 4 365 -5 c 1,49,-1
 365 -108 l 1,50,-1
 281 -108 l 1,51,-1
 281 -5 l 1,52,53
 228 -2 228 -2 183 9 c 128,-1,54
 138 20 138 20 104.5 33 c 128,-1,55
 71 46 71 46 50.5 57.5 c 128,-1,56
 30 69 30 69 26 73 c 1,57,-1
 92 201 l 1,0,1
281 550 m 1,58,59
 255 547 255 547 240.5 540 c 128,-1,60
 226 533 226 533 218 524 c 128,-1,61
 210 515 210 515 208 505 c 128,-1,62
 206 495 206 495 206 486 c 256,63,64
 206 477 206 477 208 469 c 128,-1,65
 210 461 210 461 218 454 c 128,-1,66
 226 447 226 447 240.5 440.5 c 128,-1,67
 255 434 255 434 281 428 c 1,68,-1
 281 550 l 1,58,59
365 141 m 1,69,70
 389 144 389 144 404 149.5 c 128,-1,71
 419 155 419 155 427 162.5 c 128,-1,72
 435 170 435 170 437.5 179.5 c 128,-1,73
 440 189 440 189 440 199 c 0,74,75
 440 221 440 221 423.5 234 c 128,-1,76
 407 247 407 247 365 256 c 1,77,-1
 365 141 l 1,69,70
EndSplineSet
EndChar

StartChar: percent
Encoding: 37 37 8
Width: 1030
GlyphClass: 2
Flags: W
LayerCount: 2
Fore
SplineSet
25 537 m 256,0,1
 25 579 25 579 41 615.5 c 128,-1,2
 57 652 57 652 85.5 679 c 128,-1,3
 114 706 114 706 152 721.5 c 128,-1,4
 190 737 190 737 234 737 c 256,5,6
 278 737 278 737 316.5 721.5 c 128,-1,7
 355 706 355 706 383.5 679 c 128,-1,8
 412 652 412 652 428 615.5 c 128,-1,9
 444 579 444 579 444 537 c 256,10,11
 444 495 444 495 428 459 c 128,-1,12
 412 423 412 423 383.5 396 c 128,-1,13
 355 369 355 369 316.5 353.5 c 128,-1,14
 278 338 278 338 234 338 c 256,15,16
 190 338 190 338 152 353.5 c 128,-1,17
 114 369 114 369 85.5 396 c 128,-1,18
 57 423 57 423 41 459 c 128,-1,19
 25 495 25 495 25 537 c 256,0,1
234 462 m 256,20,21
 265 462 265 462 286 483.5 c 128,-1,22
 307 505 307 505 307 537 c 256,23,24
 307 569 307 569 286 591 c 128,-1,25
 265 613 265 613 234 613 c 256,26,27
 203 613 203 613 182 591 c 128,-1,28
 161 569 161 569 161 537 c 256,29,30
 161 505 161 505 182 483.5 c 128,-1,31
 203 462 203 462 234 462 c 256,20,21
586 182 m 256,32,33
 586 224 586 224 602 260.5 c 128,-1,34
 618 297 618 297 646.5 324 c 128,-1,35
 675 351 675 351 713 366.5 c 128,-1,36
 751 382 751 382 795 382 c 256,37,38
 839 382 839 382 877.5 366.5 c 128,-1,39
 916 351 916 351 944.5 324 c 128,-1,40
 973 297 973 297 989 260.5 c 128,-1,41
 1005 224 1005 224 1005 182 c 256,42,43
 1005 140 1005 140 989 104 c 128,-1,44
 973 68 973 68 944.5 41 c 128,-1,45
 916 14 916 14 877.5 -1.5 c 128,-1,46
 839 -17 839 -17 795 -17 c 256,47,48
 751 -17 751 -17 713 -1.5 c 128,-1,49
 675 14 675 14 646.5 41 c 128,-1,50
 618 68 618 68 602 104 c 128,-1,51
 586 140 586 140 586 182 c 256,32,33
795 107 m 256,52,53
 826 107 826 107 847 128.5 c 128,-1,54
 868 150 868 150 868 182 c 256,55,56
 868 214 868 214 847 236 c 128,-1,57
 826 258 826 258 795 258 c 256,58,59
 764 258 764 258 743 236 c 128,-1,60
 722 214 722 214 722 182 c 256,61,62
 722 150 722 150 743 128.5 c 128,-1,63
 764 107 764 107 795 107 c 256,52,53
629 686 m 2,64,65
 641 707 641 707 657 722 c 128,-1,66
 673 737 673 737 708 737 c 0,67,68
 725 737 725 737 739.5 733 c 128,-1,69
 754 729 754 729 765 724 c 128,-1,70
 776 719 776 719 783 714 c 128,-1,71
 790 709 790 709 792 708 c 1,72,-1
 381 0 l 1,73,-1
 231 0 l 1,74,-1
 629 686 l 2,64,65
EndSplineSet
EndChar

StartChar: ampersand
Encoding: 38 38 9
Width: 723
GlyphClass: 2
Flags: W
LayerCount: 2
Fore
SplineSet
467 277 m 1,0,-1
 313 277 l 2,1,2
 265 277 265 277 243 255 c 128,-1,3
 221 233 221 233 221 202 c 0,4,5
 221 187 221 187 226.5 173.5 c 128,-1,6
 232 160 232 160 247.5 149 c 128,-1,7
 263 138 263 138 290 131.5 c 128,-1,8
 317 125 317 125 360 125 c 0,9,10
 408 125 408 125 432.5 127 c 128,-1,11
 457 129 457 129 467 131 c 1,12,-1
 467 277 l 1,0,-1
617 423 m 2,13,14
 662 423 662 423 680 405.5 c 128,-1,15
 698 388 698 388 698 353 c 0,16,17
 698 327 698 327 690.5 305.5 c 128,-1,18
 683 284 683 284 679 277 c 1,19,-1
 629 277 l 1,20,-1
 629 1 l 1,21,22
 597 -5 597 -5 535 -11 c 128,-1,23
 473 -17 473 -17 369 -17 c 0,24,25
 209 -17 209 -17 132 38 c 128,-1,26
 55 93 55 93 55 193 c 0,27,28
 55 250 55 250 85.5 289 c 128,-1,29
 116 328 116 328 161 350 c 1,30,31
 121 372 121 372 95 410 c 128,-1,32
 69 448 69 448 69 502 c 0,33,34
 69 550 69 550 88 587.5 c 128,-1,35
 107 625 107 625 140.5 651 c 128,-1,36
 174 677 174 677 221.5 690.5 c 128,-1,37
 269 704 269 704 326 704 c 0,38,39
 399 704 399 704 437 694 c 128,-1,40
 475 684 475 684 494 674 c 0,41,42
 539 651 539 651 539 611 c 0,43,44
 539 596 539 596 534 583 c 128,-1,45
 529 570 529 570 521.5 559.5 c 128,-1,46
 514 549 514 549 506.5 541.5 c 128,-1,47
 499 534 499 534 493 531 c 1,48,49
 487 536 487 536 472.5 542.5 c 128,-1,50
 458 549 458 549 438.5 555 c 128,-1,51
 419 561 419 561 395 565 c 128,-1,52
 371 569 371 569 346 569 c 0,53,54
 313 569 313 569 291.5 563 c 128,-1,55
 270 557 270 557 256.5 546.5 c 128,-1,56
 243 536 243 536 237.5 522 c 128,-1,57
 232 508 232 508 232 492 c 0,58,59
 232 462 232 462 256.5 442.5 c 128,-1,60
 281 423 281 423 343 423 c 2,61,-1
 617 423 l 2,13,14
EndSplineSet
EndChar

StartChar: quotesingle
Encoding: 39 39 10
Width: 337
GlyphClass: 2
Flags: W
LayerCount: 2
Fore
SplineSet
90 668 m 2,0,1
 90 706 90 706 112.5 721.5 c 128,-1,2
 135 737 135 737 172 737 c 0,3,4
 198 737 198 737 219.5 731 c 128,-1,5
 241 725 241 725 247 723 c 1,6,-1
 247 422 l 1,7,-1
 90 422 l 1,8,-1
 90 668 l 2,0,1
EndSplineSet
EndChar

StartChar: parenleft
Encoding: 40 40 11
Width: 353
GlyphClass: 2
Flags: W
LayerCount: 2
Fore
SplineSet
338 -132 m 1,0,1
 265 -120 265 -120 210 -84.5 c 128,-1,2
 155 -49 155 -49 118.5 7.5 c 128,-1,3
 82 64 82 64 63.5 138.5 c 128,-1,4
 45 213 45 213 45 303 c 256,5,6
 45 393 45 393 63.5 467.5 c 128,-1,7
 82 542 82 542 118.5 598 c 128,-1,8
 155 654 155 654 210 689.5 c 128,-1,9
 265 725 265 725 338 737 c 1,10,-1
 338 585 l 1,11,12
 307 573 307 573 282.5 551.5 c 128,-1,13
 258 530 258 530 241 496.5 c 128,-1,14
 224 463 224 463 215 415 c 128,-1,15
 206 367 206 367 206 303 c 0,16,17
 206 238 206 238 215 190.5 c 128,-1,18
 224 143 224 143 241 109 c 128,-1,19
 258 75 258 75 282.5 53.5 c 128,-1,20
 307 32 307 32 338 20 c 1,21,-1
 338 -132 l 1,0,1
EndSplineSet
EndChar

StartChar: parenright
Encoding: 41 41 12
Width: 353
GlyphClass: 2
Flags: W
LayerCount: 2
Fore
SplineSet
15 20 m 1,0,1
 46 32 46 32 70.5 53.5 c 128,-1,2
 95 75 95 75 112 109 c 128,-1,3
 129 143 129 143 138 190.5 c 128,-1,4
 147 238 147 238 147 303 c 0,5,6
 147 367 147 367 138 415 c 128,-1,7
 129 463 129 463 112 496.5 c 128,-1,8
 95 530 95 530 70.5 551.5 c 128,-1,9
 46 573 46 573 15 585 c 1,10,-1
 15 737 l 1,11,12
 88 725 88 725 143 689.5 c 128,-1,13
 198 654 198 654 234.5 598 c 128,-1,14
 271 542 271 542 289.5 467.5 c 128,-1,15
 308 393 308 393 308 303 c 256,16,17
 308 213 308 213 289.5 138.5 c 128,-1,18
 271 64 271 64 234 7.5 c 128,-1,19
 197 -49 197 -49 142.5 -84.5 c 128,-1,20
 88 -120 88 -120 15 -132 c 1,21,-1
 15 20 l 1,0,1
EndSplineSet
EndChar

StartChar: asterisk
Encoding: 42 42 13
Width: 553
GlyphClass: 2
Flags: W
LayerCount: 2
Fore
SplineSet
66 329 m 1,0,-1
 169 456 l 1,1,-1
 30 497 l 2,2,3
 30 499 30 499 29.5 503.5 c 128,-1,4
 29 508 29 508 29 514 c 0,5,6
 29 526 29 526 31 542.5 c 128,-1,7
 33 559 33 559 39 575 c 0,8,9
 47 594 47 594 60 606.5 c 128,-1,10
 73 619 73 619 96 619 c 0,11,12
 115 619 115 619 138 609 c 2,13,-1
 214 575 l 1,14,-1
 205 673 l 1,15,-1
 205 680 l 2,16,17
 205 711 205 711 227 724 c 128,-1,18
 249 737 249 737 281 737 c 0,19,20
 305 737 305 737 325 731 c 128,-1,21
 345 725 345 725 350 723 c 1,22,-1
 340 575 l 1,23,-1
 416 609 l 2,24,25
 439 619 439 619 458 619 c 0,26,27
 481 619 481 619 494 606.5 c 128,-1,28
 507 594 507 594 515 575 c 0,29,30
 521 559 521 559 523 542.5 c 128,-1,31
 525 526 525 526 525 514 c 0,32,33
 525 508 525 508 524.5 503.5 c 128,-1,34
 524 499 524 499 524 497 c 2,35,-1
 385 456 l 1,36,-1
 488 329 l 1,37,-1
 372 249 l 1,38,-1
 277 389 l 1,39,-1
 182 249 l 1,40,-1
 66 329 l 1,0,-1
EndSplineSet
EndChar

StartChar: plus
Encoding: 43 43 14
Width: 630
GlyphClass: 2
Flags: W
LayerCount: 2
Fore
SplineSet
236 264 m 1,0,-1
 123 264 l 2,1,2
 84 264 84 264 68 285 c 128,-1,3
 52 306 52 306 52 344 c 0,4,5
 52 371 52 371 58.5 391.5 c 128,-1,6
 65 412 65 412 67 417 c 1,7,-1
 236 417 l 1,8,-1
 236 534 l 2,9,10
 236 573 236 573 258.5 589 c 128,-1,11
 281 605 281 605 319 605 c 0,12,13
 346 605 346 605 367 598.5 c 128,-1,14
 388 592 388 592 394 590 c 1,15,-1
 394 417 l 1,16,-1
 507 417 l 2,17,18
 546 417 546 417 562 396 c 128,-1,19
 578 375 578 375 578 337 c 0,20,21
 578 310 578 310 571.5 289.5 c 128,-1,22
 565 269 565 269 563 264 c 1,23,-1
 394 264 l 1,24,-1
 394 81 l 1,25,-1
 236 81 l 1,26,-1
 236 264 l 1,0,-1
EndSplineSet
EndChar

StartChar: comma
Encoding: 44 44 15
Width: 337
GlyphClass: 2
Flags: W
LayerCount: 2
Fore
SplineSet
86 107 m 2,0,1
 96 140 96 140 113 158 c 128,-1,2
 130 176 130 176 166 176 c 0,3,4
 184 176 184 176 200 171 c 128,-1,5
 216 166 216 166 228 159.5 c 128,-1,6
 240 153 240 153 248 145.5 c 128,-1,7
 256 138 256 138 260 134 c 1,8,-1
 129 -168 l 1,9,-1
 18 -126 l 1,10,-1
 86 107 l 2,0,1
EndSplineSet
EndChar

StartChar: hyphen
Encoding: 45 45 16
Width: 337
GlyphClass: 2
Flags: W
LayerCount: 2
Fore
SplineSet
242 348 m 2,0,1
 278 348 278 348 292.5 326.5 c 128,-1,2
 307 305 307 305 307 270 c 0,3,4
 307 245 307 245 301 224.5 c 128,-1,5
 295 204 295 204 293 199 c 1,6,-1
 95 199 l 2,7,8
 59 199 59 199 44.5 220.5 c 128,-1,9
 30 242 30 242 30 277 c 0,10,11
 30 302 30 302 36 322.5 c 128,-1,12
 42 343 42 343 44 348 c 1,13,-1
 242 348 l 2,0,1
EndSplineSet
EndChar

StartChar: period
Encoding: 46 46 17
Width: 337
GlyphClass: 2
Flags: W
LayerCount: 2
Fore
SplineSet
169 -17 m 0,0,1
 149 -17 149 -17 132 -9.5 c 128,-1,2
 115 -2 115 -2 101.5 11.5 c 128,-1,3
 88 25 88 25 80.5 42.5 c 128,-1,4
 73 60 73 60 73 80 c 0,5,6
 73 99 73 99 80.5 116.5 c 128,-1,7
 88 134 88 134 101.5 147.5 c 128,-1,8
 115 161 115 161 132 168.5 c 128,-1,9
 149 176 149 176 169 176 c 0,10,11
 188 176 188 176 205.5 168.5 c 128,-1,12
 223 161 223 161 236.5 147.5 c 128,-1,13
 250 134 250 134 257.5 116.5 c 128,-1,14
 265 99 265 99 265 80 c 0,15,16
 265 60 265 60 257.5 42.5 c 128,-1,17
 250 25 250 25 236.5 11.5 c 128,-1,18
 223 -2 223 -2 205.5 -9.5 c 128,-1,19
 188 -17 188 -17 169 -17 c 0,0,1
EndSplineSet
EndChar

StartChar: slash
Encoding: 47 47 18
Width: 368
GlyphClass: 2
Flags: W
LayerCount: 2
Fore
SplineSet
208 674 m 2,0,1
 217 704 217 704 232.5 720.5 c 128,-1,2
 248 737 248 737 281 737 c 0,3,4
 298 737 298 737 313 732.5 c 128,-1,5
 328 728 328 728 339 722 c 128,-1,6
 350 716 350 716 357.5 709 c 128,-1,7
 365 702 365 702 368 698 c 1,8,-1
 153 0 l 1,9,-1
 0 0 l 1,10,-1
 208 674 l 2,0,1
EndSplineSet
Substitution2: "'frac' Diagonal Fractions lookup 2 subtable" fraction
EndChar

StartChar: zero
Encoding: 48 48 19
Width: 672
GlyphClass: 2
Flags: W
LayerCount: 2
Fore
SplineSet
336 -17 m 0,0,1
 265 -17 265 -17 210.5 8 c 128,-1,2
 156 33 156 33 118.5 79.5 c 128,-1,3
 81 126 81 126 62 192.5 c 128,-1,4
 43 259 43 259 43 343 c 256,5,6
 43 427 43 427 62 493.5 c 128,-1,7
 81 560 81 560 118.5 607 c 128,-1,8
 156 654 156 654 210.5 679 c 128,-1,9
 265 704 265 704 336 704 c 0,10,11
 406 704 406 704 461 679 c 128,-1,12
 516 654 516 654 553 607 c 128,-1,13
 590 560 590 560 609.5 493.5 c 128,-1,14
 629 427 629 427 629 343 c 256,15,16
 629 259 629 259 609.5 192.5 c 128,-1,17
 590 126 590 126 553 79.5 c 128,-1,18
 516 33 516 33 461 8 c 128,-1,19
 406 -17 406 -17 336 -17 c 0,0,1
336 136 m 0,20,21
 395 136 395 136 428 186.5 c 128,-1,22
 461 237 461 237 461 343 c 256,23,24
 461 449 461 449 428 500 c 128,-1,25
 395 551 395 551 336 551 c 0,26,27
 276 551 276 551 243 500 c 128,-1,28
 210 449 210 449 210 343 c 256,29,30
 210 237 210 237 243 186.5 c 128,-1,31
 276 136 276 136 336 136 c 0,20,21
EndSplineSet
Substitution2: "'dnom' Denominators in Latin lookup 12 subtable" uni2080
Substitution2: "'subs' Subscript in Latin lookup 11 subtable" uniF814
Substitution2: "'sinf' Scientific Inferiors in Latin lookup 10 subtable" uniF814
Substitution2: "'sups' Superscript in Latin lookup 9 subtable" uniF80A
Substitution2: "'numr' Numerators in Latin lookup 8 subtable" uni2070
Substitution2: "'frac' Diagonal Fractions lookup 7 subtable" uni00B2
Substitution2: "'tnum' Tabular Numbers lookup 5 subtable" uniF800
EndChar

StartChar: one
Encoding: 49 49 20
Width: 478
GlyphClass: 2
Flags: W
LayerCount: 2
Fore
SplineSet
216 491 m 1,0,-1
 95 397 l 1,1,2
 87 401 87 401 75.5 408.5 c 128,-1,3
 64 416 64 416 52.5 427.5 c 128,-1,4
 41 439 41 439 33 453 c 128,-1,5
 25 467 25 467 25 484 c 0,6,7
 25 520 25 520 44 540.5 c 128,-1,8
 63 561 63 561 98 587 c 2,9,-1
 157 631 l 2,10,11
 176 645 176 645 192 655.5 c 128,-1,12
 208 666 208 666 224 672.5 c 128,-1,13
 240 679 240 679 256.5 682.5 c 128,-1,14
 273 686 273 686 293 686 c 0,15,16
 308 686 308 686 323 683.5 c 128,-1,17
 338 681 338 681 349.5 677.5 c 128,-1,18
 361 674 361 674 368.5 671 c 128,-1,19
 376 668 376 668 378 667 c 2,20,-1
 378 0 l 1,21,-1
 216 0 l 1,22,-1
 216 491 l 1,0,-1
EndSplineSet
Substitution2: "'dnom' Denominators in Latin lookup 12 subtable" uni2081
Substitution2: "'subs' Subscript in Latin lookup 11 subtable" uniF815
Substitution2: "'sinf' Scientific Inferiors in Latin lookup 10 subtable" uniF815
Substitution2: "'sups' Superscript in Latin lookup 9 subtable" uniF80B
Substitution2: "'numr' Numerators in Latin lookup 8 subtable" uni00B9
Substitution2: "'frac' Diagonal Fractions lookup 7 subtable" uni00B3
Substitution2: "'tnum' Tabular Numbers lookup 5 subtable" uniF801
EndChar

StartChar: two
Encoding: 50 50 21
Width: 564
GlyphClass: 2
Flags: W
LayerCount: 2
Fore
SplineSet
13 137 m 1,0,1
 20 141 20 141 47.5 159 c 128,-1,2
 75 177 75 177 109.5 201.5 c 128,-1,3
 144 226 144 226 178.5 251.5 c 128,-1,4
 213 277 213 277 234 296 c 0,5,6
 267 325 267 325 287.5 347.5 c 128,-1,7
 308 370 308 370 320 390 c 128,-1,8
 332 410 332 410 336.5 428 c 128,-1,9
 341 446 341 446 341 466 c 0,10,11
 341 504 341 504 313 531.5 c 128,-1,12
 285 559 285 559 228 559 c 0,13,14
 199 559 199 559 176.5 551 c 128,-1,15
 154 543 154 543 138 530.5 c 128,-1,16
 122 518 122 518 111.5 503.5 c 128,-1,17
 101 489 101 489 95 476 c 1,18,19
 86 479 86 479 72.5 486.5 c 128,-1,20
 59 494 59 494 46.5 505 c 128,-1,21
 34 516 34 516 24.5 530.5 c 128,-1,22
 15 545 15 545 15 564 c 0,23,24
 15 582 15 582 21 597.5 c 128,-1,25
 27 613 27 613 35 624 c 0,26,27
 40 631 40 631 54 644.5 c 128,-1,28
 68 658 68 658 93.5 671.5 c 128,-1,29
 119 685 119 685 156.5 694.5 c 128,-1,30
 194 704 194 704 247 704 c 0,31,32
 311 704 311 704 360 687 c 128,-1,33
 409 670 409 670 442.5 640 c 128,-1,34
 476 610 476 610 493.5 570 c 128,-1,35
 511 530 511 530 511 484 c 0,36,37
 511 419 511 419 486.5 371 c 128,-1,38
 462 323 462 323 435 291 c 0,39,40
 419 272 419 272 396.5 250.5 c 128,-1,41
 374 229 374 229 351.5 209.5 c 128,-1,42
 329 190 329 190 309.5 174.5 c 128,-1,43
 290 159 290 159 281 152 c 1,44,-1
 516 152 l 1,45,-1
 516 0 l 1,46,-1
 13 0 l 1,47,-1
 13 137 l 1,0,1
EndSplineSet
Substitution2: "'dnom' Denominators in Latin lookup 12 subtable" uni2082
Substitution2: "'subs' Subscript in Latin lookup 11 subtable" uniF816
Substitution2: "'sinf' Scientific Inferiors in Latin lookup 10 subtable" uniF816
Substitution2: "'sups' Superscript in Latin lookup 9 subtable" uniF80C
Substitution2: "'numr' Numerators in Latin lookup 8 subtable" uni00B2
Substitution2: "'frac' Diagonal Fractions lookup 7 subtable" uni00B9
Substitution2: "'tnum' Tabular Numbers lookup 5 subtable" uniF802
EndChar

StartChar: three
Encoding: 51 51 22
Width: 594
GlyphClass: 2
Flags: W
LayerCount: 2
Fore
SplineSet
81 180 m 1,0,1
 89 174 89 174 105 165 c 128,-1,2
 121 156 121 156 143.5 148 c 128,-1,3
 166 140 166 140 194.5 134.5 c 128,-1,4
 223 129 223 129 257 129 c 0,5,6
 319 129 319 129 345 151.5 c 128,-1,7
 371 174 371 174 371 204 c 0,8,9
 371 238 371 238 344.5 257 c 128,-1,10
 318 276 318 276 259 276 c 2,11,-1
 190 276 l 1,12,13
 186 283 186 283 178 305 c 128,-1,14
 170 327 170 327 170 353 c 0,15,16
 170 389 170 389 190.5 406.5 c 128,-1,17
 211 424 211 424 256 424 c 2,18,-1
 266 424 l 2,19,20
 320 424 320 424 341 443.5 c 128,-1,21
 362 463 362 463 362 491 c 0,22,23
 362 504 362 504 356.5 517 c 128,-1,24
 351 530 351 530 339 540.5 c 128,-1,25
 327 551 327 551 306.5 557 c 128,-1,26
 286 563 286 563 256 563 c 0,27,28
 222 563 222 563 196.5 554 c 128,-1,29
 171 545 171 545 153.5 532.5 c 128,-1,30
 136 520 136 520 126 506.5 c 128,-1,31
 116 493 116 493 113 484 c 1,32,33
 96 487 96 487 81 495 c 128,-1,34
 66 503 66 503 55 515 c 128,-1,35
 44 527 44 527 37 541.5 c 128,-1,36
 30 556 30 556 30 572 c 256,37,38
 30 588 30 588 35.5 603.5 c 128,-1,39
 41 619 41 619 55 635 c 0,40,41
 62 643 62 643 77.5 654.5 c 128,-1,42
 93 666 93 666 118.5 677 c 128,-1,43
 144 688 144 688 180.5 696 c 128,-1,44
 217 704 217 704 267 704 c 0,45,46
 333 704 333 704 382 688 c 128,-1,47
 431 672 431 672 463.5 645.5 c 128,-1,48
 496 619 496 619 512 583.5 c 128,-1,49
 528 548 528 548 528 509 c 0,50,51
 528 453 528 453 499 414 c 128,-1,52
 470 375 470 375 431 354 c 1,53,54
 488 331 488 331 513.5 288.5 c 128,-1,55
 539 246 539 246 539 196 c 0,56,57
 539 148 539 148 520 109 c 128,-1,58
 501 70 501 70 466.5 42 c 128,-1,59
 432 14 432 14 383.5 -1.5 c 128,-1,60
 335 -17 335 -17 277 -17 c 0,61,62
 218 -17 218 -17 171.5 -7.5 c 128,-1,63
 125 2 125 2 91.5 14 c 128,-1,64
 58 26 58 26 37 38.5 c 128,-1,65
 16 51 16 51 8 57 c 1,66,-1
 81 180 l 1,0,1
EndSplineSet
Substitution2: "'dnom' Denominators in Latin lookup 12 subtable" uni2083
Substitution2: "'subs' Subscript in Latin lookup 11 subtable" uniF817
Substitution2: "'sinf' Scientific Inferiors in Latin lookup 10 subtable" uniF817
Substitution2: "'sups' Superscript in Latin lookup 9 subtable" uniF80D
Substitution2: "'numr' Numerators in Latin lookup 8 subtable" uni00B3
Substitution2: "'frac' Diagonal Fractions lookup 7 subtable" uni2070
Substitution2: "'tnum' Tabular Numbers lookup 5 subtable" uniF803
EndChar

StartChar: four
Encoding: 52 52 23
Width: 634
GlyphClass: 2
Flags: W
LayerCount: 2
Fore
SplineSet
359 283 m 1,0,-1
 359 516 l 1,1,2
 333 500 333 500 308 477.5 c 128,-1,3
 283 455 283 455 263 430 c 0,4,5
 229 388 229 388 213.5 357 c 128,-1,6
 198 326 198 326 198 309 c 256,7,8
 198 292 198 292 211.5 287.5 c 128,-1,9
 225 283 225 283 245 283 c 2,10,-1
 359 283 l 1,0,-1
359 133 m 1,11,-1
 208 133 l 2,12,13
 171 133 171 133 139 140 c 128,-1,14
 107 147 107 147 83.5 162 c 128,-1,15
 60 177 60 177 46.5 201.5 c 128,-1,16
 33 226 33 226 33 261 c 0,17,18
 33 294 33 294 42 327 c 128,-1,19
 51 360 51 360 66 391.5 c 128,-1,20
 81 423 81 423 100.5 452 c 128,-1,21
 120 481 120 481 142 507 c 0,22,23
 171 543 171 543 205 575 c 128,-1,24
 239 607 239 607 275 632 c 128,-1,25
 311 657 311 657 348.5 671.5 c 128,-1,26
 386 686 386 686 423 686 c 0,27,28
 471 686 471 686 492.5 677.5 c 128,-1,29
 514 669 514 669 519 666 c 1,30,-1
 519 283 l 1,31,-1
 528 283 l 2,32,33
 573 283 573 283 592 265 c 128,-1,34
 611 247 611 247 611 211 c 0,35,36
 611 185 611 185 603 162.5 c 128,-1,37
 595 140 595 140 591 133 c 1,38,-1
 519 133 l 1,39,-1
 519 0 l 1,40,-1
 359 0 l 1,41,-1
 359 133 l 1,11,-1
EndSplineSet
Substitution2: "'dnom' Denominators in Latin lookup 12 subtable" uni2084
Substitution2: "'subs' Subscript in Latin lookup 11 subtable" uniF818
Substitution2: "'sinf' Scientific Inferiors in Latin lookup 10 subtable" uniF818
Substitution2: "'sups' Superscript in Latin lookup 9 subtable" uniF80E
Substitution2: "'numr' Numerators in Latin lookup 8 subtable" uni2074
Substitution2: "'frac' Diagonal Fractions lookup 7 subtable" uni2074
Substitution2: "'tnum' Tabular Numbers lookup 5 subtable" uniF804
EndChar

StartChar: five
Encoding: 53 53 24
Width: 575
GlyphClass: 2
Flags: W
LayerCount: 2
Fore
SplineSet
73 168 m 1,0,1
 79 164 79 164 95 157.5 c 128,-1,2
 111 151 111 151 133 144.5 c 128,-1,3
 155 138 155 138 182.5 133 c 128,-1,4
 210 128 210 128 239 128 c 0,5,6
 277 128 277 128 302 135 c 128,-1,7
 327 142 327 142 341.5 154 c 128,-1,8
 356 166 356 166 362 181.5 c 128,-1,9
 368 197 368 197 368 214 c 0,10,11
 368 230 368 230 362.5 246 c 128,-1,12
 357 262 357 262 341 274.5 c 128,-1,13
 325 287 325 287 295.5 295 c 128,-1,14
 266 303 266 303 218 303 c 0,15,16
 198 303 198 303 174.5 301 c 128,-1,17
 151 299 151 299 128 295.5 c 128,-1,18
 105 292 105 292 85.5 288 c 128,-1,19
 66 284 66 284 55 280 c 1,20,-1
 65 591 l 2,21,22
 67 639 67 639 90.5 662.5 c 128,-1,23
 114 686 114 686 164 686 c 2,24,-1
 422 686 l 2,25,26
 467 686 467 686 486 668 c 128,-1,27
 505 650 505 650 505 614 c 0,28,29
 505 588 505 588 497 565.5 c 128,-1,30
 489 543 489 543 485 536 c 1,31,-1
 212 536 l 1,32,-1
 209 436 l 1,33,34
 220 438 220 438 239.5 439 c 128,-1,35
 259 440 259 440 287 440 c 0,36,37
 356 440 356 440 403 422 c 128,-1,38
 450 404 450 404 479 373.5 c 128,-1,39
 508 343 508 343 521 303 c 128,-1,40
 534 263 534 263 534 220 c 0,41,42
 534 167 534 167 515.5 123.5 c 128,-1,43
 497 80 497 80 462.5 49 c 128,-1,44
 428 18 428 18 377 0.5 c 128,-1,45
 326 -17 326 -17 262 -17 c 0,46,47
 202 -17 202 -17 156.5 -8.5 c 128,-1,48
 111 0 111 0 79.5 11 c 128,-1,49
 48 22 48 22 31 31.5 c 128,-1,50
 14 41 14 41 11 44 c 1,51,-1
 73 168 l 1,0,1
EndSplineSet
Substitution2: "'dnom' Denominators in Latin lookup 12 subtable" uni2085
Substitution2: "'subs' Subscript in Latin lookup 11 subtable" uniF819
Substitution2: "'sinf' Scientific Inferiors in Latin lookup 10 subtable" uniF819
Substitution2: "'sups' Superscript in Latin lookup 9 subtable" uniF80F
Substitution2: "'numr' Numerators in Latin lookup 8 subtable" uni2075
Substitution2: "'frac' Diagonal Fractions lookup 7 subtable" uni2075
Substitution2: "'tnum' Tabular Numbers lookup 5 subtable" uniF805
EndChar

StartChar: six
Encoding: 54 54 25
Width: 620
GlyphClass: 2
Flags: W
LayerCount: 2
Fore
SplineSet
271 659 m 2,0,1
 287 680 287 680 308 692 c 128,-1,2
 329 704 329 704 360 704 c 0,3,4
 382 704 382 704 400.5 698.5 c 128,-1,5
 419 693 419 693 432.5 686 c 128,-1,6
 446 679 446 679 454.5 672.5 c 128,-1,7
 463 666 463 666 465 663 c 2,8,-1
 324 470 l 1,9,10
 329 471 329 471 336.5 471.5 c 128,-1,11
 344 472 344 472 349 472 c 0,12,13
 407 472 407 472 451 453.5 c 128,-1,14
 495 435 495 435 525 404 c 128,-1,15
 555 373 555 373 570 331.5 c 128,-1,16
 585 290 585 290 585 244 c 0,17,18
 585 186 585 186 564.5 138 c 128,-1,19
 544 90 544 90 507.5 55.5 c 128,-1,20
 471 21 471 21 420.5 2 c 128,-1,21
 370 -17 370 -17 310 -17 c 256,22,23
 250 -17 250 -17 200 1.5 c 128,-1,24
 150 20 150 20 114.5 53.5 c 128,-1,25
 79 87 79 87 59 134 c 128,-1,26
 39 181 39 181 39 237 c 0,27,28
 39 273 39 273 48 307 c 128,-1,29
 57 341 57 341 72.5 373.5 c 128,-1,30
 88 406 88 406 108.5 437.5 c 128,-1,31
 129 469 129 469 153 501 c 2,32,-1
 271 659 l 2,0,1
195 241 m 256,33,34
 195 191 195 191 226.5 159.5 c 128,-1,35
 258 128 258 128 309 128 c 0,36,37
 362 128 362 128 392.5 159 c 128,-1,38
 423 190 423 190 423 241 c 0,39,40
 423 291 423 291 392 323.5 c 128,-1,41
 361 356 361 356 309 356 c 0,42,43
 258 356 258 356 226.5 323.5 c 128,-1,44
 195 291 195 291 195 241 c 256,33,34
EndSplineSet
Substitution2: "'dnom' Denominators in Latin lookup 12 subtable" uni2086
Substitution2: "'subs' Subscript in Latin lookup 11 subtable" uniF81A
Substitution2: "'sinf' Scientific Inferiors in Latin lookup 10 subtable" uniF81A
Substitution2: "'sups' Superscript in Latin lookup 9 subtable" uniF810
Substitution2: "'numr' Numerators in Latin lookup 8 subtable" uni2076
Substitution2: "'frac' Diagonal Fractions lookup 7 subtable" uni2076
Substitution2: "'tnum' Tabular Numbers lookup 5 subtable" uniF806
EndChar

StartChar: seven
Encoding: 55 55 26
Width: 560
GlyphClass: 2
Flags: W
LayerCount: 2
Fore
SplineSet
109 0 m 1,0,1
 113 11 113 11 128.5 46 c 128,-1,2
 144 81 144 81 166 130.5 c 128,-1,3
 188 180 188 180 213.5 237.5 c 128,-1,4
 239 295 239 295 263 350 c 128,-1,5
 287 405 287 405 307.5 453 c 128,-1,6
 328 501 328 501 340 530 c 1,7,-1
 100 530 l 2,8,9
 54 530 54 530 34.5 549.5 c 128,-1,10
 15 569 15 569 15 606 c 0,11,12
 15 633 15 633 23 655.5 c 128,-1,13
 31 678 31 678 36 686 c 1,14,-1
 436 686 l 2,15,16
 479 686 479 686 502 662.5 c 128,-1,17
 525 639 525 639 525 594 c 0,18,19
 525 579 525 579 519.5 560 c 128,-1,20
 514 541 514 541 507 521 c 0,21,22
 499 498 499 498 482.5 458.5 c 128,-1,23
 466 419 466 419 444.5 370.5 c 128,-1,24
 423 322 423 322 399.5 268.5 c 128,-1,25
 376 215 376 215 353.5 164.5 c 128,-1,26
 331 114 331 114 311.5 71 c 128,-1,27
 292 28 292 28 279 0 c 1,28,-1
 109 0 l 1,0,1
EndSplineSet
Substitution2: "'dnom' Denominators in Latin lookup 12 subtable" uni2087
Substitution2: "'subs' Subscript in Latin lookup 11 subtable" uniF81B
Substitution2: "'sinf' Scientific Inferiors in Latin lookup 10 subtable" uniF81B
Substitution2: "'sups' Superscript in Latin lookup 9 subtable" uniF811
Substitution2: "'numr' Numerators in Latin lookup 8 subtable" uni2077
Substitution2: "'frac' Diagonal Fractions lookup 7 subtable" uni2077
Substitution2: "'tnum' Tabular Numbers lookup 5 subtable" uniF807
EndChar

StartChar: eight
Encoding: 56 56 27
Width: 680
GlyphClass: 2
Flags: W
LayerCount: 2
Fore
SplineSet
156 349 m 1,0,1
 112 376 112 376 90.5 415.5 c 128,-1,2
 69 455 69 455 69 497 c 0,3,4
 69 545 69 545 88.5 583.5 c 128,-1,5
 108 622 108 622 143.5 648.5 c 128,-1,6
 179 675 179 675 229 689.5 c 128,-1,7
 279 704 279 704 340 704 c 256,8,9
 401 704 401 704 451 689.5 c 128,-1,10
 501 675 501 675 536.5 648.5 c 128,-1,11
 572 622 572 622 591.5 583.5 c 128,-1,12
 611 545 611 545 611 497 c 0,13,14
 611 455 611 455 589.5 415.5 c 128,-1,15
 568 376 568 376 524 349 c 1,16,17
 575 322 575 322 600 280.5 c 128,-1,18
 625 239 625 239 625 193 c 0,19,20
 625 145 625 145 605 106 c 128,-1,21
 585 67 585 67 548 39.5 c 128,-1,22
 511 12 511 12 458 -2.5 c 128,-1,23
 405 -17 405 -17 340 -17 c 256,24,25
 275 -17 275 -17 222 -2.5 c 128,-1,26
 169 12 169 12 132 39.5 c 128,-1,27
 95 67 95 67 75 106 c 128,-1,28
 55 145 55 145 55 193 c 0,29,30
 55 239 55 239 79.5 280.5 c 128,-1,31
 104 322 104 322 156 349 c 1,0,1
231 492 m 0,32,33
 231 460 231 460 256 437.5 c 128,-1,34
 281 415 281 415 340 415 c 256,35,36
 399 415 399 415 424 437.5 c 128,-1,37
 449 460 449 460 449 492 c 0,38,39
 449 508 449 508 443 522 c 128,-1,40
 437 536 437 536 424 546.5 c 128,-1,41
 411 557 411 557 390.5 563.5 c 128,-1,42
 370 570 370 570 340 570 c 256,43,44
 310 570 310 570 289.5 563.5 c 128,-1,45
 269 557 269 557 256 546.5 c 128,-1,46
 243 536 243 536 237 522 c 128,-1,47
 231 508 231 508 231 492 c 0,32,33
219 203 m 0,48,49
 219 168 219 168 248 145.5 c 128,-1,50
 277 123 277 123 340 123 c 256,51,52
 403 123 403 123 432 145.5 c 128,-1,53
 461 168 461 168 461 203 c 0,54,55
 461 237 461 237 432 259.5 c 128,-1,56
 403 282 403 282 340 282 c 256,57,58
 277 282 277 282 248 259.5 c 128,-1,59
 219 237 219 237 219 203 c 0,48,49
EndSplineSet
Substitution2: "'dnom' Denominators in Latin lookup 12 subtable" uni2088
Substitution2: "'subs' Subscript in Latin lookup 11 subtable" uniF81C
Substitution2: "'sinf' Scientific Inferiors in Latin lookup 10 subtable" uniF81C
Substitution2: "'sups' Superscript in Latin lookup 9 subtable" uniF812
Substitution2: "'numr' Numerators in Latin lookup 8 subtable" uni2078
Substitution2: "'frac' Diagonal Fractions lookup 7 subtable" uni2078
Substitution2: "'tnum' Tabular Numbers lookup 5 subtable" uniF808
EndChar

StartChar: nine
Encoding: 57 57 28
Width: 620
GlyphClass: 2
Flags: W
LayerCount: 2
Fore
SplineSet
294 218 m 1,0,1
 289 217 289 217 281.5 216.5 c 128,-1,2
 274 216 274 216 269 216 c 0,3,4
 211 216 211 216 167 234.5 c 128,-1,5
 123 253 123 253 93 284 c 128,-1,6
 63 315 63 315 48 356.5 c 128,-1,7
 33 398 33 398 33 444 c 0,8,9
 33 502 33 502 53.5 550 c 128,-1,10
 74 598 74 598 110.5 632.5 c 128,-1,11
 147 667 147 667 197.5 686 c 128,-1,12
 248 705 248 705 308 705 c 256,13,14
 368 705 368 705 418 686.5 c 128,-1,15
 468 668 468 668 503.5 634.5 c 128,-1,16
 539 601 539 601 559 554 c 128,-1,17
 579 507 579 507 579 451 c 0,18,19
 579 415 579 415 570 381 c 128,-1,20
 561 347 561 347 545.5 314.5 c 128,-1,21
 530 282 530 282 509.5 250.5 c 128,-1,22
 489 219 489 219 465 187 c 2,23,-1
 321 -8 l 1,24,-1
 128 -8 l 1,25,-1
 294 218 l 1,0,1
309 332 m 0,26,27
 360 332 360 332 391.5 364.5 c 128,-1,28
 423 397 423 397 423 447 c 256,29,30
 423 497 423 497 391.5 528.5 c 128,-1,31
 360 560 360 560 309 560 c 0,32,33
 256 560 256 560 225.5 529 c 128,-1,34
 195 498 195 498 195 447 c 0,35,36
 195 397 195 397 226 364.5 c 128,-1,37
 257 332 257 332 309 332 c 0,26,27
EndSplineSet
Substitution2: "'dnom' Denominators in Latin lookup 12 subtable" uni2089
Substitution2: "'subs' Subscript in Latin lookup 11 subtable" uniF81D
Substitution2: "'sinf' Scientific Inferiors in Latin lookup 10 subtable" uniF81D
Substitution2: "'sups' Superscript in Latin lookup 9 subtable" uniF813
Substitution2: "'numr' Numerators in Latin lookup 8 subtable" uni2079
Substitution2: "'frac' Diagonal Fractions lookup 7 subtable" uni2079
Substitution2: "'tnum' Tabular Numbers lookup 5 subtable" uniF809
EndChar

StartChar: colon
Encoding: 58 58 29
Width: 337
GlyphClass: 2
Flags: W
LayerCount: 2
Fore
SplineSet
169 317 m 0,0,1
 149 317 149 317 132 324.5 c 128,-1,2
 115 332 115 332 101.5 345.5 c 128,-1,3
 88 359 88 359 80.5 376.5 c 128,-1,4
 73 394 73 394 73 414 c 0,5,6
 73 433 73 433 80.5 450.5 c 128,-1,7
 88 468 88 468 101.5 481.5 c 128,-1,8
 115 495 115 495 132 502.5 c 128,-1,9
 149 510 149 510 169 510 c 0,10,11
 188 510 188 510 205.5 502.5 c 128,-1,12
 223 495 223 495 236.5 481.5 c 128,-1,13
 250 468 250 468 257.5 450.5 c 128,-1,14
 265 433 265 433 265 414 c 0,15,16
 265 394 265 394 257.5 376.5 c 128,-1,17
 250 359 250 359 236.5 345.5 c 128,-1,18
 223 332 223 332 205.5 324.5 c 128,-1,19
 188 317 188 317 169 317 c 0,0,1
169 -17 m 0,20,21
 149 -17 149 -17 132 -9.5 c 128,-1,22
 115 -2 115 -2 101.5 11.5 c 128,-1,23
 88 25 88 25 80.5 42.5 c 128,-1,24
 73 60 73 60 73 80 c 0,25,26
 73 99 73 99 80.5 116.5 c 128,-1,27
 88 134 88 134 101.5 147.5 c 128,-1,28
 115 161 115 161 132 168.5 c 128,-1,29
 149 176 149 176 169 176 c 0,30,31
 188 176 188 176 205.5 168.5 c 128,-1,32
 223 161 223 161 236.5 147.5 c 128,-1,33
 250 134 250 134 257.5 116.5 c 128,-1,34
 265 99 265 99 265 80 c 0,35,36
 265 60 265 60 257.5 42.5 c 128,-1,37
 250 25 250 25 236.5 11.5 c 128,-1,38
 223 -2 223 -2 205.5 -9.5 c 128,-1,39
 188 -17 188 -17 169 -17 c 0,20,21
EndSplineSet
EndChar

StartChar: less
Encoding: 60 60 31
Width: 630
GlyphClass: 2
Flags: W
LayerCount: 2
Fore
SplineSet
561 605 m 1,0,-1
 561 439 l 1,1,-1
 283 343 l 1,2,-1
 561 247 l 1,3,-1
 561 81 l 1,4,-1
 127 255 l 2,5,6
 95 268 95 268 82 292 c 128,-1,7
 69 316 69 316 69 343 c 0,8,9
 69 371 69 371 79.5 390.5 c 128,-1,10
 90 410 90 410 103 421 c 1,11,-1
 561 605 l 1,0,-1
EndSplineSet
EndChar

StartChar: equal
Encoding: 61 61 32
Width: 630
GlyphClass: 2
Flags: W
LayerCount: 2
Fore
SplineSet
507 544 m 2,0,1
 546 544 546 544 562 523 c 128,-1,2
 578 502 578 502 578 464 c 0,3,4
 578 437 578 437 571.5 416.5 c 128,-1,5
 565 396 565 396 563 391 c 1,6,-1
 123 391 l 2,7,8
 84 391 84 391 68 412 c 128,-1,9
 52 433 52 433 52 471 c 0,10,11
 52 498 52 498 58.5 518.5 c 128,-1,12
 65 539 65 539 67 544 c 1,13,-1
 507 544 l 2,0,1
507 295 m 2,14,15
 546 295 546 295 562 274 c 128,-1,16
 578 253 578 253 578 215 c 0,17,18
 578 188 578 188 571.5 167.5 c 128,-1,19
 565 147 565 147 563 142 c 1,20,-1
 123 142 l 2,21,22
 84 142 84 142 68 163 c 128,-1,23
 52 184 52 184 52 222 c 0,24,25
 52 249 52 249 58.5 269.5 c 128,-1,26
 65 290 65 290 67 295 c 1,27,-1
 507 295 l 2,14,15
EndSplineSet
EndChar

StartChar: greater
Encoding: 62 62 33
Width: 630
GlyphClass: 2
Flags: W
LayerCount: 2
Fore
SplineSet
69 247 m 1,0,-1
 347 343 l 1,1,-1
 69 439 l 1,2,-1
 69 605 l 1,3,-1
 503 431 l 2,4,5
 535 418 535 418 548 394 c 128,-1,6
 561 370 561 370 561 343 c 0,7,8
 561 315 561 315 550.5 295.5 c 128,-1,9
 540 276 540 276 527 265 c 1,10,-1
 69 81 l 1,11,-1
 69 247 l 1,0,-1
EndSplineSet
EndChar

StartChar: question
Encoding: 63 63 34
Width: 542
GlyphClass: 2
Flags: W
LayerCount: 2
Fore
SplineSet
157 243 m 2,0,1
 157 293 157 293 176 324 c 128,-1,2
 195 355 195 355 237 379 c 0,3,4
 280 403 280 403 308.5 427 c 128,-1,5
 337 451 337 451 337 490 c 0,6,7
 337 519 337 519 314 542.5 c 128,-1,8
 291 566 291 566 236 566 c 0,9,10
 183 566 183 566 149 543.5 c 128,-1,11
 115 521 115 521 98 492 c 1,12,13
 66 499 66 499 43.5 523.5 c 128,-1,14
 21 548 21 548 21 577 c 0,15,16
 21 594 21 594 26.5 609.5 c 128,-1,17
 32 625 32 625 46 641 c 0,18,19
 53 649 53 649 68 660 c 128,-1,20
 83 671 83 671 107.5 680.5 c 128,-1,21
 132 690 132 690 167.5 697 c 128,-1,22
 203 704 203 704 251 704 c 0,23,24
 315 704 315 704 362.5 688 c 128,-1,25
 410 672 410 672 441 644.5 c 128,-1,26
 472 617 472 617 487 580.5 c 128,-1,27
 502 544 502 544 502 504 c 256,28,29
 502 464 502 464 492.5 434 c 128,-1,30
 483 404 483 404 467.5 380.5 c 128,-1,31
 452 357 452 357 433 340 c 128,-1,32
 414 323 414 323 395 310 c 0,33,34
 361 287 361 287 339 269.5 c 128,-1,35
 317 252 317 252 317 220 c 1,36,-1
 157 220 l 1,37,-1
 157 243 l 2,0,1
141 76 m 256,38,39
 141 95 141 95 148.5 111.5 c 128,-1,40
 156 128 156 128 169.5 140.5 c 128,-1,41
 183 153 183 153 200 160.5 c 128,-1,42
 217 168 217 168 237 168 c 0,43,44
 256 168 256 168 273.5 160.5 c 128,-1,45
 291 153 291 153 304.5 140.5 c 128,-1,46
 318 128 318 128 325.5 111.5 c 128,-1,47
 333 95 333 95 333 76 c 256,48,49
 333 57 333 57 325.5 40 c 128,-1,50
 318 23 318 23 304.5 10.5 c 128,-1,51
 291 -2 291 -2 273.5 -9.5 c 128,-1,52
 256 -17 256 -17 237 -17 c 0,53,54
 217 -17 217 -17 200 -9.5 c 128,-1,55
 183 -2 183 -2 169.5 10.5 c 128,-1,56
 156 23 156 23 148.5 40 c 128,-1,57
 141 57 141 57 141 76 c 256,38,39
EndSplineSet
EndChar

StartChar: at
Encoding: 64 64 35
Width: 988
GlyphClass: 2
Flags: W
LayerCount: 2
Fore
SplineSet
756 -160 m 1,0,1
 750 -163 750 -163 733 -170 c 128,-1,2
 716 -177 716 -177 685.5 -183.5 c 128,-1,3
 655 -190 655 -190 610.5 -195.5 c 128,-1,4
 566 -201 566 -201 506 -201 c 0,5,6
 403 -201 403 -201 317.5 -167.5 c 128,-1,7
 232 -134 232 -134 170.5 -74 c 128,-1,8
 109 -14 109 -14 74.5 68.5 c 128,-1,9
 40 151 40 151 40 249 c 0,10,11
 40 348 40 348 74 431 c 128,-1,12
 108 514 108 514 168.5 575 c 128,-1,13
 229 636 229 636 312.5 670 c 128,-1,14
 396 704 396 704 494 704 c 256,15,16
 592 704 592 704 675.5 670.5 c 128,-1,17
 759 637 759 637 819.5 576.5 c 128,-1,18
 880 516 880 516 914 432.5 c 128,-1,19
 948 349 948 349 948 249 c 0,20,21
 948 173 948 173 932.5 118.5 c 128,-1,22
 917 64 917 64 900 22 c 1,23,24
 886 20 886 20 854 18 c 128,-1,25
 822 16 822 16 777 14 c 128,-1,26
 732 12 732 12 677 10.5 c 128,-1,27
 622 9 622 9 561 9 c 0,28,29
 503 9 503 9 452 13.5 c 128,-1,30
 401 18 401 18 363.5 34.5 c 128,-1,31
 326 51 326 51 304.5 82 c 128,-1,32
 283 113 283 113 283 166 c 0,33,34
 283 241 283 241 334 278.5 c 128,-1,35
 385 316 385 316 494 316 c 0,36,37
 513 316 513 316 529.5 315 c 128,-1,38
 546 314 546 314 557 313 c 1,39,40
 557 326 557 326 553.5 338 c 128,-1,41
 550 350 550 350 539.5 359 c 128,-1,42
 529 368 529 368 510.5 373.5 c 128,-1,43
 492 379 492 379 462 379 c 0,44,45
 409 379 409 379 383 368 c 128,-1,46
 357 357 357 357 350 352 c 0,47,48
 348 353 348 353 342.5 358.5 c 128,-1,49
 337 364 337 364 331 372 c 128,-1,50
 325 380 325 380 320.5 391 c 128,-1,51
 316 402 316 402 316 415 c 0,52,53
 316 457 316 457 354 475.5 c 128,-1,54
 392 494 392 494 475 494 c 0,55,56
 522 494 522 494 562.5 485 c 128,-1,57
 603 476 603 476 633 454 c 128,-1,58
 663 432 663 432 680 396.5 c 128,-1,59
 697 361 697 361 697 309 c 2,60,-1
 697 118 l 1,61,-1
 790 122 l 1,62,63
 793 132 793 132 799 168 c 128,-1,64
 805 204 805 204 805 249 c 0,65,66
 805 321 805 321 782 379.5 c 128,-1,67
 759 438 759 438 718 480 c 128,-1,68
 677 522 677 522 620 545 c 128,-1,69
 563 568 563 568 494 568 c 256,70,71
 425 568 425 568 368 544.5 c 128,-1,72
 311 521 311 521 270 478.5 c 128,-1,73
 229 436 229 436 206 377.5 c 128,-1,74
 183 319 183 319 183 249 c 256,75,76
 183 179 183 179 206.5 121 c 128,-1,77
 230 63 230 63 273.5 21 c 128,-1,78
 317 -21 317 -21 380 -44 c 128,-1,79
 443 -67 443 -67 523 -67 c 0,80,81
 560 -67 560 -67 591 -63.5 c 128,-1,82
 622 -60 622 -60 645 -55 c 128,-1,83
 668 -50 668 -50 683 -45 c 128,-1,84
 698 -40 698 -40 703 -37 c 1,85,-1
 756 -160 l 1,0,1
558 218 m 1,86,87
 554 219 554 219 540 221 c 128,-1,88
 526 223 526 223 507 223 c 0,89,90
 478 223 478 223 461 219 c 128,-1,91
 444 215 444 215 435 207.5 c 128,-1,92
 426 200 426 200 423.5 190.5 c 128,-1,93
 421 181 421 181 421 169 c 256,94,95
 421 157 421 157 424 147 c 128,-1,96
 427 137 427 137 436 129.5 c 128,-1,97
 445 122 445 122 461.5 118 c 128,-1,98
 478 114 478 114 505 114 c 0,99,100
 522 114 522 114 538 115 c 128,-1,101
 554 116 554 116 558 117 c 1,102,-1
 558 218 l 1,86,87
EndSplineSet
EndChar

StartChar: A
Encoding: 65 65 36
Width: 769
GlyphClass: 2
Flags: W
LayerCount: 2
Fore
SplineSet
5 0 m 1,0,1
 26 56 26 56 56 130.5 c 128,-1,2
 86 205 86 205 120.5 288.5 c 128,-1,3
 155 372 155 372 192.5 459 c 128,-1,4
 230 546 230 546 266 627 c 0,5,6
 285 670 285 670 312.5 687 c 128,-1,7
 340 704 340 704 385 704 c 0,8,9
 402 704 402 704 418.5 700 c 128,-1,10
 435 696 435 696 448 690.5 c 128,-1,11
 461 685 461 685 469 680 c 128,-1,12
 477 675 477 675 479 674 c 0,13,14
 494 649 494 649 518.5 595 c 128,-1,15
 543 541 543 541 572 473.5 c 128,-1,16
 601 406 601 406 632 332 c 128,-1,17
 663 258 663 258 689.5 191.5 c 128,-1,18
 716 125 716 125 736 73.5 c 128,-1,19
 756 22 756 22 764 0 c 1,20,-1
 580 0 l 1,21,22
 569 29 569 29 556 64.5 c 128,-1,23
 543 100 543 100 524 148 c 1,24,-1
 233 148 l 1,25,26
 217 106 217 106 204.5 71 c 128,-1,27
 192 36 192 36 178 0 c 1,28,-1
 5 0 l 1,0,1
467 299 m 1,29,30
 457 326 457 326 444 359.5 c 128,-1,31
 431 393 431 393 419 424.5 c 128,-1,32
 407 456 407 456 396.5 482.5 c 128,-1,33
 386 509 386 509 380 522 c 1,34,35
 374 508 374 508 364 482.5 c 128,-1,36
 354 457 354 457 342 425.5 c 128,-1,37
 330 394 330 394 317 361 c 128,-1,38
 304 328 304 328 293 299 c 1,39,-1
 467 299 l 1,29,30
EndSplineSet
EndChar

StartChar: B
Encoding: 66 66 37
Width: 684
GlyphClass: 2
Flags: W
LayerCount: 2
Fore
SplineSet
70 597 m 2,0,1
 70 619 70 619 76 635 c 128,-1,2
 82 651 82 651 91.5 661.5 c 128,-1,3
 101 672 101 672 113.5 677.5 c 128,-1,4
 126 683 126 683 139 685 c 0,5,6
 149 687 149 687 162.5 689 c 128,-1,7
 176 691 176 691 196.5 692.5 c 128,-1,8
 217 694 217 694 246.5 695 c 128,-1,9
 276 696 276 696 318 696 c 0,10,11
 411 696 411 696 471.5 681 c 128,-1,12
 532 666 532 666 567.5 639.5 c 128,-1,13
 603 613 603 613 617.5 577 c 128,-1,14
 632 541 632 541 632 499 c 0,15,16
 632 468 632 468 624.5 444 c 128,-1,17
 617 420 617 420 605.5 401.5 c 128,-1,18
 594 383 594 383 580 370 c 128,-1,19
 566 357 566 357 552 349 c 1,20,21
 568 343 568 343 586 331 c 128,-1,22
 604 319 604 319 619 300.5 c 128,-1,23
 634 282 634 282 644 255.5 c 128,-1,24
 654 229 654 229 654 194 c 0,25,26
 654 148 654 148 640 110.5 c 128,-1,27
 626 73 626 73 589 46 c 128,-1,28
 552 19 552 19 487 4.5 c 128,-1,29
 422 -10 422 -10 321 -10 c 0,30,31
 271 -10 271 -10 227 -8.5 c 128,-1,32
 183 -7 183 -7 149 -5.5 c 128,-1,33
 115 -4 115 -4 94 -2 c 128,-1,34
 73 0 73 0 70 0 c 1,35,-1
 70 597 l 2,0,1
378 417 m 2,36,37
 403 417 403 417 419.5 422.5 c 128,-1,38
 436 428 436 428 446 437.5 c 128,-1,39
 456 447 456 447 460 458.5 c 128,-1,40
 464 470 464 470 464 482 c 0,41,42
 464 495 464 495 459.5 508 c 128,-1,43
 455 521 455 521 441.5 531 c 128,-1,44
 428 541 428 541 403.5 547 c 128,-1,45
 379 553 379 553 340 553 c 0,46,47
 299 553 299 553 268.5 550.5 c 128,-1,48
 238 548 238 548 233 547 c 1,49,-1
 233 417 l 1,50,-1
 378 417 l 2,36,37
233 140 m 1,51,52
 238 139 238 139 266.5 136.5 c 128,-1,53
 295 134 295 134 352 134 c 0,54,55
 391 134 391 134 416 139 c 128,-1,56
 441 144 441 144 456 153 c 128,-1,57
 471 162 471 162 477 175 c 128,-1,58
 483 188 483 188 483 205 c 0,59,60
 483 218 483 218 479 230 c 128,-1,61
 475 242 475 242 464.5 251.5 c 128,-1,62
 454 261 454 261 436.5 266.5 c 128,-1,63
 419 272 419 272 391 272 c 2,64,-1
 233 272 l 1,65,-1
 233 140 l 1,51,52
EndSplineSet
EndChar

StartChar: C
Encoding: 67 67 38
Width: 671
GlyphClass: 2
Flags: W
LayerCount: 2
Fore
SplineSet
660 51 m 1,0,1
 649 43 649 43 628.5 31.5 c 128,-1,2
 608 20 608 20 577 9 c 128,-1,3
 546 -2 546 -2 504 -10 c 128,-1,4
 462 -18 462 -18 409 -18 c 0,5,6
 334 -18 334 -18 267 4.5 c 128,-1,7
 200 27 200 27 149.5 72 c 128,-1,8
 99 117 99 117 69.5 184 c 128,-1,9
 40 251 40 251 40 340 c 0,10,11
 40 427 40 427 68.5 494.5 c 128,-1,12
 97 562 97 562 146.5 608.5 c 128,-1,13
 196 655 196 655 262.5 679.5 c 128,-1,14
 329 704 329 704 406 704 c 0,15,16
 447 704 447 704 480 699 c 128,-1,17
 513 694 513 694 538.5 686 c 128,-1,18
 564 678 564 678 582 669 c 128,-1,19
 600 660 600 660 611 653 c 0,20,21
 634 636 634 636 644 617.5 c 128,-1,22
 654 599 654 599 654 579 c 0,23,24
 654 560 654 560 646.5 543 c 128,-1,25
 639 526 639 526 628.5 512.5 c 128,-1,26
 618 499 618 499 607.5 489.5 c 128,-1,27
 597 480 597 480 590 476 c 1,28,29
 580 486 580 486 564.5 499.5 c 128,-1,30
 549 513 549 513 527 524 c 128,-1,31
 505 535 505 535 476.5 543 c 128,-1,32
 448 551 448 551 413 551 c 0,33,34
 369 551 369 551 333 536.5 c 128,-1,35
 297 522 297 522 270.5 494.5 c 128,-1,36
 244 467 244 467 229.5 428 c 128,-1,37
 215 389 215 389 215 340 c 0,38,39
 215 290 215 290 231 252 c 128,-1,40
 247 214 247 214 275 188.5 c 128,-1,41
 303 163 303 163 341.5 150 c 128,-1,42
 380 137 380 137 425 137 c 0,43,44
 481 137 481 137 521.5 151 c 128,-1,45
 562 165 562 165 583 180 c 1,46,-1
 658 51 l 1,47,-1
 660 51 l 1,0,1
EndSplineSet
EndChar

StartChar: D
Encoding: 68 68 39
Width: 751
GlyphClass: 2
Flags: W
LayerCount: 2
Fore
SplineSet
237 148 m 1,0,1
 243 147 243 147 263.5 145.5 c 128,-1,2
 284 144 284 144 313 144 c 0,3,4
 363 144 363 144 404 155.5 c 128,-1,5
 445 167 445 167 474.5 191.5 c 128,-1,6
 504 216 504 216 520 254 c 128,-1,7
 536 292 536 292 536 344 c 0,8,9
 536 388 536 388 523 425 c 128,-1,10
 510 462 510 462 483.5 489 c 128,-1,11
 457 516 457 516 416.5 531 c 128,-1,12
 376 546 376 546 321 546 c 0,13,14
 282 546 282 546 261 544.5 c 128,-1,15
 240 543 240 543 237 542 c 2,16,-1
 237 148 l 1,0,1
70 597 m 2,17,18
 70 619 70 619 76 635 c 128,-1,19
 82 651 82 651 91.5 661.5 c 128,-1,20
 101 672 101 672 113.5 677.5 c 128,-1,21
 126 683 126 683 139 685 c 0,22,23
 158 689 158 689 194.5 692.5 c 128,-1,24
 231 696 231 696 302 696 c 0,25,26
 395 696 395 696 470.5 673 c 128,-1,27
 546 650 546 650 599.5 605 c 128,-1,28
 653 560 653 560 682 494.5 c 128,-1,29
 711 429 711 429 711 344 c 0,30,31
 711 260 711 260 684 194.5 c 128,-1,32
 657 129 657 129 603.5 83.5 c 128,-1,33
 550 38 550 38 470.5 14 c 128,-1,34
 391 -10 391 -10 286 -10 c 0,35,36
 173 -10 173 -10 123.5 -5.5 c 128,-1,37
 74 -1 74 -1 70 0 c 1,38,-1
 70 597 l 2,17,18
EndSplineSet
EndChar

StartChar: E
Encoding: 69 69 40
Width: 641
GlyphClass: 2
Flags: W
LayerCount: 2
Fore
SplineSet
70 591 m 2,0,1
 70 686 70 686 169 686 c 2,2,-1
 511 686 l 2,3,4
 557 686 557 686 576.5 666.5 c 128,-1,5
 596 647 596 647 596 610 c 0,6,7
 596 583 596 583 588 560.5 c 128,-1,8
 580 538 580 538 575 530 c 1,9,-1
 237 530 l 1,10,-1
 237 423 l 1,11,-1
 498 423 l 2,12,13
 544 423 544 423 563.5 403.5 c 128,-1,14
 583 384 583 384 583 347 c 0,15,16
 583 320 583 320 575 297.5 c 128,-1,17
 567 275 567 275 562 267 c 1,18,-1
 237 267 l 1,19,-1
 237 156 l 1,20,-1
 591 156 l 1,21,-1
 591 0 l 1,22,-1
 70 0 l 1,23,-1
 70 591 l 2,0,1
EndSplineSet
EndChar

StartChar: F
Encoding: 70 70 41
Width: 593
GlyphClass: 2
Flags: W
LayerCount: 2
Fore
SplineSet
70 591 m 2,0,1
 70 686 70 686 169 686 c 2,2,-1
 488 686 l 2,3,4
 534 686 534 686 553.5 666.5 c 128,-1,5
 573 647 573 647 573 610 c 0,6,7
 573 583 573 583 565 560.5 c 128,-1,8
 557 538 557 538 552 530 c 1,9,-1
 237 530 l 1,10,-1
 237 414 l 1,11,-1
 462 414 l 2,12,13
 508 414 508 414 527.5 394.5 c 128,-1,14
 547 375 547 375 547 338 c 0,15,16
 547 311 547 311 539 288.5 c 128,-1,17
 531 266 531 266 526 258 c 1,18,-1
 237 258 l 1,19,-1
 237 0 l 1,20,-1
 70 0 l 1,21,-1
 70 591 l 2,0,1
EndSplineSet
EndChar

StartChar: G
Encoding: 71 71 42
Width: 720
GlyphClass: 2
Flags: W
LayerCount: 2
Fore
SplineSet
501 252 m 1,0,-1
 440 252 l 2,1,2
 394 252 394 252 374.5 270.5 c 128,-1,3
 355 289 355 289 355 326 c 0,4,5
 355 353 355 353 363 374.5 c 128,-1,6
 371 396 371 396 376 404 c 1,7,-1
 566 404 l 2,8,9
 665 404 665 404 665 309 c 2,10,-1
 665 0 l 1,11,12
 660 -1 660 -1 640.5 -4 c 128,-1,13
 621 -7 621 -7 591 -10 c 128,-1,14
 561 -13 561 -13 523.5 -15.5 c 128,-1,15
 486 -18 486 -18 445 -18 c 0,16,17
 355 -18 355 -18 280.5 4.5 c 128,-1,18
 206 27 206 27 152.5 72 c 128,-1,19
 99 117 99 117 69.5 184.5 c 128,-1,20
 40 252 40 252 40 342 c 0,21,22
 40 426 40 426 68.5 493 c 128,-1,23
 97 560 97 560 148 607 c 128,-1,24
 199 654 199 654 269 679 c 128,-1,25
 339 704 339 704 421 704 c 0,26,27
 463 704 463 704 495.5 699 c 128,-1,28
 528 694 528 694 552.5 687 c 128,-1,29
 577 680 577 680 594 671.5 c 128,-1,30
 611 663 611 663 622 656 c 0,31,32
 664 630 664 630 664 589 c 0,33,34
 664 570 664 570 656.5 553.5 c 128,-1,35
 649 537 649 537 639 524.5 c 128,-1,36
 629 512 629 512 618 502.5 c 128,-1,37
 607 493 607 493 600 488 c 1,38,39
 590 498 590 498 574.5 509.5 c 128,-1,40
 559 521 559 521 537.5 531 c 128,-1,41
 516 541 516 541 487.5 547 c 128,-1,42
 459 553 459 553 424 553 c 0,43,44
 375 553 375 553 336 538 c 128,-1,45
 297 523 297 523 270 495.5 c 128,-1,46
 243 468 243 468 228.5 429 c 128,-1,47
 214 390 214 390 214 342 c 0,48,49
 214 235 214 235 274.5 185 c 128,-1,50
 335 135 335 135 440 135 c 0,51,52
 458 135 458 135 477.5 136 c 128,-1,53
 497 137 497 137 501 138 c 1,54,-1
 501 252 l 1,0,-1
EndSplineSet
EndChar

StartChar: H
Encoding: 72 72 43
Width: 740
GlyphClass: 2
Flags: W
LayerCount: 2
Fore
SplineSet
70 0 m 1,0,-1
 70 612 l 2,1,2
 70 653 70 653 94 669.5 c 128,-1,3
 118 686 118 686 157 686 c 0,4,5
 186 686 186 686 208.5 679 c 128,-1,6
 231 672 231 672 237 670 c 1,7,-1
 237 435 l 1,8,-1
 503 435 l 1,9,-1
 503 612 l 2,10,11
 503 653 503 653 527 669.5 c 128,-1,12
 551 686 551 686 590 686 c 0,13,14
 619 686 619 686 641.5 679 c 128,-1,15
 664 672 664 672 670 670 c 1,16,-1
 670 0 l 1,17,-1
 503 0 l 1,18,-1
 503 277 l 1,19,-1
 237 277 l 1,20,-1
 237 0 l 1,21,-1
 70 0 l 1,0,-1
EndSplineSet
EndChar

StartChar: I
Encoding: 73 73 44
Width: 307
GlyphClass: 2
Flags: W
LayerCount: 2
Fore
SplineSet
70 0 m 1,0,-1
 70 612 l 2,1,2
 70 653 70 653 94 669.5 c 128,-1,3
 118 686 118 686 157 686 c 0,4,5
 186 686 186 686 208.5 679 c 128,-1,6
 231 672 231 672 237 670 c 1,7,-1
 237 0 l 1,8,-1
 70 0 l 1,0,-1
EndSplineSet
EndChar

StartChar: J
Encoding: 74 74 45
Width: 599
GlyphClass: 2
Flags: W
LayerCount: 2
Fore
SplineSet
123 212 m 1,0,1
 127 206 127 206 136.5 192.5 c 128,-1,2
 146 179 146 179 162.5 165.5 c 128,-1,3
 179 152 179 152 202.5 141.5 c 128,-1,4
 226 131 226 131 258 131 c 0,5,6
 314 131 314 131 341.5 158 c 128,-1,7
 369 185 369 185 369 249 c 2,8,-1
 369 612 l 2,9,10
 369 653 369 653 393 669.5 c 128,-1,11
 417 686 417 686 456 686 c 0,12,13
 485 686 485 686 507.5 679 c 128,-1,14
 530 672 530 672 536 670 c 1,15,-1
 536 239 l 2,16,17
 536 182 536 182 520 134.5 c 128,-1,18
 504 87 504 87 471 53 c 128,-1,19
 438 19 438 19 387.5 0.5 c 128,-1,20
 337 -18 337 -18 269 -18 c 0,21,22
 206 -18 206 -18 159 -0.5 c 128,-1,23
 112 17 112 17 79.5 39.5 c 128,-1,24
 47 62 47 62 29.5 83.5 c 128,-1,25
 12 105 12 105 8 113 c 1,26,-1
 123 212 l 1,0,1
EndSplineSet
EndChar

StartChar: K
Encoding: 75 75 46
Width: 700
GlyphClass: 2
Flags: W
LayerCount: 2
Fore
SplineSet
70 0 m 1,0,-1
 70 612 l 2,1,2
 70 653 70 653 94 669.5 c 128,-1,3
 118 686 118 686 157 686 c 0,4,5
 186 686 186 686 208.5 679 c 128,-1,6
 231 672 231 672 237 670 c 1,7,-1
 237 415 l 1,8,9
 260 441 260 441 288.5 471.5 c 128,-1,10
 317 502 317 502 346 533 c 128,-1,11
 375 564 375 564 403 592 c 128,-1,12
 431 620 431 620 454 641 c 0,13,14
 472 657 472 657 496 671.5 c 128,-1,15
 520 686 520 686 556 686 c 0,16,17
 579 686 579 686 598 680.5 c 128,-1,18
 617 675 617 675 630.5 667.5 c 128,-1,19
 644 660 644 660 653 652 c 128,-1,20
 662 644 662 644 666 639 c 1,21,22
 661 634 661 634 643 616 c 128,-1,23
 625 598 625 598 600.5 573 c 128,-1,24
 576 548 576 548 547 518.5 c 128,-1,25
 518 489 518 489 490 460.5 c 128,-1,26
 462 432 462 432 438.5 407 c 128,-1,27
 415 382 415 382 401 366 c 1,28,29
 443 321 443 321 481 277.5 c 128,-1,30
 519 234 519 234 554.5 189.5 c 128,-1,31
 590 145 590 145 624.5 98.5 c 128,-1,32
 659 52 659 52 695 0 c 1,33,-1
 490 0 l 1,34,35
 464 35 464 35 432 75.5 c 128,-1,36
 400 116 400 116 366.5 156.5 c 128,-1,37
 333 197 333 197 299 234 c 128,-1,38
 265 271 265 271 237 299 c 1,39,-1
 237 0 l 1,40,-1
 70 0 l 1,0,-1
EndSplineSet
EndChar

StartChar: L
Encoding: 76 76 47
Width: 559
GlyphClass: 2
Flags: W
LayerCount: 2
Fore
SplineSet
70 0 m 1,0,-1
 70 612 l 2,1,2
 70 653 70 653 94 669.5 c 128,-1,3
 118 686 118 686 157 686 c 0,4,5
 186 686 186 686 208.5 679 c 128,-1,6
 231 672 231 672 237 670 c 1,7,-1
 237 156 l 1,8,-1
 554 156 l 1,9,-1
 554 0 l 1,10,-1
 70 0 l 1,0,-1
EndSplineSet
EndChar

StartChar: M
Encoding: 77 77 48
Width: 904
GlyphClass: 2
Flags: W
LayerCount: 2
Fore
SplineSet
99 600 m 2,0,1
 100 625 100 625 108.5 642 c 128,-1,2
 117 659 117 659 130.5 668.5 c 128,-1,3
 144 678 144 678 161 682 c 128,-1,4
 178 686 178 686 197 686 c 0,5,6
 236 686 236 686 263 675 c 128,-1,7
 290 664 290 664 299 656 c 1,8,9
 335 582 335 582 374.5 498.5 c 128,-1,10
 414 415 414 415 455 337 c 1,11,12
 491 409 491 409 525.5 479 c 128,-1,13
 560 549 560 549 589 612 c 0,14,15
 608 655 608 655 635.5 670.5 c 128,-1,16
 663 686 663 686 698 686 c 0,17,18
 736 686 736 686 764.5 675.5 c 128,-1,19
 793 665 793 665 801 659 c 1,20,-1
 839 0 l 1,21,-1
 671 0 l 1,22,-1
 648 410 l 1,23,24
 630 373 630 373 611 334 c 128,-1,25
 592 295 592 295 574.5 257 c 128,-1,26
 557 219 557 219 541.5 184.5 c 128,-1,27
 526 150 526 150 514 123 c 1,28,-1
 390 123 l 1,29,30
 379 150 379 150 362.5 186 c 128,-1,31
 346 222 346 222 328 261 c 128,-1,32
 310 300 310 300 291 338.5 c 128,-1,33
 272 377 272 377 256 409 c 1,34,-1
 234 0 l 1,35,-1
 65 0 l 1,36,-1
 99 600 l 2,0,1
EndSplineSet
EndChar

StartChar: N
Encoding: 78 78 49
Width: 739
GlyphClass: 2
Flags: W
LayerCount: 2
Fore
SplineSet
70 599 m 2,0,1
 70 625 70 625 78 642 c 128,-1,2
 86 659 86 659 99 668.5 c 128,-1,3
 112 678 112 678 128.5 682 c 128,-1,4
 145 686 145 686 162 686 c 0,5,6
 197 686 197 686 218 676.5 c 128,-1,7
 239 667 239 667 245 662 c 0,8,9
 250 657 250 657 267.5 633 c 128,-1,10
 285 609 285 609 309.5 574 c 128,-1,11
 334 539 334 539 362.5 496.5 c 128,-1,12
 391 454 391 454 418 413.5 c 128,-1,13
 445 373 445 373 468 338.5 c 128,-1,14
 491 304 491 304 504 283 c 1,15,-1
 504 612 l 2,16,17
 504 653 504 653 528 669.5 c 128,-1,18
 552 686 552 686 591 686 c 0,19,20
 620 686 620 686 642 679 c 128,-1,21
 664 672 664 672 669 670 c 1,22,-1
 669 0 l 1,23,-1
 512 0 l 1,24,25
 503 15 503 15 484 45 c 128,-1,26
 465 75 465 75 440 113 c 128,-1,27
 415 151 415 151 386.5 194.5 c 128,-1,28
 358 238 358 238 330.5 280 c 128,-1,29
 303 322 303 322 278 359 c 128,-1,30
 253 396 253 396 235 422 c 1,31,-1
 235 0 l 1,32,-1
 70 0 l 1,33,-1
 70 599 l 2,0,1
EndSplineSet
EndChar

StartChar: O
Encoding: 79 79 50
Width: 822
GlyphClass: 2
Flags: W
LayerCount: 2
Fore
SplineSet
40 343 m 256,0,1
 40 419 40 419 68.5 485 c 128,-1,2
 97 551 97 551 147 599.5 c 128,-1,3
 197 648 197 648 265 676 c 128,-1,4
 333 704 333 704 411 704 c 256,5,6
 489 704 489 704 557 676 c 128,-1,7
 625 648 625 648 675 599.5 c 128,-1,8
 725 551 725 551 753.5 485 c 128,-1,9
 782 419 782 419 782 343 c 256,10,11
 782 267 782 267 753.5 201 c 128,-1,12
 725 135 725 135 675 86.5 c 128,-1,13
 625 38 625 38 557 10 c 128,-1,14
 489 -18 489 -18 411 -18 c 256,15,16
 333 -18 333 -18 265 10 c 128,-1,17
 197 38 197 38 147 86.5 c 128,-1,18
 97 135 97 135 68.5 201 c 128,-1,19
 40 267 40 267 40 343 c 256,0,1
411 138 m 256,20,21
 454 138 454 138 490 153.5 c 128,-1,22
 526 169 526 169 552 197 c 128,-1,23
 578 225 578 225 592.5 262 c 128,-1,24
 607 299 607 299 607 343 c 256,25,26
 607 387 607 387 592.5 424.5 c 128,-1,27
 578 462 578 462 552 489.5 c 128,-1,28
 526 517 526 517 490 532.5 c 128,-1,29
 454 548 454 548 411 548 c 256,30,31
 368 548 368 548 332 532.5 c 128,-1,32
 296 517 296 517 270 489.5 c 128,-1,33
 244 462 244 462 229.5 424.5 c 128,-1,34
 215 387 215 387 215 343 c 256,35,36
 215 299 215 299 229.5 262 c 128,-1,37
 244 225 244 225 270 197 c 128,-1,38
 296 169 296 169 332 153.5 c 128,-1,39
 368 138 368 138 411 138 c 256,20,21
EndSplineSet
EndChar

StartChar: P
Encoding: 80 80 51
Width: 668
GlyphClass: 2
Flags: W
LayerCount: 2
Fore
SplineSet
233 364 m 1,0,1
 240 363 240 363 257.5 360.5 c 128,-1,2
 275 358 275 358 315 358 c 0,3,4
 361 358 361 358 389.5 366.5 c 128,-1,5
 418 375 418 375 434 389 c 128,-1,6
 450 403 450 403 455.5 420.5 c 128,-1,7
 461 438 461 438 461 455 c 0,8,9
 461 471 461 471 456.5 488 c 128,-1,10
 452 505 452 505 437 519.5 c 128,-1,11
 422 534 422 534 393.5 543.5 c 128,-1,12
 365 553 365 553 317 553 c 0,13,14
 282 553 282 553 260 551.5 c 128,-1,15
 238 550 238 550 233 549 c 1,16,-1
 233 364 l 1,0,1
70 597 m 2,17,18
 70 619 70 619 76 635 c 128,-1,19
 82 651 82 651 91.5 661.5 c 128,-1,20
 101 672 101 672 113.5 677.5 c 128,-1,21
 126 683 126 683 139 685 c 0,22,23
 149 687 149 687 162.5 689 c 128,-1,24
 176 691 176 691 196.5 692.5 c 128,-1,25
 217 694 217 694 246.5 695 c 128,-1,26
 276 696 276 696 318 696 c 0,27,28
 408 696 408 696 468 675.5 c 128,-1,29
 528 655 528 655 564.5 621.5 c 128,-1,30
 601 588 601 588 616.5 544.5 c 128,-1,31
 632 501 632 501 632 455 c 0,32,33
 632 402 632 402 615 358 c 128,-1,34
 598 314 598 314 562 282.5 c 128,-1,35
 526 251 526 251 469.5 233.5 c 128,-1,36
 413 216 413 216 335 216 c 0,37,38
 317 216 317 216 300 217 c 128,-1,39
 283 218 283 218 269 219 c 128,-1,40
 255 220 255 220 245.5 221.5 c 128,-1,41
 236 223 236 223 233 223 c 1,42,-1
 233 0 l 1,43,-1
 70 0 l 1,44,-1
 70 597 l 2,17,18
EndSplineSet
EndChar

StartChar: Q
Encoding: 81 81 52
Width: 822
GlyphClass: 2
Flags: W
LayerCount: 2
Fore
SplineSet
549 10 m 1,0,1
 522 -2 522 -2 485 -8.5 c 128,-1,2
 448 -15 448 -15 411 -15 c 0,3,4
 333 -15 333 -15 265 12.5 c 128,-1,5
 197 40 197 40 147 88 c 128,-1,6
 97 136 97 136 68.5 201.5 c 128,-1,7
 40 267 40 267 40 343 c 256,8,9
 40 419 40 419 68.5 485 c 128,-1,10
 97 551 97 551 147 599.5 c 128,-1,11
 197 648 197 648 265 676 c 128,-1,12
 333 704 333 704 411 704 c 256,13,14
 489 704 489 704 557 676 c 128,-1,15
 625 648 625 648 675 599.5 c 128,-1,16
 725 551 725 551 753.5 485 c 128,-1,17
 782 419 782 419 782 343 c 0,18,19
 782 268 782 268 753.5 203 c 128,-1,20
 725 138 725 138 677 93 c 1,21,-1
 764 -14 l 1,22,-1
 640 -109 l 1,23,-1
 549 10 l 1,0,1
426 167 m 2,24,25
 412 185 412 185 399.5 204 c 128,-1,26
 387 223 387 223 387 240 c 0,27,28
 387 264 387 264 399 279.5 c 128,-1,29
 411 295 411 295 428.5 304 c 128,-1,30
 446 313 446 313 466 316.5 c 128,-1,31
 486 320 486 320 501 320 c 1,32,-1
 575 222 l 1,33,34
 588 240 588 240 597.5 272.5 c 128,-1,35
 607 305 607 305 607 343 c 0,36,37
 607 387 607 387 592.5 424.5 c 128,-1,38
 578 462 578 462 552 489.5 c 128,-1,39
 526 517 526 517 490 532.5 c 128,-1,40
 454 548 454 548 411 548 c 256,41,42
 368 548 368 548 332 532.5 c 128,-1,43
 296 517 296 517 270 489.5 c 128,-1,44
 244 462 244 462 229.5 424.5 c 128,-1,45
 215 387 215 387 215 343 c 256,46,47
 215 299 215 299 229.5 261.5 c 128,-1,48
 244 224 244 224 270 196 c 128,-1,49
 296 168 296 168 332 152 c 128,-1,50
 368 136 368 136 411 136 c 0,51,52
 419 136 419 136 430 136 c 128,-1,53
 441 136 441 136 449 138 c 1,54,-1
 426 167 l 2,24,25
EndSplineSet
EndChar

StartChar: R
Encoding: 82 82 53
Width: 690
GlyphClass: 2
Flags: W
LayerCount: 2
Fore
SplineSet
70 597 m 2,0,1
 70 619 70 619 76 635 c 128,-1,2
 82 651 82 651 91.5 661.5 c 128,-1,3
 101 672 101 672 113.5 677.5 c 128,-1,4
 126 683 126 683 139 685 c 0,5,6
 149 687 149 687 162.5 689 c 128,-1,7
 176 691 176 691 196.5 692.5 c 128,-1,8
 217 694 217 694 246.5 695 c 128,-1,9
 276 696 276 696 318 696 c 0,10,11
 408 696 408 696 468 676.5 c 128,-1,12
 528 657 528 657 564.5 624 c 128,-1,13
 601 591 601 591 616.5 548.5 c 128,-1,14
 632 506 632 506 632 460 c 0,15,16
 632 399 632 399 607 350.5 c 128,-1,17
 582 302 582 302 525 271 c 1,18,19
 540 247 540 247 558 215 c 128,-1,20
 576 183 576 183 595.5 147.5 c 128,-1,21
 615 112 615 112 634 74 c 128,-1,22
 653 36 653 36 670 0 c 1,23,-1
 479 0 l 1,24,25
 474 11 474 11 460.5 41.5 c 128,-1,26
 447 72 447 72 429.5 107.5 c 128,-1,27
 412 143 412 143 393.5 177 c 128,-1,28
 375 211 375 211 362 230 c 1,29,30
 348 228 348 228 333.5 228 c 128,-1,31
 319 228 319 228 303 228 c 0,32,33
 297 228 297 228 286.5 228.5 c 128,-1,34
 276 229 276 229 265 229.5 c 128,-1,35
 254 230 254 230 245 230.5 c 128,-1,36
 236 231 236 231 233 232 c 1,37,-1
 233 0 l 1,38,-1
 70 0 l 1,39,-1
 70 597 l 2,0,1
233 374 m 1,40,41
 236 374 236 374 241.5 373 c 128,-1,42
 247 372 247 372 257 371 c 128,-1,43
 267 370 267 370 282.5 369.5 c 128,-1,44
 298 369 298 369 321 369 c 0,45,46
 364 369 364 369 391.5 376.5 c 128,-1,47
 419 384 419 384 434.5 396.5 c 128,-1,48
 450 409 450 409 455.5 425.5 c 128,-1,49
 461 442 461 442 461 459 c 0,50,51
 461 475 461 475 456 491.5 c 128,-1,52
 451 508 451 508 435.5 522 c 128,-1,53
 420 536 420 536 391 545 c 128,-1,54
 362 554 362 554 314 554 c 0,55,56
 279 554 279 554 258.5 552.5 c 128,-1,57
 238 551 238 551 233 550 c 1,58,-1
 233 374 l 1,40,41
EndSplineSet
EndChar

StartChar: S
Encoding: 83 83 54
Width: 682
GlyphClass: 2
Flags: W
LayerCount: 2
Fore
SplineSet
99 196 m 1,0,1
 105 191 105 191 126 180.5 c 128,-1,2
 147 170 147 170 179 159.5 c 128,-1,3
 211 149 211 149 253 140.5 c 128,-1,4
 295 132 295 132 344 132 c 0,5,6
 384 132 384 132 408 137.5 c 128,-1,7
 432 143 432 143 445 152 c 128,-1,8
 458 161 458 161 462 172.5 c 128,-1,9
 466 184 466 184 466 196 c 0,10,11
 466 220 466 220 446.5 235.5 c 128,-1,12
 427 251 427 251 374 260 c 2,13,-1
 272 278 l 2,14,15
 232 285 232 285 192 298 c 128,-1,16
 152 311 152 311 120.5 334 c 128,-1,17
 89 357 89 357 69 393 c 128,-1,18
 49 429 49 429 49 482 c 0,19,20
 49 528 49 528 66 568.5 c 128,-1,21
 83 609 83 609 118 639 c 128,-1,22
 153 669 153 669 206.5 686.5 c 128,-1,23
 260 704 260 704 332 704 c 0,24,25
 384 704 384 704 423 698.5 c 128,-1,26
 462 693 462 693 490 685 c 128,-1,27
 518 677 518 677 535.5 669 c 128,-1,28
 553 661 553 661 561 656 c 0,29,30
 578 646 578 646 593.5 628.5 c 128,-1,31
 609 611 609 611 609 587 c 0,32,33
 609 570 609 570 603 554.5 c 128,-1,34
 597 539 597 539 588.5 526 c 128,-1,35
 580 513 580 513 570 503.5 c 128,-1,36
 560 494 560 494 553 489 c 1,37,38
 543 499 543 499 523 511.5 c 128,-1,39
 503 524 503 524 475 534 c 128,-1,40
 447 544 447 544 411 551 c 128,-1,41
 375 558 375 558 334 558 c 0,42,43
 295 558 295 558 272 551.5 c 128,-1,44
 249 545 249 545 237.5 535.5 c 128,-1,45
 226 526 226 526 222.5 514 c 128,-1,46
 219 502 219 502 219 492 c 0,47,48
 219 483 219 483 221.5 475 c 128,-1,49
 224 467 224 467 233.5 459.5 c 128,-1,50
 243 452 243 452 260.5 445.5 c 128,-1,51
 278 439 278 439 308 433 c 2,52,-1
 414 412 l 2,53,54
 470 401 470 401 512.5 384.5 c 128,-1,55
 555 368 555 368 584 344 c 128,-1,56
 613 320 613 320 627.5 286 c 128,-1,57
 642 252 642 252 642 205 c 0,58,59
 642 100 642 100 563.5 41 c 128,-1,60
 485 -18 485 -18 342 -18 c 0,61,62
 277 -18 277 -18 222.5 -7 c 128,-1,63
 168 4 168 4 127 18.5 c 128,-1,64
 86 33 86 33 60.5 46 c 128,-1,65
 35 59 35 59 30 64 c 1,66,-1
 99 196 l 1,0,1
EndSplineSet
EndChar

StartChar: T
Encoding: 84 84 55
Width: 667
GlyphClass: 2
Flags: W
LayerCount: 2
Fore
SplineSet
250 530 m 1,0,-1
 90 530 l 2,1,2
 44 530 44 530 24.5 549.5 c 128,-1,3
 5 569 5 569 5 606 c 0,4,5
 5 633 5 633 13 655.5 c 128,-1,6
 21 678 21 678 26 686 c 1,7,-1
 577 686 l 2,8,9
 623 686 623 686 642.5 666.5 c 128,-1,10
 662 647 662 647 662 610 c 0,11,12
 662 583 662 583 654 560.5 c 128,-1,13
 646 538 646 538 641 530 c 1,14,-1
 417 530 l 1,15,-1
 417 0 l 1,16,-1
 250 0 l 1,17,-1
 250 530 l 1,0,-1
EndSplineSet
EndChar

StartChar: U
Encoding: 85 85 56
Width: 760
GlyphClass: 2
Flags: W
LayerCount: 2
Fore
SplineSet
63 612 m 2,0,1
 63 653 63 653 87 669.5 c 128,-1,2
 111 686 111 686 150 686 c 0,3,4
 179 686 179 686 201.5 679 c 128,-1,5
 224 672 224 672 230 670 c 1,6,-1
 230 321 l 2,7,8
 230 276 230 276 237.5 241.5 c 128,-1,9
 245 207 245 207 262.5 183.5 c 128,-1,10
 280 160 280 160 308.5 148 c 128,-1,11
 337 136 337 136 380 136 c 256,12,13
 423 136 423 136 451.5 148 c 128,-1,14
 480 160 480 160 497.5 183.5 c 128,-1,15
 515 207 515 207 522.5 241.5 c 128,-1,16
 530 276 530 276 530 321 c 2,17,-1
 530 612 l 2,18,19
 530 653 530 653 554 669.5 c 128,-1,20
 578 686 578 686 617 686 c 0,21,22
 646 686 646 686 668.5 679 c 128,-1,23
 691 672 691 672 697 670 c 1,24,-1
 697 304 l 2,25,26
 697 152 697 152 615 67 c 128,-1,27
 533 -18 533 -18 380 -18 c 256,28,29
 227 -18 227 -18 145 67 c 128,-1,30
 63 152 63 152 63 304 c 2,31,-1
 63 612 l 2,0,1
EndSplineSet
EndChar

StartChar: V
Encoding: 86 86 57
Width: 722
GlyphClass: 2
Flags: W
LayerCount: 2
Fore
SplineSet
265 0 m 1,0,1
 241 47 241 47 216.5 99.5 c 128,-1,2
 192 152 192 152 168.5 204 c 128,-1,3
 145 256 145 256 123.5 304 c 128,-1,4
 102 352 102 352 85 391.5 c 128,-1,5
 68 431 68 431 56.5 459 c 128,-1,6
 45 487 45 487 41 497 c 0,7,8
 30 524 30 524 17.5 555.5 c 128,-1,9
 5 587 5 587 5 617 c 0,10,11
 5 686 5 686 87 686 c 0,12,13
 119 686 119 686 140.5 678.5 c 128,-1,14
 162 671 162 671 167 668 c 0,15,16
 184 619 184 619 208 556 c 128,-1,17
 232 493 232 493 258 427.5 c 128,-1,18
 284 362 284 362 309 300 c 128,-1,19
 334 238 334 238 354 192 c 1,20,21
 388 273 388 273 431 382 c 128,-1,22
 474 491 474 491 519 611 c 0,23,24
 533 649 533 649 554 667.5 c 128,-1,25
 575 686 575 686 620 686 c 0,26,27
 640 686 640 686 657 681 c 128,-1,28
 674 676 674 676 687 670 c 128,-1,29
 700 664 700 664 707.5 658 c 128,-1,30
 715 652 715 652 717 651 c 0,31,32
 711 636 711 636 694.5 594.5 c 128,-1,33
 678 553 678 553 654.5 496.5 c 128,-1,34
 631 440 631 440 602.5 373 c 128,-1,35
 574 306 574 306 545 238.5 c 128,-1,36
 516 171 516 171 488 109 c 128,-1,37
 460 47 460 47 438 0 c 1,38,-1
 265 0 l 1,0,1
EndSplineSet
EndChar

StartChar: W
Encoding: 87 87 58
Width: 1010
GlyphClass: 2
Flags: W
LayerCount: 2
Fore
SplineSet
213 0 m 1,0,1
 199 32 199 32 182.5 75 c 128,-1,2
 166 118 166 118 148.5 165.5 c 128,-1,3
 131 213 131 213 114 261 c 128,-1,4
 97 309 97 309 82 351.5 c 128,-1,5
 67 394 67 394 55.5 427.5 c 128,-1,6
 44 461 44 461 38 480 c 0,7,8
 25 521 25 521 15 552.5 c 128,-1,9
 5 584 5 584 5 614 c 0,10,11
 5 648 5 648 25.5 667 c 128,-1,12
 46 686 46 686 86 686 c 0,13,14
 118 686 118 686 139.5 678.5 c 128,-1,15
 161 671 161 671 166 668 c 1,16,17
 176 627 176 627 193 568 c 128,-1,18
 210 509 210 509 229.5 445.5 c 128,-1,19
 249 382 249 382 268.5 321 c 128,-1,20
 288 260 288 260 303 216 c 1,21,22
 317 264 317 264 331.5 317.5 c 128,-1,23
 346 371 346 371 359.5 424 c 128,-1,24
 373 477 373 477 385.5 526 c 128,-1,25
 398 575 398 575 408 614 c 0,26,27
 416 646 416 646 435 666 c 128,-1,28
 454 686 454 686 499 686 c 0,29,30
 528 686 528 686 552.5 677 c 128,-1,31
 577 668 577 668 582 665 c 1,32,33
 590 629 590 629 603.5 571.5 c 128,-1,34
 617 514 617 514 633 450.5 c 128,-1,35
 649 387 649 387 664.5 325 c 128,-1,36
 680 263 680 263 693 217 c 1,37,38
 709 265 709 265 725.5 318.5 c 128,-1,39
 742 372 742 372 757 424.5 c 128,-1,40
 772 477 772 477 785 524.5 c 128,-1,41
 798 572 798 572 807 607 c 0,42,43
 818 650 818 650 839.5 668 c 128,-1,44
 861 686 861 686 906 686 c 0,45,46
 925 686 925 686 942.5 682 c 128,-1,47
 960 678 960 678 973 672.5 c 128,-1,48
 986 667 986 667 994.5 662 c 128,-1,49
 1003 657 1003 657 1005 656 c 0,50,51
 966 514 966 514 907 346 c 128,-1,52
 848 178 848 178 776 0 c 1,53,-1
 598 0 l 1,54,55
 589 22 589 22 576 64.5 c 128,-1,56
 563 107 563 107 549 158.5 c 128,-1,57
 535 210 535 210 520.5 264 c 128,-1,58
 506 318 506 318 496 363 c 1,59,60
 484 318 484 318 469.5 264 c 128,-1,61
 455 210 455 210 440 158.5 c 128,-1,62
 425 107 425 107 412 64.5 c 128,-1,63
 399 22 399 22 390 0 c 1,64,-1
 213 0 l 1,0,1
EndSplineSet
EndChar

StartChar: X
Encoding: 88 88 59
Width: 751
GlyphClass: 2
Flags: W
LayerCount: 2
Fore
SplineSet
10 0 m 1,0,1
 19 12 19 12 44 44.5 c 128,-1,2
 69 77 69 77 104 122.5 c 128,-1,3
 139 168 139 168 181.5 222.5 c 128,-1,4
 224 277 224 277 266 332 c 1,5,6
 237 367 237 367 209.5 399.5 c 128,-1,7
 182 432 182 432 159 459 c 128,-1,8
 136 486 136 486 119 506 c 128,-1,9
 102 526 102 526 93 536 c 0,10,11
 73 559 73 559 62.5 578.5 c 128,-1,12
 52 598 52 598 52 616 c 0,13,14
 52 649 52 649 74.5 667.5 c 128,-1,15
 97 686 97 686 133 686 c 0,16,17
 159 686 159 686 175.5 680.5 c 128,-1,18
 192 675 192 675 200 670 c 0,19,20
 207 661 207 661 223 641 c 128,-1,21
 239 621 239 621 261 593.5 c 128,-1,22
 283 566 283 566 310 531.5 c 128,-1,23
 337 497 337 497 367 460 c 1,24,25
 390 491 390 491 410.5 518.5 c 128,-1,26
 431 546 431 546 447.5 568 c 128,-1,27
 464 590 464 590 475 605 c 128,-1,28
 486 620 486 620 490 625 c 0,29,30
 504 643 504 643 515 654.5 c 128,-1,31
 526 666 526 666 538 673 c 128,-1,32
 550 680 550 680 563.5 683 c 128,-1,33
 577 686 577 686 595 686 c 0,34,35
 615 686 615 686 632.5 680.5 c 128,-1,36
 650 675 650 675 664 668 c 128,-1,37
 678 661 678 661 687.5 653 c 128,-1,38
 697 645 697 645 701 641 c 1,39,40
 693 631 693 631 670 602.5 c 128,-1,41
 647 574 647 574 615 533.5 c 128,-1,42
 583 493 583 493 544.5 443.5 c 128,-1,43
 506 394 506 394 466 342 c 1,44,45
 512 285 512 285 557 229.5 c 128,-1,46
 602 174 602 174 639.5 127.5 c 128,-1,47
 677 81 677 81 704 47.5 c 128,-1,48
 731 14 731 14 741 0 c 1,49,-1
 538 0 l 1,50,51
 529 10 529 10 512 32 c 128,-1,52
 495 54 495 54 472.5 82.5 c 128,-1,53
 450 111 450 111 423 145 c 128,-1,54
 396 179 396 179 366 215 c 1,55,56
 338 179 338 179 312.5 145.5 c 128,-1,57
 287 112 287 112 265.5 83.5 c 128,-1,58
 244 55 244 55 228 33 c 128,-1,59
 212 11 212 11 203 0 c 1,60,-1
 10 0 l 1,0,1
EndSplineSet
EndChar

StartChar: Y
Encoding: 89 89 60
Width: 691
GlyphClass: 2
Flags: W
LayerCount: 2
Fore
SplineSet
252 253 m 1,0,1
 229 281 229 281 203 314 c 128,-1,2
 177 347 177 347 153 378.5 c 128,-1,3
 129 410 129 410 108.5 437 c 128,-1,4
 88 464 88 464 75 482 c 0,5,6
 65 496 65 496 52.5 513 c 128,-1,7
 40 530 40 530 29.5 548.5 c 128,-1,8
 19 567 19 567 12 585 c 128,-1,9
 5 603 5 603 5 618 c 0,10,11
 5 653 5 653 27.5 669.5 c 128,-1,12
 50 686 50 686 82 686 c 0,13,14
 110 686 110 686 129.5 679.5 c 128,-1,15
 149 673 149 673 154 670 c 0,16,17
 169 647 169 647 193 611 c 128,-1,18
 217 575 217 575 243.5 536.5 c 128,-1,19
 270 498 270 498 295 462 c 128,-1,20
 320 426 320 426 338 402 c 1,21,22
 356 426 356 426 375.5 454 c 128,-1,23
 395 482 395 482 414.5 512 c 128,-1,24
 434 542 434 542 452.5 571 c 128,-1,25
 471 600 471 600 487 625 c 0,26,27
 493 634 493 634 501.5 645 c 128,-1,28
 510 656 510 656 522.5 665 c 128,-1,29
 535 674 535 674 552 680 c 128,-1,30
 569 686 569 686 592 686 c 0,31,32
 610 686 610 686 626 681.5 c 128,-1,33
 642 677 642 677 654.5 671 c 128,-1,34
 667 665 667 665 675 659 c 128,-1,35
 683 653 683 653 686 650 c 0,36,37
 678 633 678 633 661 604.5 c 128,-1,38
 644 576 644 576 620.5 540.5 c 128,-1,39
 597 505 597 505 570 465 c 128,-1,40
 543 425 543 425 516 386.5 c 128,-1,41
 489 348 489 348 463.5 313.5 c 128,-1,42
 438 279 438 279 419 253 c 1,43,-1
 419 0 l 1,44,-1
 252 0 l 1,45,-1
 252 253 l 1,0,1
EndSplineSet
EndChar

StartChar: Z
Encoding: 90 90 61
Width: 644
GlyphClass: 2
Flags: W
LayerCount: 2
Fore
SplineSet
10 143 m 1,0,1
 62 192 62 192 120 248.5 c 128,-1,2
 178 305 178 305 232 358.5 c 128,-1,3
 286 412 286 412 330 457.5 c 128,-1,4
 374 503 374 503 398 530 c 1,5,-1
 113 530 l 2,6,7
 67 530 67 530 47.5 549.5 c 128,-1,8
 28 569 28 569 28 606 c 0,9,10
 28 633 28 633 36 655.5 c 128,-1,11
 44 678 44 678 49 686 c 1,12,-1
 524 686 l 2,13,14
 571 686 571 686 597.5 665 c 128,-1,15
 624 644 624 644 624 602 c 0,16,17
 624 564 624 564 601.5 532 c 128,-1,18
 579 500 579 500 548 465 c 0,19,20
 494 405 494 405 419.5 327 c 128,-1,21
 345 249 345 249 249 156 c 1,22,-1
 620 156 l 1,23,-1
 620 0 l 1,24,-1
 10 0 l 1,25,-1
 10 143 l 1,0,1
EndSplineSet
EndChar

StartChar: bracketleft
Encoding: 91 91 62
Width: 352
GlyphClass: 2
Flags: W
LayerCount: 2
Fore
SplineSet
70 641 m 2,0,1
 70 736 70 736 169 736 c 2,2,-1
 331 736 l 1,3,4
 334 730 334 730 340 707 c 128,-1,5
 346 684 346 684 346 660 c 0,6,7
 346 625 346 625 331 604.5 c 128,-1,8
 316 584 316 584 281 584 c 2,9,-1
 223 584 l 1,10,-1
 223 25 l 1,11,-1
 337 25 l 1,12,-1
 337 -127 l 1,13,-1
 70 -127 l 1,14,-1
 70 641 l 2,0,1
EndSplineSet
EndChar

StartChar: backslash
Encoding: 92 92 63
Width: 368
GlyphClass: 2
Flags: W
LayerCount: 2
Fore
SplineSet
215 0 m 1,0,-1
 0 698 l 1,1,2
 3 702 3 702 10.5 709 c 128,-1,3
 18 716 18 716 29 722 c 128,-1,4
 40 728 40 728 55 732.5 c 128,-1,5
 70 737 70 737 87 737 c 0,6,7
 120 737 120 737 135.5 720.5 c 128,-1,8
 151 704 151 704 160 674 c 2,9,-1
 368 0 l 1,10,-1
 215 0 l 1,0,-1
EndSplineSet
EndChar

StartChar: bracketright
Encoding: 93 93 64
Width: 352
GlyphClass: 2
Flags: W
LayerCount: 2
Fore
SplineSet
15 -127 m 1,0,-1
 15 25 l 1,1,-1
 129 25 l 1,2,-1
 129 584 l 1,3,-1
 71 584 l 2,4,5
 36 584 36 584 21 604.5 c 128,-1,6
 6 625 6 625 6 660 c 0,7,8
 6 684 6 684 12 707 c 128,-1,9
 18 730 18 730 21 736 c 1,10,-1
 183 736 l 2,11,12
 282 736 282 736 282 641 c 2,13,-1
 282 -127 l 1,14,-1
 15 -127 l 1,0,-1
EndSplineSet
EndChar

StartChar: asciicircum
Encoding: 94 94 65
Width: 522
GlyphClass: 2
Flags: W
LayerCount: 2
Fore
SplineSet
168 616 m 2,0,1
 189 657 189 657 209.5 672 c 128,-1,2
 230 687 230 687 260 687 c 256,3,4
 290 687 290 687 307.5 676.5 c 128,-1,5
 325 666 325 666 333 658 c 2,6,-1
 502 331 l 1,7,-1
 346 331 l 1,8,-1
 259 506 l 1,9,-1
 171 331 l 1,10,-1
 20 331 l 1,11,-1
 168 616 l 2,0,1
EndSplineSet
EndChar

StartChar: underscore
Encoding: 95 95 66
Width: 500
GlyphClass: 2
Flags: W
LayerCount: 2
Fore
SplineSet
0 -70 m 1,0,-1
 500 -70 l 1,1,-1
 500 -129 l 1,2,-1
 0 -129 l 1,3,-1
 0 -70 l 1,0,-1
EndSplineSet
EndChar

StartChar: grave
Encoding: 96 96 67
Width: 500
GlyphClass: 2
Flags: W
LayerCount: 2
Fore
SplineSet
122 660 m 2,0,1
 122 663 122 663 125.5 675 c 128,-1,2
 129 687 129 687 137 701 c 128,-1,3
 145 715 145 715 159 726 c 128,-1,4
 173 737 173 737 195 737 c 0,5,6
 212 737 212 737 228.5 728.5 c 128,-1,7
 245 720 245 720 262 709 c 2,8,-1
 377 636 l 1,9,-1
 333 570 l 1,10,-1
 122 660 l 2,0,1
EndSplineSet
EndChar

StartChar: a
Encoding: 97 97 68
Width: 582
GlyphClass: 2
Flags: W
LayerCount: 2
Fore
SplineSet
527 3 m 1,0,1
 521 1 521 1 500 -1.5 c 128,-1,2
 479 -4 479 -4 447.5 -7 c 128,-1,3
 416 -10 416 -10 375.5 -12 c 128,-1,4
 335 -14 335 -14 290 -14 c 0,5,6
 214 -14 214 -14 164 -0.5 c 128,-1,7
 114 13 114 13 84 36 c 128,-1,8
 54 59 54 59 42 89.5 c 128,-1,9
 30 120 30 120 30 154 c 0,10,11
 30 246 30 246 89 285.5 c 128,-1,12
 148 325 148 325 276 325 c 0,13,14
 308 325 308 325 329.5 324 c 128,-1,15
 351 323 351 323 365 321 c 1,16,17
 365 356 365 356 336.5 376 c 128,-1,18
 308 396 308 396 242 396 c 0,19,20
 211 396 211 396 187.5 392.5 c 128,-1,21
 164 389 164 389 147.5 384 c 128,-1,22
 131 379 131 379 121 374 c 128,-1,23
 111 369 111 369 107 366 c 0,24,25
 105 368 105 368 99 374 c 128,-1,26
 93 380 93 380 87 389.5 c 128,-1,27
 81 399 81 399 76 411 c 128,-1,28
 71 423 71 423 71 437 c 0,29,30
 71 524 71 524 249 524 c 0,31,32
 307 524 307 524 358 513.5 c 128,-1,33
 409 503 409 503 446.5 477.5 c 128,-1,34
 484 452 484 452 505.5 410 c 128,-1,35
 527 368 527 368 527 305 c 2,36,-1
 527 3 l 1,0,1
366 212 m 1,37,38
 357 214 357 214 339.5 215.5 c 128,-1,39
 322 217 322 217 287 217 c 0,40,41
 257 217 257 217 238 212 c 128,-1,42
 219 207 219 207 208.5 198.5 c 128,-1,43
 198 190 198 190 194 179 c 128,-1,44
 190 168 190 168 190 156 c 0,45,46
 190 147 190 147 193 137 c 128,-1,47
 196 127 196 127 206 119 c 128,-1,48
 216 111 216 111 236 105.5 c 128,-1,49
 256 100 256 100 289 100 c 0,50,51
 315 100 315 100 337 101.5 c 128,-1,52
 359 103 359 103 366 105 c 1,53,-1
 366 212 l 1,37,38
EndSplineSet
Substitution2: "'ordn' Ordinals lookup 29 subtable" ordfeminine
EndChar

StartChar: b
Encoding: 98 98 69
Width: 632
GlyphClass: 2
Flags: W
LayerCount: 2
Fore
SplineSet
43 666 m 2,0,1
 43 705 43 705 66 721 c 128,-1,2
 89 737 89 737 127 737 c 0,3,4
 154 737 154 737 175.5 730.5 c 128,-1,5
 197 724 197 724 203 722 c 1,6,-1
 203 469 l 1,7,8
 221 487 221 487 257.5 505.5 c 128,-1,9
 294 524 294 524 350 524 c 0,10,11
 401 524 401 524 446 504.5 c 128,-1,12
 491 485 491 485 524.5 450 c 128,-1,13
 558 415 558 415 577.5 365.5 c 128,-1,14
 597 316 597 316 597 255 c 0,15,16
 597 195 597 195 576 145 c 128,-1,17
 555 95 555 95 518 60 c 128,-1,18
 481 25 481 25 430.5 5.5 c 128,-1,19
 380 -14 380 -14 321 -14 c 0,20,21
 249 -14 249 -14 190 12 c 128,-1,22
 131 38 131 38 93 88 c 0,23,24
 69 120 69 120 56 167 c 128,-1,25
 43 214 43 214 43 278 c 2,26,-1
 43 666 l 2,0,1
317 134 m 256,27,28
 367 134 367 134 399.5 167 c 128,-1,29
 432 200 432 200 432 254 c 256,30,31
 432 308 432 308 399.5 342.5 c 128,-1,32
 367 377 367 377 317 377 c 0,33,34
 292 377 292 377 271 367.5 c 128,-1,35
 250 358 250 358 234.5 341.5 c 128,-1,36
 219 325 219 325 210.5 302.5 c 128,-1,37
 202 280 202 280 202 254 c 0,38,39
 202 198 202 198 234.5 166 c 128,-1,40
 267 134 267 134 317 134 c 256,27,28
EndSplineSet
EndChar

StartChar: c
Encoding: 99 99 70
Width: 518
GlyphClass: 2
Flags: W
LayerCount: 2
Fore
SplineSet
516 44 m 1,0,1
 505 37 505 37 487 27 c 128,-1,2
 469 17 469 17 443.5 8 c 128,-1,3
 418 -1 418 -1 385 -7.5 c 128,-1,4
 352 -14 352 -14 312 -14 c 0,5,6
 258 -14 258 -14 207.5 3 c 128,-1,7
 157 20 157 20 119 53.5 c 128,-1,8
 81 87 81 87 58 137.5 c 128,-1,9
 35 188 35 188 35 255 c 0,10,11
 35 319 35 319 57.5 369.5 c 128,-1,12
 80 420 80 420 118.5 454 c 128,-1,13
 157 488 157 488 208.5 506 c 128,-1,14
 260 524 260 524 318 524 c 0,15,16
 371 524 371 524 417.5 510.5 c 128,-1,17
 464 497 464 497 487 474 c 0,18,19
 498 463 498 463 504.5 450.5 c 128,-1,20
 511 438 511 438 511 421 c 256,21,22
 511 404 511 404 505 390 c 128,-1,23
 499 376 499 376 490 365 c 128,-1,24
 481 354 481 354 471.5 345.5 c 128,-1,25
 462 337 462 337 455 333 c 1,26,27
 437 351 437 351 405 366.5 c 128,-1,28
 373 382 373 382 329 382 c 0,29,30
 303 382 303 382 279.5 374 c 128,-1,31
 256 366 256 366 238.5 350 c 128,-1,32
 221 334 221 334 210.5 310 c 128,-1,33
 200 286 200 286 200 255 c 0,34,35
 200 222 200 222 210.5 198.5 c 128,-1,36
 221 175 221 175 238.5 160 c 128,-1,37
 256 145 256 145 280 138 c 128,-1,38
 304 131 304 131 331 131 c 0,39,40
 354 131 354 131 373.5 135.5 c 128,-1,41
 393 140 393 140 408 146 c 128,-1,42
 423 152 423 152 433 157.5 c 128,-1,43
 443 163 443 163 446 166 c 1,44,-1
 516 44 l 1,0,1
EndSplineSet
EndChar

StartChar: d
Encoding: 100 100 71
Width: 632
GlyphClass: 2
Flags: W
LayerCount: 2
Fore
SplineSet
589 278 m 2,0,1
 589 214 589 214 576 167 c 128,-1,2
 563 120 563 120 539 88 c 0,3,4
 501 38 501 38 442 12 c 128,-1,5
 383 -14 383 -14 311 -14 c 0,6,7
 252 -14 252 -14 201.5 5.5 c 128,-1,8
 151 25 151 25 114 60 c 128,-1,9
 77 95 77 95 56 145 c 128,-1,10
 35 195 35 195 35 255 c 0,11,12
 35 316 35 316 54.5 365.5 c 128,-1,13
 74 415 74 415 107.5 450 c 128,-1,14
 141 485 141 485 186 504.5 c 128,-1,15
 231 524 231 524 282 524 c 0,16,17
 338 524 338 524 374.5 505.5 c 128,-1,18
 411 487 411 487 429 469 c 1,19,-1
 429 666 l 2,20,21
 429 705 429 705 452 721 c 128,-1,22
 475 737 475 737 513 737 c 0,23,24
 540 737 540 737 561.5 730.5 c 128,-1,25
 583 724 583 724 589 722 c 1,26,-1
 589 278 l 2,0,1
315 134 m 256,27,28
 365 134 365 134 397.5 166 c 128,-1,29
 430 198 430 198 430 254 c 0,30,31
 430 280 430 280 421.5 302.5 c 128,-1,32
 413 325 413 325 397.5 341.5 c 128,-1,33
 382 358 382 358 361 367.5 c 128,-1,34
 340 377 340 377 315 377 c 0,35,36
 265 377 265 377 232.5 342.5 c 128,-1,37
 200 308 200 308 200 254 c 256,38,39
 200 200 200 200 232.5 167 c 128,-1,40
 265 134 265 134 315 134 c 256,27,28
EndSplineSet
EndChar

StartChar: e
Encoding: 101 101 72
Width: 561
GlyphClass: 2
Flags: W
LayerCount: 2
Fore
SplineSet
206 188 m 1,0,1
 208 176 208 176 216.5 164.5 c 128,-1,2
 225 153 225 153 240.5 143 c 128,-1,3
 256 133 256 133 280 127 c 128,-1,4
 304 121 304 121 338 121 c 0,5,6
 364 121 364 121 387 125.5 c 128,-1,7
 410 130 410 130 427 135 c 128,-1,8
 444 140 444 140 455 145 c 128,-1,9
 466 150 466 150 468 152 c 1,10,-1
 524 40 l 1,11,12
 516 35 516 35 497.5 26 c 128,-1,13
 479 17 479 17 451 8 c 128,-1,14
 423 -1 423 -1 385.5 -7.5 c 128,-1,15
 348 -14 348 -14 303 -14 c 0,16,17
 247 -14 247 -14 198 4 c 128,-1,18
 149 22 149 22 112.5 56.5 c 128,-1,19
 76 91 76 91 55 141 c 128,-1,20
 34 191 34 191 34 255 c 0,21,22
 34 315 34 315 55 365 c 128,-1,23
 76 415 76 415 113 450 c 128,-1,24
 150 485 150 485 200 504.5 c 128,-1,25
 250 524 250 524 308 524 c 0,26,27
 362 524 362 524 405 509.5 c 128,-1,28
 448 495 448 495 477.5 470 c 128,-1,29
 507 445 507 445 522.5 413 c 128,-1,30
 538 381 538 381 538 347 c 0,31,32
 538 310 538 310 525 280.5 c 128,-1,33
 512 251 512 251 478.5 230.5 c 128,-1,34
 445 210 445 210 387.5 199 c 128,-1,35
 330 188 330 188 241 188 c 2,36,-1
 206 188 l 1,0,1
198 292 m 1,37,38
 265 292 265 292 302 297 c 128,-1,39
 339 302 339 302 357 310 c 128,-1,40
 375 318 375 318 379 328 c 128,-1,41
 383 338 383 338 383 348 c 0,42,43
 383 369 383 369 364 384.5 c 128,-1,44
 345 400 345 400 307 400 c 0,45,46
 280 400 280 400 260 390.5 c 128,-1,47
 240 381 240 381 226.5 366 c 128,-1,48
 213 351 213 351 206 331.5 c 128,-1,49
 199 312 199 312 198 292 c 1,37,38
EndSplineSet
EndChar

StartChar: f
Encoding: 102 102 73
Width: 425
GlyphClass: 2
Flags: W
LayerCount: 2
Fore
SplineSet
60 526 m 2,0,1
 60 581 60 581 75.5 621 c 128,-1,2
 91 661 91 661 119 686.5 c 128,-1,3
 147 712 147 712 186.5 724.5 c 128,-1,4
 226 737 226 737 274 737 c 0,5,6
 316 737 316 737 347.5 730.5 c 128,-1,7
 379 724 379 724 402 710 c 0,8,9
 414 703 414 703 425 689.5 c 128,-1,10
 436 676 436 676 436 654 c 0,11,12
 436 631 436 631 422.5 611.5 c 128,-1,13
 409 592 409 592 393 584 c 1,14,15
 381 595 381 595 355.5 603.5 c 128,-1,16
 330 612 330 612 303 612 c 0,17,18
 265 612 265 612 243 592 c 128,-1,19
 221 572 221 572 221 532 c 2,20,-1
 221 510 l 1,21,-1
 332 510 l 2,22,23
 377 510 377 510 396 492 c 128,-1,24
 415 474 415 474 415 438 c 0,25,26
 415 412 415 412 407 389.5 c 128,-1,27
 399 367 399 367 395 360 c 1,28,-1
 221 360 l 1,29,-1
 221 0 l 1,30,-1
 60 0 l 1,31,-1
 60 526 l 2,0,1
EndSplineSet
EndChar

StartChar: g
Encoding: 103 103 74
Width: 632
GlyphClass: 2
Flags: W
LayerCount: 2
Fore
SplineSet
123 -50 m 1,0,1
 126 -52 126 -52 139 -57 c 128,-1,2
 152 -62 152 -62 172.5 -67.5 c 128,-1,3
 193 -73 193 -73 220.5 -77.5 c 128,-1,4
 248 -82 248 -82 280 -82 c 256,5,6
 312 -82 312 -82 339.5 -75 c 128,-1,7
 367 -68 367 -68 386.5 -51.5 c 128,-1,8
 406 -35 406 -35 417 -9.5 c 128,-1,9
 428 16 428 16 428 54 c 2,10,-1
 428 65 l 1,11,12
 423 60 423 60 411.5 51 c 128,-1,13
 400 42 400 42 381.5 33 c 128,-1,14
 363 24 363 24 338 17 c 128,-1,15
 313 10 313 10 282 10 c 0,16,17
 228 10 228 10 182.5 26.5 c 128,-1,18
 137 43 137 43 104 75 c 128,-1,19
 71 107 71 107 53 153.5 c 128,-1,20
 35 200 35 200 35 259 c 256,21,22
 35 318 35 318 56 366.5 c 128,-1,23
 77 415 77 415 114 450 c 128,-1,24
 151 485 151 485 202.5 504.5 c 128,-1,25
 254 524 254 524 316 524 c 0,26,27
 385 524 385 524 443.5 498 c 128,-1,28
 502 472 502 472 540 422 c 0,29,30
 564 390 564 390 576.5 347 c 128,-1,31
 589 304 589 304 589 238 c 2,32,-1
 589 89 l 2,33,34
 589 11 589 11 567 -45.5 c 128,-1,35
 545 -102 545 -102 506 -138.5 c 128,-1,36
 467 -175 467 -175 413.5 -192.5 c 128,-1,37
 360 -210 360 -210 297 -210 c 0,38,39
 253 -210 253 -210 216 -204.5 c 128,-1,40
 179 -199 179 -199 150.5 -191.5 c 128,-1,41
 122 -184 122 -184 103.5 -176.5 c 128,-1,42
 85 -169 85 -169 79 -165 c 1,43,-1
 123 -50 l 1,0,1
200 259 m 0,44,45
 200 202 200 202 232 174 c 128,-1,46
 264 146 264 146 314 146 c 0,47,48
 363 146 363 146 395.5 177 c 128,-1,49
 428 208 428 208 428 259 c 256,50,51
 428 310 428 310 395.5 342.5 c 128,-1,52
 363 375 363 375 314 375 c 0,53,54
 289 375 289 375 268 366 c 128,-1,55
 247 357 247 357 232 341 c 128,-1,56
 217 325 217 325 208.5 304 c 128,-1,57
 200 283 200 283 200 259 c 0,44,45
EndSplineSet
EndChar

StartChar: h
Encoding: 104 104 75
Width: 617
GlyphClass: 2
Flags: W
LayerCount: 2
Fore
SplineSet
55 666 m 2,0,1
 55 705 55 705 78 721 c 128,-1,2
 101 737 101 737 139 737 c 0,3,4
 166 737 166 737 187.5 730.5 c 128,-1,5
 209 724 209 724 215 722 c 1,6,-1
 215 480 l 1,7,8
 234 497 234 497 267 511 c 128,-1,9
 300 525 300 525 352 525 c 0,10,11
 397 525 397 525 435 512.5 c 128,-1,12
 473 500 473 500 501.5 473.5 c 128,-1,13
 530 447 530 447 546 406.5 c 128,-1,14
 562 366 562 366 562 311 c 2,15,-1
 562 0 l 1,16,-1
 401 0 l 1,17,-1
 401 278 l 2,18,19
 401 329 401 329 378.5 352 c 128,-1,20
 356 375 356 375 311 375 c 256,21,22
 266 375 266 375 241 348 c 128,-1,23
 216 321 216 321 216 264 c 2,24,-1
 216 0 l 1,25,-1
 55 0 l 1,26,-1
 55 666 l 2,0,1
EndSplineSet
EndChar

StartChar: k
Encoding: 107 107 78
Width: 601
GlyphClass: 2
Flags: W
LayerCount: 2
Fore
SplineSet
55 666 m 2,0,1
 55 705 55 705 78 721 c 128,-1,2
 101 737 101 737 139 737 c 0,3,4
 166 737 166 737 188 730.5 c 128,-1,5
 210 724 210 724 216 722 c 1,6,-1
 216 340 l 1,7,8
 234 355 234 355 254.5 371.5 c 128,-1,9
 275 388 275 388 294.5 404.5 c 128,-1,10
 314 421 314 421 331.5 435.5 c 128,-1,11
 349 450 349 450 360 460 c 0,12,13
 375 473 375 473 386.5 482.5 c 128,-1,14
 398 492 398 492 410.5 498 c 128,-1,15
 423 504 423 504 437 507 c 128,-1,16
 451 510 451 510 471 510 c 256,17,18
 491 510 491 510 508 504 c 128,-1,19
 525 498 525 498 538 489.5 c 128,-1,20
 551 481 551 481 560 471.5 c 128,-1,21
 569 462 569 462 573 455 c 1,22,23
 554 435 554 435 525.5 410 c 128,-1,24
 497 385 497 385 466.5 360.5 c 128,-1,25
 436 336 436 336 407.5 313.5 c 128,-1,26
 379 291 379 291 361 276 c 1,27,28
 423 220 423 220 486.5 147.5 c 128,-1,29
 550 75 550 75 601 0 c 1,30,-1
 402 0 l 1,31,32
 382 27 382 27 358 55 c 128,-1,33
 334 83 334 83 309 109 c 128,-1,34
 284 135 284 135 260 158.5 c 128,-1,35
 236 182 236 182 216 202 c 1,36,-1
 216 0 l 1,37,-1
 55 0 l 1,38,-1
 55 666 l 2,0,1
EndSplineSet
EndChar

StartChar: l
Encoding: 108 108 79
Width: 281
GlyphClass: 2
Flags: W
LayerCount: 2
Fore
SplineSet
60 666 m 2,0,1
 60 705 60 705 83 721 c 128,-1,2
 106 737 106 737 144 737 c 0,3,4
 171 737 171 737 193 730.5 c 128,-1,5
 215 724 215 724 221 722 c 1,6,-1
 221 0 l 1,7,-1
 60 0 l 1,8,-1
 60 666 l 2,0,1
EndSplineSet
EndChar

StartChar: m
Encoding: 109 109 80
Width: 929
GlyphClass: 2
Flags: W
LayerCount: 2
Fore
SplineSet
55 327 m 2,0,1
 55 376 55 376 72.5 412.5 c 128,-1,2
 90 449 90 449 120.5 474 c 128,-1,3
 151 499 151 499 192.5 511.5 c 128,-1,4
 234 524 234 524 283 524 c 0,5,6
 343 524 343 524 390 504 c 128,-1,7
 437 484 437 484 466 448 c 1,8,9
 495 484 495 484 541 504 c 128,-1,10
 587 524 587 524 647 524 c 0,11,12
 695 524 695 524 736.5 511.5 c 128,-1,13
 778 499 778 499 808.5 474 c 128,-1,14
 839 449 839 449 856.5 412.5 c 128,-1,15
 874 376 874 376 874 327 c 2,16,-1
 874 0 l 1,17,-1
 713 0 l 1,18,-1
 713 281 l 2,19,20
 713 332 713 332 692 354 c 128,-1,21
 671 376 671 376 633 376 c 0,22,23
 594 376 594 376 569.5 350 c 128,-1,24
 545 324 545 324 545 267 c 2,25,-1
 545 0 l 1,26,-1
 384 0 l 1,27,-1
 384 267 l 2,28,29
 384 324 384 324 360 350 c 128,-1,30
 336 376 336 376 297 376 c 0,31,32
 259 376 259 376 237.5 354 c 128,-1,33
 216 332 216 332 216 281 c 2,34,-1
 216 0 l 1,35,-1
 55 0 l 1,36,-1
 55 327 l 2,0,1
EndSplineSet
EndChar

StartChar: n
Encoding: 110 110 81
Width: 604
GlyphClass: 2
Flags: W
LayerCount: 2
Fore
SplineSet
40 309 m 2,0,1
 40 361 40 361 60 401.5 c 128,-1,2
 80 442 80 442 115 469 c 128,-1,3
 150 496 150 496 196 510 c 128,-1,4
 242 524 242 524 295 524 c 0,5,6
 347 524 347 524 393.5 510 c 128,-1,7
 440 496 440 496 474.5 469 c 128,-1,8
 509 442 509 442 529 401.5 c 128,-1,9
 549 361 549 361 549 309 c 2,10,-1
 549 0 l 1,11,-1
 388 0 l 1,12,-1
 388 272 l 2,13,14
 388 325 388 325 364 350.5 c 128,-1,15
 340 376 340 376 295 376 c 0,16,17
 201 376 201 376 201 272 c 2,18,-1
 201 0 l 1,19,-1
 40 0 l 1,20,-1
 40 309 l 2,0,1
EndSplineSet
EndChar

StartChar: o
Encoding: 111 111 82
Width: 634
GlyphClass: 2
Flags: W
LayerCount: 2
Fore
SplineSet
35 255 m 256,0,1
 35 313 35 313 57 362 c 128,-1,2
 79 411 79 411 117.5 447 c 128,-1,3
 156 483 156 483 207 503.5 c 128,-1,4
 258 524 258 524 317 524 c 0,5,6
 375 524 375 524 426.5 503.5 c 128,-1,7
 478 483 478 483 516.5 447 c 128,-1,8
 555 411 555 411 577 362 c 128,-1,9
 599 313 599 313 599 255 c 256,10,11
 599 197 599 197 577 148 c 128,-1,12
 555 99 555 99 516.5 63 c 128,-1,13
 478 27 478 27 426.5 6.5 c 128,-1,14
 375 -14 375 -14 317 -14 c 0,15,16
 258 -14 258 -14 207 6.5 c 128,-1,17
 156 27 156 27 117.5 63 c 128,-1,18
 79 99 79 99 57 148 c 128,-1,19
 35 197 35 197 35 255 c 256,0,1
317 130 m 0,20,21
 342 130 342 130 363.5 139.5 c 128,-1,22
 385 149 385 149 401 165.5 c 128,-1,23
 417 182 417 182 425.5 205 c 128,-1,24
 434 228 434 228 434 255 c 256,25,26
 434 282 434 282 425.5 305 c 128,-1,27
 417 328 417 328 401 344.5 c 128,-1,28
 385 361 385 361 363.5 370.5 c 128,-1,29
 342 380 342 380 317 380 c 0,30,31
 291 380 291 380 270 370.5 c 128,-1,32
 249 361 249 361 233 344.5 c 128,-1,33
 217 328 217 328 208.5 305 c 128,-1,34
 200 282 200 282 200 255 c 256,35,36
 200 228 200 228 208.5 205 c 128,-1,37
 217 182 217 182 233 165.5 c 128,-1,38
 249 149 249 149 270 139.5 c 128,-1,39
 291 130 291 130 317 130 c 0,20,21
EndSplineSet
Substitution2: "'ordn' Ordinals lookup 29 subtable" ordmasculine
EndChar

StartChar: p
Encoding: 112 112 83
Width: 632
GlyphClass: 2
Flags: W
LayerCount: 2
Fore
SplineSet
43 -200 m 1,0,-1
 43 232 l 2,1,2
 43 296 43 296 56 343 c 128,-1,3
 69 390 69 390 93 422 c 0,4,5
 131 472 131 472 190 498 c 128,-1,6
 249 524 249 524 321 524 c 0,7,8
 380 524 380 524 430.5 504.5 c 128,-1,9
 481 485 481 485 518 450 c 128,-1,10
 555 415 555 415 576 365 c 128,-1,11
 597 315 597 315 597 255 c 0,12,13
 597 194 597 194 577.5 145 c 128,-1,14
 558 96 558 96 524.5 61 c 128,-1,15
 491 26 491 26 446 7 c 128,-1,16
 401 -12 401 -12 350 -12 c 0,17,18
 294 -12 294 -12 257.5 5.5 c 128,-1,19
 221 23 221 23 203 41 c 1,20,-1
 203 -200 l 1,21,-1
 43 -200 l 1,0,-1
317 133 m 0,22,23
 367 133 367 133 399.5 167.5 c 128,-1,24
 432 202 432 202 432 256 c 256,25,26
 432 310 432 310 399.5 343 c 128,-1,27
 367 376 367 376 317 376 c 256,28,29
 267 376 267 376 234.5 344 c 128,-1,30
 202 312 202 312 202 256 c 0,31,32
 202 230 202 230 210.5 207.5 c 128,-1,33
 219 185 219 185 234.5 168.5 c 128,-1,34
 250 152 250 152 271 142.5 c 128,-1,35
 292 133 292 133 317 133 c 0,22,23
EndSplineSet
EndChar

StartChar: q
Encoding: 113 113 84
Width: 632
GlyphClass: 2
Flags: W
LayerCount: 2
Fore
SplineSet
429 41 m 1,0,1
 411 23 411 23 374.5 5.5 c 128,-1,2
 338 -12 338 -12 282 -12 c 0,3,4
 231 -12 231 -12 186 7 c 128,-1,5
 141 26 141 26 107.5 61 c 128,-1,6
 74 96 74 96 54.5 145 c 128,-1,7
 35 194 35 194 35 255 c 0,8,9
 35 315 35 315 56 365 c 128,-1,10
 77 415 77 415 114 450 c 128,-1,11
 151 485 151 485 201.5 504.5 c 128,-1,12
 252 524 252 524 311 524 c 0,13,14
 383 524 383 524 442 498 c 128,-1,15
 501 472 501 472 539 422 c 0,16,17
 563 390 563 390 576 343 c 128,-1,18
 589 296 589 296 589 232 c 2,19,-1
 589 -200 l 1,20,-1
 429 -200 l 1,21,-1
 429 41 l 1,0,1
315 133 m 0,22,23
 340 133 340 133 361 142.5 c 128,-1,24
 382 152 382 152 397.5 168.5 c 128,-1,25
 413 185 413 185 421.5 207.5 c 128,-1,26
 430 230 430 230 430 256 c 0,27,28
 430 312 430 312 397.5 344 c 128,-1,29
 365 376 365 376 315 376 c 256,30,31
 265 376 265 376 232.5 343 c 128,-1,32
 200 310 200 310 200 256 c 256,33,34
 200 202 200 202 232.5 167.5 c 128,-1,35
 265 133 265 133 315 133 c 0,22,23
EndSplineSet
EndChar

StartChar: r
Encoding: 114 114 85
Width: 438
GlyphClass: 2
Flags: W
LayerCount: 2
Fore
SplineSet
55 320 m 2,0,1
 55 369 55 369 71.5 407 c 128,-1,2
 88 445 88 445 117 471 c 128,-1,3
 146 497 146 497 187 510.5 c 128,-1,4
 228 524 228 524 277 524 c 0,5,6
 337 524 337 524 370.5 511 c 128,-1,7
 404 498 404 498 419 483 c 0,8,9
 428 473 428 473 433 462 c 128,-1,10
 438 451 438 451 438 436 c 256,11,12
 438 421 438 421 433.5 408 c 128,-1,13
 429 395 429 395 422.5 385 c 128,-1,14
 416 375 416 375 410 368 c 128,-1,15
 404 361 404 361 401 358 c 0,16,17
 384 366 384 366 360 373 c 128,-1,18
 336 380 336 380 307 380 c 0,19,20
 269 380 269 380 242.5 358 c 128,-1,21
 216 336 216 336 216 285 c 2,22,-1
 216 0 l 1,23,-1
 55 0 l 1,24,-1
 55 320 l 2,0,1
EndSplineSet
EndChar

StartChar: s
Encoding: 115 115 86
Width: 564
GlyphClass: 2
Flags: W
LayerCount: 2
Fore
SplineSet
82 156 m 1,0,1
 90 150 90 150 108.5 141.5 c 128,-1,2
 127 133 127 133 152.5 125.5 c 128,-1,3
 178 118 178 118 210.5 112.5 c 128,-1,4
 243 107 243 107 279 107 c 0,5,6
 320 107 320 107 341 114.5 c 128,-1,7
 362 122 362 122 362 141 c 0,8,9
 362 161 362 161 344.5 168.5 c 128,-1,10
 327 176 327 176 290 181 c 2,11,-1
 238 187 l 2,12,13
 199 192 199 192 163 201.5 c 128,-1,14
 127 211 127 211 99.5 229.5 c 128,-1,15
 72 248 72 248 56 277 c 128,-1,16
 40 306 40 306 40 350 c 0,17,18
 40 387 40 387 53.5 418.5 c 128,-1,19
 67 450 67 450 96 473.5 c 128,-1,20
 125 497 125 497 170 510.5 c 128,-1,21
 215 524 215 524 277 524 c 0,22,23
 340 524 340 524 385.5 516 c 128,-1,24
 431 508 431 508 464 491 c 0,25,26
 483 481 483 481 494.5 466.5 c 128,-1,27
 506 452 506 452 506 431 c 0,28,29
 506 415 506 415 499.5 402.5 c 128,-1,30
 493 390 493 390 484.5 381 c 128,-1,31
 476 372 476 372 468.5 367 c 128,-1,32
 461 362 461 362 459 361 c 0,33,34
 456 364 456 364 442.5 372 c 128,-1,35
 429 380 429 380 406.5 387.5 c 128,-1,36
 384 395 384 395 352.5 401 c 128,-1,37
 321 407 321 407 281 407 c 0,38,39
 236 407 236 407 218.5 396.5 c 128,-1,40
 201 386 201 386 201 369 c 256,41,42
 201 352 201 352 217 345 c 128,-1,43
 233 338 233 338 265 333 c 2,44,-1
 356 320 l 2,45,46
 390 315 390 315 421.5 305.5 c 128,-1,47
 453 296 453 296 477.5 278 c 128,-1,48
 502 260 502 260 516.5 232 c 128,-1,49
 531 204 531 204 531 164 c 0,50,51
 531 80 531 80 467 33 c 128,-1,52
 403 -14 403 -14 290 -14 c 0,53,54
 231 -14 231 -14 185.5 -6 c 128,-1,55
 140 2 140 2 107 12.5 c 128,-1,56
 74 23 74 23 53.5 34.5 c 128,-1,57
 33 46 33 46 25 52 c 1,58,-1
 82 156 l 1,0,1
EndSplineSet
EndChar

StartChar: t
Encoding: 116 116 87
Width: 444
GlyphClass: 2
Flags: W
LayerCount: 2
Fore
SplineSet
55 589 m 2,0,1
 55 628 55 628 78 644 c 128,-1,2
 101 660 101 660 139 660 c 0,3,4
 166 660 166 660 188 653.5 c 128,-1,5
 210 647 210 647 216 645 c 1,6,-1
 216 510 l 1,7,-1
 331 510 l 2,8,9
 376 510 376 510 395 492 c 128,-1,10
 414 474 414 474 414 438 c 0,11,12
 414 412 414 412 406 389.5 c 128,-1,13
 398 367 398 367 394 360 c 1,14,-1
 216 360 l 1,15,-1
 216 203 l 2,16,17
 216 180 216 180 223 166.5 c 128,-1,18
 230 153 230 153 240.5 145 c 128,-1,19
 251 137 251 137 264.5 134.5 c 128,-1,20
 278 132 278 132 292 132 c 0,21,22
 320 132 320 132 343 140.5 c 128,-1,23
 366 149 366 149 376 155 c 1,24,-1
 439 45 l 1,25,26
 430 37 430 37 413 27 c 128,-1,27
 396 17 396 17 372 8 c 128,-1,28
 348 -1 348 -1 318 -7.5 c 128,-1,29
 288 -14 288 -14 255 -14 c 0,30,31
 161 -14 161 -14 108 35.5 c 128,-1,32
 55 85 55 85 55 168 c 2,33,-1
 55 589 l 2,0,1
EndSplineSet
EndChar

StartChar: u
Encoding: 117 117 88
Width: 620
GlyphClass: 2
Flags: W
LayerCount: 2
Fore
SplineSet
216 238 m 2,0,1
 216 134 216 134 310 134 c 256,2,3
 404 134 404 134 404 238 c 2,4,-1
 404 439 l 2,5,6
 404 478 404 478 427 494 c 128,-1,7
 450 510 450 510 488 510 c 0,8,9
 515 510 515 510 537 503.5 c 128,-1,10
 559 497 559 497 565 495 c 1,11,-1
 565 208 l 2,12,13
 565 152 565 152 545.5 110.5 c 128,-1,14
 526 69 526 69 492 41.5 c 128,-1,15
 458 14 458 14 411 0 c 128,-1,16
 364 -14 364 -14 310 -14 c 256,17,18
 256 -14 256 -14 209 0 c 128,-1,19
 162 14 162 14 128 41.5 c 128,-1,20
 94 69 94 69 74.5 110.5 c 128,-1,21
 55 152 55 152 55 208 c 2,22,-1
 55 439 l 2,23,24
 55 478 55 478 78 494 c 128,-1,25
 101 510 101 510 139 510 c 0,26,27
 166 510 166 510 188 503.5 c 128,-1,28
 210 497 210 497 216 495 c 1,29,-1
 216 238 l 2,0,1
EndSplineSet
EndChar

StartChar: v
Encoding: 118 118 89
Width: 590
GlyphClass: 2
Flags: W
LayerCount: 2
Fore
SplineSet
211 0 m 1,0,1
 180 55 180 55 150.5 113 c 128,-1,2
 121 171 121 171 97 221.5 c 128,-1,3
 73 272 73 272 57 307.5 c 128,-1,4
 41 343 41 343 37 353 c 0,5,6
 29 373 29 373 19.5 398 c 128,-1,7
 10 423 10 423 10 443 c 0,8,9
 10 471 10 471 30 490.5 c 128,-1,10
 50 510 50 510 90 510 c 0,11,12
 122 510 122 510 142 503.5 c 128,-1,13
 162 497 162 497 165 495 c 0,14,15
 182 446 182 446 201 396 c 128,-1,16
 220 346 220 346 237.5 303.5 c 128,-1,17
 255 261 255 261 269 228.5 c 128,-1,18
 283 196 283 196 289 183 c 1,19,20
 295 196 295 196 308 227.5 c 128,-1,21
 321 259 321 259 336.5 297.5 c 128,-1,22
 352 336 352 336 367.5 374.5 c 128,-1,23
 383 413 383 413 394 440 c 0,24,25
 400 455 400 455 407.5 468 c 128,-1,26
 415 481 415 481 425.5 490.5 c 128,-1,27
 436 500 436 500 451 505 c 128,-1,28
 466 510 466 510 488 510 c 0,29,30
 508 510 508 510 524 506 c 128,-1,31
 540 502 540 502 552 497 c 128,-1,32
 564 492 564 492 571 487.5 c 128,-1,33
 578 483 578 483 580 482 c 0,34,35
 576 464 576 464 561 427.5 c 128,-1,36
 546 391 546 391 525.5 344 c 128,-1,37
 505 297 505 297 481 245.5 c 128,-1,38
 457 194 457 194 434 146 c 128,-1,39
 411 98 411 98 391 59.5 c 128,-1,40
 371 21 371 21 360 0 c 1,41,-1
 211 0 l 1,0,1
EndSplineSet
EndChar

StartChar: w
Encoding: 119 119 90
Width: 837
GlyphClass: 2
Flags: W
LayerCount: 2
Fore
SplineSet
173 0 m 1,0,1
 148 55 148 55 124.5 112 c 128,-1,2
 101 169 101 169 82 217.5 c 128,-1,3
 63 266 63 266 49.5 302 c 128,-1,4
 36 338 36 338 32 350 c 0,5,6
 27 364 27 364 18.5 388 c 128,-1,7
 10 412 10 412 10 440 c 256,8,9
 10 468 10 468 29.5 489 c 128,-1,10
 49 510 49 510 89 510 c 0,11,12
 121 510 121 510 139 504 c 128,-1,13
 157 498 157 498 163 495 c 1,14,15
 176 450 176 450 188.5 405.5 c 128,-1,16
 201 361 201 361 213 321 c 128,-1,17
 225 281 225 281 235 248 c 128,-1,18
 245 215 245 215 252 194 c 1,19,20
 258 212 258 212 268 246.5 c 128,-1,21
 278 281 278 281 288.5 319 c 128,-1,22
 299 357 299 357 309 391.5 c 128,-1,23
 319 426 319 426 324 444 c 0,24,25
 333 474 333 474 349.5 492 c 128,-1,26
 366 510 366 510 409 510 c 0,27,28
 435 510 435 510 457 502.5 c 128,-1,29
 479 495 479 495 484 492 c 0,30,31
 497 447 497 447 509.5 402.5 c 128,-1,32
 522 358 522 358 533 319 c 128,-1,33
 544 280 544 280 553.5 247.5 c 128,-1,34
 563 215 563 215 569 194 c 1,35,36
 575 212 575 212 583 237 c 128,-1,37
 591 262 591 262 600 292 c 128,-1,38
 609 322 609 322 618.5 355 c 128,-1,39
 628 388 628 388 637 421 c 0,40,41
 650 467 650 467 671 488.5 c 128,-1,42
 692 510 692 510 736 510 c 0,43,44
 756 510 756 510 772 506 c 128,-1,45
 788 502 788 502 800 497 c 128,-1,46
 812 492 812 492 818.5 487.5 c 128,-1,47
 825 483 825 483 827 482 c 0,48,49
 820 453 820 453 800 395 c 128,-1,50
 780 337 780 337 753.5 267.5 c 128,-1,51
 727 198 727 198 698 126.5 c 128,-1,52
 669 55 669 55 643 0 c 1,53,-1
 489 0 l 1,54,55
 483 16 483 16 473 50 c 128,-1,56
 463 84 463 84 451.5 123.5 c 128,-1,57
 440 163 440 163 428.5 202 c 128,-1,58
 417 241 417 241 408 269 c 1,59,60
 399 241 399 241 387.5 201 c 128,-1,61
 376 161 376 161 364.5 121.5 c 128,-1,62
 353 82 353 82 343 48.5 c 128,-1,63
 333 15 333 15 328 0 c 1,64,-1
 173 0 l 1,0,1
EndSplineSet
EndChar

StartChar: x
Encoding: 120 120 91
Width: 638
GlyphClass: 2
Flags: W
LayerCount: 2
Fore
SplineSet
10 0 m 1,0,1
 16 7 16 7 34.5 29.5 c 128,-1,2
 53 52 53 52 80 84.5 c 128,-1,3
 107 117 107 117 139.5 156.5 c 128,-1,4
 172 196 172 196 206 237 c 1,5,6
 156 291 156 291 125 324 c 128,-1,7
 94 357 94 357 80 374 c 256,8,9
 66 391 66 391 55.5 408.5 c 128,-1,10
 45 426 45 426 45 449 c 0,11,12
 45 473 45 473 64.5 491.5 c 128,-1,13
 84 510 84 510 127 510 c 0,14,15
 153 510 153 510 175 503 c 128,-1,16
 197 496 197 496 202 494 c 0,17,18
 204 491 204 491 216.5 476 c 128,-1,19
 229 461 229 461 246 440 c 128,-1,20
 263 419 263 419 281.5 396.5 c 128,-1,21
 300 374 300 374 314 358 c 1,22,23
 326 374 326 374 340.5 392.5 c 128,-1,24
 355 411 355 411 368.5 427.5 c 128,-1,25
 382 444 382 444 392 456 c 128,-1,26
 402 468 402 468 406 472 c 0,27,28
 423 492 423 492 443 501 c 128,-1,29
 463 510 463 510 490 510 c 0,30,31
 511 510 511 510 529 505 c 128,-1,32
 547 500 547 500 561 492.5 c 128,-1,33
 575 485 575 485 585 477.5 c 128,-1,34
 595 470 595 470 598 465 c 1,35,36
 588 453 588 453 569 431 c 128,-1,37
 550 409 550 409 526 380 c 128,-1,38
 502 351 502 351 473.5 317 c 128,-1,39
 445 283 445 283 416 248 c 1,40,-1
 628 0 l 1,41,-1
 425 0 l 1,42,43
 420 6 420 6 409 18.5 c 128,-1,44
 398 31 398 31 383 48.5 c 128,-1,45
 368 66 368 66 349.5 87.5 c 128,-1,46
 331 109 331 109 311 132 c 1,47,48
 274 87 274 87 246 52 c 128,-1,49
 218 17 218 17 204 0 c 1,50,-1
 10 0 l 1,0,1
EndSplineSet
EndChar

StartChar: y
Encoding: 121 121 92
Width: 620
GlyphClass: 2
Flags: W
LayerCount: 2
Fore
SplineSet
114 -55 m 1,0,1
 118 -57 118 -57 131.5 -61.5 c 128,-1,2
 145 -66 145 -66 165 -70.5 c 128,-1,3
 185 -75 185 -75 210.5 -78.5 c 128,-1,4
 236 -82 236 -82 263 -82 c 0,5,6
 340 -82 340 -82 374 -49 c 128,-1,7
 408 -16 408 -16 408 60 c 1,8,9
 389 37 389 37 350 23.5 c 128,-1,10
 311 10 311 10 272 10 c 0,11,12
 226 10 226 10 186.5 21.5 c 128,-1,13
 147 33 147 33 117.5 57 c 128,-1,14
 88 81 88 81 71.5 117.5 c 128,-1,15
 55 154 55 154 55 204 c 2,16,-1
 55 439 l 2,17,18
 55 478 55 478 78 494 c 128,-1,19
 101 510 101 510 139 510 c 0,20,21
 166 510 166 510 188 503.5 c 128,-1,22
 210 497 210 497 216 495 c 1,23,-1
 216 237 l 2,24,25
 216 189 216 189 238.5 168 c 128,-1,26
 261 147 261 147 309 147 c 0,27,28
 354 147 354 147 379 173 c 128,-1,29
 404 199 404 199 404 253 c 2,30,-1
 404 439 l 2,31,32
 404 478 404 478 427 494 c 128,-1,33
 450 510 450 510 488 510 c 0,34,35
 515 510 515 510 537 503.5 c 128,-1,36
 559 497 559 497 565 495 c 1,37,-1
 565 71 l 2,38,39
 565 -5 565 -5 545 -58.5 c 128,-1,40
 525 -112 525 -112 488 -145.5 c 128,-1,41
 451 -179 451 -179 400 -194.5 c 128,-1,42
 349 -210 349 -210 286 -210 c 0,43,44
 242 -210 242 -210 205 -205 c 128,-1,45
 168 -200 168 -200 140 -193.5 c 128,-1,46
 112 -187 112 -187 95 -181 c 128,-1,47
 78 -175 78 -175 75 -173 c 2,48,-1
 114 -55 l 1,0,1
EndSplineSet
EndChar

StartChar: z
Encoding: 122 122 93
Width: 549
GlyphClass: 2
Flags: W
LayerCount: 2
Fore
SplineSet
19 125 m 1,0,1
 49 151 49 151 90.5 187.5 c 128,-1,2
 132 224 132 224 172 259 c 128,-1,3
 212 294 212 294 244.5 323 c 128,-1,4
 277 352 277 352 289 363 c 1,5,-1
 102 363 l 2,6,7
 57 363 57 363 38 379.5 c 128,-1,8
 19 396 19 396 19 432 c 0,9,10
 19 458 19 458 27 480.5 c 128,-1,11
 35 503 35 503 39 510 c 1,12,-1
 435 510 l 2,13,14
 470 510 470 510 492.5 490.5 c 128,-1,15
 515 471 515 471 515 433 c 0,16,17
 515 408 515 408 504.5 388 c 128,-1,18
 494 368 494 368 469 345 c 0,19,20
 463 339 463 339 446 323.5 c 128,-1,21
 429 308 429 308 406.5 287.5 c 128,-1,22
 384 267 384 267 358 243.5 c 128,-1,23
 332 220 332 220 308 199 c 128,-1,24
 284 178 284 178 264 161 c 128,-1,25
 244 144 244 144 234 136 c 1,26,-1
 517 136 l 1,27,-1
 517 0 l 1,28,-1
 19 0 l 1,29,-1
 19 125 l 1,0,1
EndSplineSet
EndChar

StartChar: braceleft
Encoding: 123 123 94
Width: 383
GlyphClass: 2
Flags: W
LayerCount: 2
Fore
SplineSet
273 -127 m 2,0,1
 197 -127 197 -127 153.5 -84.5 c 128,-1,2
 110 -42 110 -42 110 37 c 2,3,-1
 110 146 l 2,4,5
 110 189 110 189 91.5 207.5 c 128,-1,6
 73 226 73 226 41 226 c 2,7,-1
 15 226 l 1,8,-1
 15 383 l 1,9,-1
 41 383 l 2,10,11
 73 383 73 383 91.5 401.5 c 128,-1,12
 110 420 110 420 110 463 c 2,13,-1
 110 572 l 2,14,15
 110 651 110 651 153.5 693.5 c 128,-1,16
 197 736 197 736 273 736 c 2,17,-1
 358 736 l 1,18,19
 361 730 361 730 367 707 c 128,-1,20
 373 684 373 684 373 660 c 0,21,22
 373 625 373 625 358.5 604.5 c 128,-1,23
 344 584 344 584 311 584 c 0,24,25
 282 584 282 584 275 570.5 c 128,-1,26
 268 557 268 557 268 540 c 2,27,-1
 268 437 l 2,28,29
 268 378 268 378 249.5 347.5 c 128,-1,30
 231 317 231 317 208 304 c 1,31,32
 220 298 220 298 230.5 287.5 c 128,-1,33
 241 277 241 277 249.5 261 c 128,-1,34
 258 245 258 245 263 223.5 c 128,-1,35
 268 202 268 202 268 172 c 2,36,-1
 268 69 l 2,37,38
 268 60 268 60 269 52 c 128,-1,39
 270 44 270 44 274.5 38 c 128,-1,40
 279 32 279 32 288 28.5 c 128,-1,41
 297 25 297 25 313 25 c 2,42,-1
 362 25 l 1,43,-1
 362 -127 l 1,44,-1
 273 -127 l 2,0,1
EndSplineSet
EndChar

StartChar: bar
Encoding: 124 124 95
Width: 284
GlyphClass: 2
Flags: W
LayerCount: 2
Fore
SplineSet
70 674 m 2,0,1
 70 709 70 709 90.5 723 c 128,-1,2
 111 737 111 737 146 737 c 0,3,4
 171 737 171 737 190 731.5 c 128,-1,5
 209 726 209 726 214 724 c 1,6,-1
 214 -132 l 1,7,-1
 70 -132 l 1,8,-1
 70 674 l 2,0,1
EndSplineSet
EndChar

StartChar: braceright
Encoding: 125 125 96
Width: 383
GlyphClass: 2
Flags: W
LayerCount: 2
Fore
SplineSet
21 25 m 1,0,-1
 70 25 l 2,1,2
 86 25 86 25 95 28.5 c 128,-1,3
 104 32 104 32 108.5 38 c 128,-1,4
 113 44 113 44 114 52 c 128,-1,5
 115 60 115 60 115 69 c 2,6,-1
 115 172 l 2,7,8
 115 202 115 202 120 223.5 c 128,-1,9
 125 245 125 245 133.5 261 c 128,-1,10
 142 277 142 277 152.5 287.5 c 128,-1,11
 163 298 163 298 175 304 c 1,12,13
 152 317 152 317 133.5 347.5 c 128,-1,14
 115 378 115 378 115 437 c 2,15,-1
 115 540 l 2,16,17
 115 557 115 557 108 570.5 c 128,-1,18
 101 584 101 584 72 584 c 0,19,20
 39 584 39 584 24.5 604.5 c 128,-1,21
 10 625 10 625 10 660 c 0,22,23
 10 684 10 684 16 707 c 128,-1,24
 22 730 22 730 25 736 c 1,25,-1
 110 736 l 2,26,27
 186 736 186 736 229.5 693.5 c 128,-1,28
 273 651 273 651 273 572 c 2,29,-1
 273 463 l 2,30,31
 273 420 273 420 291.5 401.5 c 128,-1,32
 310 383 310 383 342 383 c 2,33,-1
 368 383 l 1,34,-1
 368 226 l 1,35,-1
 342 226 l 2,36,37
 310 226 310 226 291.5 207.5 c 128,-1,38
 273 189 273 189 273 146 c 2,39,-1
 273 37 l 2,40,41
 273 -42 273 -42 229.5 -84.5 c 128,-1,42
 186 -127 186 -127 110 -127 c 2,43,-1
 21 -127 l 1,44,-1
 21 25 l 1,0,-1
EndSplineSet
EndChar

StartChar: asciitilde
Encoding: 126 126 97
Width: 630
GlyphClass: 2
Flags: W
LayerCount: 2
Fore
SplineSet
41 245 m 1,0,1
 41 288 41 288 49.5 323.5 c 128,-1,2
 58 359 58 359 77 384.5 c 128,-1,3
 96 410 96 410 127 424 c 128,-1,4
 158 438 158 438 202 438 c 0,5,6
 240 438 240 438 278 426.5 c 128,-1,7
 316 415 316 415 351 405 c 0,8,9
 381 396 381 396 395.5 392.5 c 128,-1,10
 410 389 410 389 424 389 c 0,11,12
 441 389 441 389 451 399 c 128,-1,13
 461 409 461 409 463 440 c 1,14,-1
 588 440 l 1,15,16
 588 397 588 397 579.5 361.5 c 128,-1,17
 571 326 571 326 552 300.5 c 128,-1,18
 533 275 533 275 502 261 c 128,-1,19
 471 247 471 247 427 247 c 0,20,21
 389 247 389 247 351 258.5 c 128,-1,22
 313 270 313 270 278 280 c 0,23,24
 248 289 248 289 233.5 292.5 c 128,-1,25
 219 296 219 296 205 296 c 0,26,27
 188 296 188 296 178 286 c 128,-1,28
 168 276 168 276 166 245 c 1,29,-1
 41 245 l 1,0,1
EndSplineSet
EndChar

StartChar: Euro
Encoding: 8364 8364 98
Width: 641
GlyphClass: 2
Flags: W
LayerCount: 2
Fore
SplineSet
31 298 m 1,0,-1
 96 298 l 1,1,2
 95 306 95 306 95 315 c 128,-1,3
 95 324 95 324 95 334 c 0,4,5
 95 342 95 342 95 350 c 128,-1,6
 95 358 95 358 96 366 c 1,7,-1
 31 366 l 1,8,-1
 31 455 l 1,9,-1
 107 455 l 1,10,11
 134 576 134 576 213.5 640 c 128,-1,12
 293 704 293 704 418 704 c 0,13,14
 481 704 481 704 516.5 693.5 c 128,-1,15
 552 683 552 683 573 671 c 0,16,17
 596 657 596 657 607.5 639.5 c 128,-1,18
 619 622 619 622 619 602 c 0,19,20
 619 584 619 584 611.5 567.5 c 128,-1,21
 604 551 604 551 594 538.5 c 128,-1,22
 584 526 584 526 573.5 516.5 c 128,-1,23
 563 507 563 507 557 503 c 1,24,25
 552 508 552 508 541.5 516.5 c 128,-1,26
 531 525 531 525 514.5 533 c 128,-1,27
 498 541 498 541 475.5 546.5 c 128,-1,28
 453 552 453 552 424 552 c 0,29,30
 371 552 371 552 334.5 529.5 c 128,-1,31
 298 507 298 507 280 455 c 1,32,-1
 465 455 l 2,33,34
 492 455 492 455 502.5 442.5 c 128,-1,35
 513 430 513 430 513 412 c 0,36,37
 513 396 513 396 509 383 c 128,-1,38
 505 370 505 370 503 366 c 1,39,-1
 265 366 l 1,40,41
 264 358 264 358 264 350 c 128,-1,42
 264 342 264 342 264 334 c 0,43,44
 264 324 264 324 264 315 c 128,-1,45
 264 306 264 306 265 298 c 1,46,-1
 440 298 l 2,47,48
 467 298 467 298 477.5 285.5 c 128,-1,49
 488 273 488 273 488 255 c 0,50,51
 488 239 488 239 484 226 c 128,-1,52
 480 213 480 213 478 209 c 1,53,-1
 288 209 l 1,54,55
 308 171 308 171 343.5 153 c 128,-1,56
 379 135 379 135 430 135 c 0,57,58
 459 135 459 135 483.5 140 c 128,-1,59
 508 145 508 145 526.5 152 c 128,-1,60
 545 159 545 159 556.5 165.5 c 128,-1,61
 568 172 568 172 572 175 c 1,62,-1
 636 51 l 1,63,64
 631 48 631 48 614.5 36.5 c 128,-1,65
 598 25 598 25 570 13 c 128,-1,66
 542 1 542 1 502 -8.5 c 128,-1,67
 462 -18 462 -18 411 -18 c 0,68,69
 363 -18 363 -18 316 -6 c 128,-1,70
 269 6 269 6 228.5 33 c 128,-1,71
 188 60 188 60 157 103.5 c 128,-1,72
 126 147 126 147 110 209 c 1,73,-1
 31 209 l 1,74,-1
 31 298 l 1,0,-1
EndSplineSet
EndChar

StartChar: quotesinglbase
Encoding: 8218 8218 99
Width: 351
GlyphClass: 2
Flags: W
LayerCount: 2
Fore
SplineSet
100 107 m 2,0,1
 110 140 110 140 127 158 c 128,-1,2
 144 176 144 176 180 176 c 0,3,4
 198 176 198 176 214 171 c 128,-1,5
 230 166 230 166 242 159.5 c 128,-1,6
 254 153 254 153 262 145.5 c 128,-1,7
 270 138 270 138 274 134 c 1,8,-1
 143 -168 l 1,9,-1
 32 -126 l 1,10,-1
 100 107 l 2,0,1
EndSplineSet
EndChar

StartChar: florin
Encoding: 402 402 100
Width: 538
GlyphClass: 2
Flags: W
LayerCount: 2
Fore
SplineSet
-98 -62 m 1,0,1
 -88 -67 -88 -67 -69 -72 c 128,-1,2
 -50 -77 -50 -77 -29 -77 c 0,3,4
 0 -77 0 -77 24 -62.5 c 128,-1,5
 48 -48 48 -48 54 -6 c 2,6,-1
 126 512 l 2,7,8
 135 574 135 574 156 617 c 128,-1,9
 177 660 177 660 209 686.5 c 128,-1,10
 241 713 241 713 282 725 c 128,-1,11
 323 737 323 737 371 737 c 0,12,13
 413 737 413 737 443 730 c 128,-1,14
 473 723 473 723 494 709 c 0,15,16
 508 700 508 700 514.5 689 c 128,-1,17
 521 678 521 678 521 659 c 0,18,19
 521 632 521 632 503.5 612 c 128,-1,20
 486 592 486 592 469 584 c 1,21,22
 458 595 458 595 434 603.5 c 128,-1,23
 410 612 410 612 383 612 c 0,24,25
 345 612 345 612 320 592 c 128,-1,26
 295 572 295 572 289 532 c 2,27,-1
 286 510 l 1,28,-1
 387 510 l 2,29,30
 432 510 432 510 451 492 c 128,-1,31
 470 474 470 474 470 438 c 0,32,33
 470 412 470 412 462 389.5 c 128,-1,34
 454 367 454 367 450 360 c 1,35,-1
 265 360 l 1,36,-1
 216 8 l 2,37,38
 207 -55 207 -55 184.5 -97 c 128,-1,39
 162 -139 162 -139 131 -164 c 128,-1,40
 100 -189 100 -189 63 -199.5 c 128,-1,41
 26 -210 26 -210 -12 -210 c 0,42,43
 -66 -210 -66 -210 -103 -197.5 c 128,-1,44
 -140 -185 -140 -185 -150 -179 c 1,45,-1
 -98 -62 l 1,0,1
EndSplineSet
EndChar

StartChar: ellipsis
Encoding: 8230 8230 102
Width: 1012
GlyphClass: 2
Flags: W
LayerCount: 2
Fore
SplineSet
169 -17 m 0,0,1
 149 -17 149 -17 132 -9.5 c 128,-1,2
 115 -2 115 -2 101.5 11.5 c 128,-1,3
 88 25 88 25 80.5 42.5 c 128,-1,4
 73 60 73 60 73 80 c 0,5,6
 73 99 73 99 80.5 116.5 c 128,-1,7
 88 134 88 134 101.5 147.5 c 128,-1,8
 115 161 115 161 132 168.5 c 128,-1,9
 149 176 149 176 169 176 c 0,10,11
 188 176 188 176 205.5 168.5 c 128,-1,12
 223 161 223 161 236.5 147.5 c 128,-1,13
 250 134 250 134 257.5 116.5 c 128,-1,14
 265 99 265 99 265 80 c 0,15,16
 265 60 265 60 257.5 42.5 c 128,-1,17
 250 25 250 25 236.5 11.5 c 128,-1,18
 223 -2 223 -2 205.5 -9.5 c 128,-1,19
 188 -17 188 -17 169 -17 c 0,0,1
506 -17 m 0,20,21
 486 -17 486 -17 469 -9.5 c 128,-1,22
 452 -2 452 -2 438.5 11.5 c 128,-1,23
 425 25 425 25 417.5 42.5 c 128,-1,24
 410 60 410 60 410 80 c 0,25,26
 410 99 410 99 417.5 116.5 c 128,-1,27
 425 134 425 134 438.5 147.5 c 128,-1,28
 452 161 452 161 469 168.5 c 128,-1,29
 486 176 486 176 506 176 c 0,30,31
 525 176 525 176 542.5 168.5 c 128,-1,32
 560 161 560 161 573.5 147.5 c 128,-1,33
 587 134 587 134 594.5 116.5 c 128,-1,34
 602 99 602 99 602 80 c 0,35,36
 602 60 602 60 594.5 42.5 c 128,-1,37
 587 25 587 25 573.5 11.5 c 128,-1,38
 560 -2 560 -2 542.5 -9.5 c 128,-1,39
 525 -17 525 -17 506 -17 c 0,20,21
843 -17 m 0,40,41
 823 -17 823 -17 806 -9.5 c 128,-1,42
 789 -2 789 -2 775.5 11.5 c 128,-1,43
 762 25 762 25 754.5 42.5 c 128,-1,44
 747 60 747 60 747 80 c 0,45,46
 747 99 747 99 754.5 116.5 c 128,-1,47
 762 134 762 134 775.5 147.5 c 128,-1,48
 789 161 789 161 806 168.5 c 128,-1,49
 823 176 823 176 843 176 c 0,50,51
 862 176 862 176 879.5 168.5 c 128,-1,52
 897 161 897 161 910.5 147.5 c 128,-1,53
 924 134 924 134 931.5 116.5 c 128,-1,54
 939 99 939 99 939 80 c 0,55,56
 939 60 939 60 931.5 42.5 c 128,-1,57
 924 25 924 25 910.5 11.5 c 128,-1,58
 897 -2 897 -2 879.5 -9.5 c 128,-1,59
 862 -17 862 -17 843 -17 c 0,40,41
EndSplineSet
EndChar

StartChar: dagger
Encoding: 8224 8224 103
Width: 539
GlyphClass: 2
Flags: W
LayerCount: 2
Fore
SplineSet
189 360 m 1,0,-1
 88 360 l 2,1,2
 43 360 43 360 24 378 c 128,-1,3
 5 396 5 396 5 432 c 0,4,5
 5 458 5 458 13 480.5 c 128,-1,6
 21 503 21 503 25 510 c 1,7,-1
 189 510 l 1,8,-1
 189 666 l 2,9,10
 189 705 189 705 212 721 c 128,-1,11
 235 737 235 737 273 737 c 0,12,13
 300 737 300 737 322 730.5 c 128,-1,14
 344 724 344 724 350 722 c 1,15,-1
 350 510 l 1,16,-1
 451 510 l 2,17,18
 496 510 496 510 515 492 c 128,-1,19
 534 474 534 474 534 438 c 0,20,21
 534 412 534 412 526 389.5 c 128,-1,22
 518 367 518 367 514 360 c 1,23,-1
 350 360 l 1,24,-1
 350 -200 l 1,25,-1
 189 -200 l 1,26,-1
 189 360 l 1,0,-1
EndSplineSet
EndChar

StartChar: daggerdbl
Encoding: 8225 8225 104
Width: 585
GlyphClass: 2
Flags: W
LayerCount: 2
Fore
SplineSet
212 -21 m 1,0,-1
 111 -21 l 2,1,2
 66 -21 66 -21 47 -3 c 128,-1,3
 28 15 28 15 28 51 c 0,4,5
 28 77 28 77 36 99.5 c 128,-1,6
 44 122 44 122 48 129 c 1,7,-1
 212 129 l 1,8,-1
 212 360 l 1,9,-1
 111 360 l 2,10,11
 66 360 66 360 47 378 c 128,-1,12
 28 396 28 396 28 432 c 0,13,14
 28 458 28 458 36 480.5 c 128,-1,15
 44 503 44 503 48 510 c 1,16,-1
 212 510 l 1,17,-1
 212 666 l 2,18,19
 212 705 212 705 235 721 c 128,-1,20
 258 737 258 737 296 737 c 0,21,22
 323 737 323 737 345 730.5 c 128,-1,23
 367 724 367 724 373 722 c 1,24,-1
 373 510 l 1,25,-1
 474 510 l 2,26,27
 519 510 519 510 538 492 c 128,-1,28
 557 474 557 474 557 438 c 0,29,30
 557 412 557 412 549 389.5 c 128,-1,31
 541 367 541 367 537 360 c 1,32,-1
 373 360 l 1,33,-1
 373 129 l 1,34,-1
 474 129 l 2,35,36
 519 129 519 129 538 111 c 128,-1,37
 557 93 557 93 557 57 c 0,38,39
 557 31 557 31 549 8.5 c 128,-1,40
 541 -14 541 -14 537 -21 c 1,41,-1
 373 -21 l 1,42,-1
 373 -200 l 1,43,-1
 212 -200 l 1,44,-1
 212 -21 l 1,0,-1
EndSplineSet
EndChar

StartChar: circumflex
Encoding: 710 710 105
Width: 500
GlyphClass: 2
Flags: W
LayerCount: 2
Fore
SplineSet
122 570 m 1,0,-1
 72 633 l 1,1,-1
 171 701 l 2,2,3
 186 712 186 712 207 724.5 c 128,-1,4
 228 737 228 737 250 737 c 256,5,6
 272 737 272 737 293 724.5 c 128,-1,7
 314 712 314 712 329 701 c 2,8,-1
 428 633 l 1,9,-1
 378 570 l 1,10,-1
 250 640 l 1,11,-1
 122 570 l 1,0,-1
EndSplineSet
EndChar

StartChar: perthousand
Encoding: 8240 8240 106
Width: 1470
GlyphClass: 2
Flags: W
LayerCount: 2
Fore
SplineSet
614 686 m 2,0,1
 626 707 626 707 642 722 c 128,-1,2
 658 737 658 737 693 737 c 0,3,4
 710 737 710 737 724.5 733 c 128,-1,5
 739 729 739 729 750 724 c 128,-1,6
 761 719 761 719 768 714 c 128,-1,7
 775 709 775 709 777 708 c 1,8,-1
 366 0 l 1,9,-1
 216 0 l 1,10,-1
 614 686 l 2,0,1
222 338 m 256,11,12
 178 338 178 338 142 353.5 c 128,-1,13
 106 369 106 369 80 396 c 128,-1,14
 54 423 54 423 39.5 459 c 128,-1,15
 25 495 25 495 25 537 c 256,16,17
 25 579 25 579 39.5 615.5 c 128,-1,18
 54 652 54 652 80 679 c 128,-1,19
 106 706 106 706 142 721.5 c 128,-1,20
 178 737 178 737 222 737 c 256,21,22
 266 737 266 737 302.5 721.5 c 128,-1,23
 339 706 339 706 365 679 c 128,-1,24
 391 652 391 652 405.5 615.5 c 128,-1,25
 420 579 420 579 420 537 c 256,26,27
 420 495 420 495 405.5 459 c 128,-1,28
 391 423 391 423 365 396 c 128,-1,29
 339 369 339 369 302.5 353.5 c 128,-1,30
 266 338 266 338 222 338 c 256,11,12
222 456 m 256,31,32
 253 456 253 456 270 480 c 128,-1,33
 287 504 287 504 287 537 c 0,34,35
 287 571 287 571 270 595 c 128,-1,36
 253 619 253 619 222 619 c 256,37,38
 191 619 191 619 174 595 c 128,-1,39
 157 571 157 571 157 537 c 0,40,41
 157 504 157 504 174 480 c 128,-1,42
 191 456 191 456 222 456 c 256,31,32
778 -17 m 256,43,44
 734 -17 734 -17 698 -1.5 c 128,-1,45
 662 14 662 14 636 41 c 128,-1,46
 610 68 610 68 595.5 104 c 128,-1,47
 581 140 581 140 581 182 c 256,48,49
 581 224 581 224 595.5 260.5 c 128,-1,50
 610 297 610 297 636 324 c 128,-1,51
 662 351 662 351 698 366.5 c 128,-1,52
 734 382 734 382 778 382 c 256,53,54
 822 382 822 382 858.5 366.5 c 128,-1,55
 895 351 895 351 921 324 c 128,-1,56
 947 297 947 297 961.5 260.5 c 128,-1,57
 976 224 976 224 976 182 c 256,58,59
 976 140 976 140 961.5 104 c 128,-1,60
 947 68 947 68 921 41 c 128,-1,61
 895 14 895 14 858.5 -1.5 c 128,-1,62
 822 -17 822 -17 778 -17 c 256,43,44
778 101 m 256,63,64
 809 101 809 101 826 125 c 128,-1,65
 843 149 843 149 843 182 c 0,66,67
 843 216 843 216 826 240 c 128,-1,68
 809 264 809 264 778 264 c 256,69,70
 747 264 747 264 730 240 c 128,-1,71
 713 216 713 216 713 182 c 0,72,73
 713 149 713 149 730 125 c 128,-1,74
 747 101 747 101 778 101 c 256,63,64
1247 -17 m 256,75,76
 1203 -17 1203 -17 1167 -1.5 c 128,-1,77
 1131 14 1131 14 1105 41 c 128,-1,78
 1079 68 1079 68 1064.5 104 c 128,-1,79
 1050 140 1050 140 1050 182 c 256,80,81
 1050 224 1050 224 1064.5 260.5 c 128,-1,82
 1079 297 1079 297 1105 324 c 128,-1,83
 1131 351 1131 351 1167 366.5 c 128,-1,84
 1203 382 1203 382 1247 382 c 256,85,86
 1291 382 1291 382 1327.5 366.5 c 128,-1,87
 1364 351 1364 351 1390 324 c 128,-1,88
 1416 297 1416 297 1430.5 260.5 c 128,-1,89
 1445 224 1445 224 1445 182 c 256,90,91
 1445 140 1445 140 1430.5 104 c 128,-1,92
 1416 68 1416 68 1390 41 c 128,-1,93
 1364 14 1364 14 1327.5 -1.5 c 128,-1,94
 1291 -17 1291 -17 1247 -17 c 256,75,76
1247 101 m 256,95,96
 1278 101 1278 101 1295 125 c 128,-1,97
 1312 149 1312 149 1312 182 c 0,98,99
 1312 216 1312 216 1295 240 c 128,-1,100
 1278 264 1278 264 1247 264 c 256,101,102
 1216 264 1216 264 1199 240 c 128,-1,103
 1182 216 1182 216 1182 182 c 0,104,105
 1182 149 1182 149 1199 125 c 128,-1,106
 1216 101 1216 101 1247 101 c 256,95,96
EndSplineSet
EndChar

StartChar: guilsinglleft
Encoding: 8249 8249 108
Width: 351
GlyphClass: 2
Flags: W
LayerCount: 2
Fore
SplineSet
230 19 m 1,0,-1
 58 194 l 2,1,2
 47 206 47 206 38.5 222.5 c 128,-1,3
 30 239 30 239 30 257 c 256,4,5
 30 275 30 275 38.5 291 c 128,-1,6
 47 307 47 307 58 319 c 2,7,-1
 230 495 l 1,8,-1
 321 411 l 1,9,-1
 191 257 l 1,10,-1
 321 103 l 1,11,-1
 230 19 l 1,0,-1
EndSplineSet
EndChar

StartChar: OE
Encoding: 338 338 109
Width: 1168
GlyphClass: 2
Flags: W
LayerCount: 2
Fore
SplineSet
607 69 m 1,0,1
 594 52 594 52 572.5 37 c 128,-1,2
 551 22 551 22 523.5 10.5 c 128,-1,3
 496 -1 496 -1 463.5 -7.5 c 128,-1,4
 431 -14 431 -14 396 -14 c 0,5,6
 323 -14 323 -14 258.5 12 c 128,-1,7
 194 38 194 38 145.5 85 c 128,-1,8
 97 132 97 132 68.5 197.5 c 128,-1,9
 40 263 40 263 40 343 c 256,10,11
 40 423 40 423 68.5 488.5 c 128,-1,12
 97 554 97 554 145.5 601 c 128,-1,13
 194 648 194 648 258.5 674 c 128,-1,14
 323 700 323 700 396 700 c 0,15,16
 445 700 445 700 483.5 689 c 128,-1,17
 522 678 522 678 549.5 663.5 c 128,-1,18
 577 649 577 649 592 634.5 c 128,-1,19
 607 620 607 620 609 613 c 1,20,21
 609 624 609 624 614.5 637 c 128,-1,22
 620 650 620 650 630.5 661 c 128,-1,23
 641 672 641 672 657.5 679 c 128,-1,24
 674 686 674 686 697 686 c 2,25,-1
 1038 686 l 2,26,27
 1084 686 1084 686 1103.5 666.5 c 128,-1,28
 1123 647 1123 647 1123 610 c 0,29,30
 1123 583 1123 583 1115 560.5 c 128,-1,31
 1107 538 1107 538 1102 530 c 1,32,-1
 771 530 l 1,33,-1
 771 423 l 1,34,-1
 1025 423 l 2,35,36
 1071 423 1071 423 1090.5 403.5 c 128,-1,37
 1110 384 1110 384 1110 347 c 0,38,39
 1110 320 1110 320 1102 297.5 c 128,-1,40
 1094 275 1094 275 1089 267 c 1,41,-1
 771 267 l 1,42,-1
 771 156 l 1,43,-1
 1118 156 l 1,44,-1
 1118 0 l 1,45,-1
 607 0 l 1,46,-1
 607 69 l 1,0,1
411 142 m 256,47,48
 454 142 454 142 490 157 c 128,-1,49
 526 172 526 172 552 199 c 128,-1,50
 578 226 578 226 592.5 262.5 c 128,-1,51
 607 299 607 299 607 343 c 256,52,53
 607 387 607 387 592.5 424 c 128,-1,54
 578 461 578 461 552 487.5 c 128,-1,55
 526 514 526 514 490 529 c 128,-1,56
 454 544 454 544 411 544 c 256,57,58
 368 544 368 544 332 529.5 c 128,-1,59
 296 515 296 515 270 489 c 128,-1,60
 244 463 244 463 229.5 426 c 128,-1,61
 215 389 215 389 215 343 c 0,62,63
 215 298 215 298 229.5 260.5 c 128,-1,64
 244 223 244 223 270 197 c 128,-1,65
 296 171 296 171 332 156.5 c 128,-1,66
 368 142 368 142 411 142 c 256,47,48
EndSplineSet
EndChar

StartChar: quoteleft
Encoding: 8216 8216 110
Width: 337
GlyphClass: 2
Flags: W
LayerCount: 2
Fore
SplineSet
167 393 m 1,0,-1
 36 695 l 1,1,2
 40 699 40 699 48 706.5 c 128,-1,3
 56 714 56 714 68 720.5 c 128,-1,4
 80 727 80 727 96 732 c 128,-1,5
 112 737 112 737 130 737 c 0,6,7
 166 737 166 737 183 719 c 128,-1,8
 200 701 200 701 210 668 c 2,9,-1
 278 435 l 1,10,-1
 167 393 l 1,0,-1
EndSplineSet
EndChar

StartChar: quoteright
Encoding: 8217 8217 111
Width: 337
GlyphClass: 2
Flags: W
LayerCount: 2
Fore
SplineSet
127 668 m 2,0,1
 137 701 137 701 154 719 c 128,-1,2
 171 737 171 737 207 737 c 0,3,4
 225 737 225 737 241 732 c 128,-1,5
 257 727 257 727 269 720.5 c 128,-1,6
 281 714 281 714 289 706.5 c 128,-1,7
 297 699 297 699 301 695 c 1,8,-1
 170 393 l 1,9,-1
 59 435 l 1,10,-1
 127 668 l 2,0,1
EndSplineSet
EndChar

StartChar: bullet
Encoding: 8226 8226 114
Width: 533
GlyphClass: 2
Flags: W
LayerCount: 2
Fore
SplineSet
123 342 m 0,0,1
 123 372 123 372 134 398 c 128,-1,2
 145 424 145 424 164.5 443.5 c 128,-1,3
 184 463 184 463 210 474.5 c 128,-1,4
 236 486 236 486 267 486 c 256,5,6
 298 486 298 486 324 474.5 c 128,-1,7
 350 463 350 463 369 443.5 c 128,-1,8
 388 424 388 424 399 398 c 128,-1,9
 410 372 410 372 410 342 c 0,10,11
 410 313 410 313 399 287 c 128,-1,12
 388 261 388 261 369 241.5 c 128,-1,13
 350 222 350 222 324 210.5 c 128,-1,14
 298 199 298 199 267 199 c 256,15,16
 236 199 236 199 210 210.5 c 128,-1,17
 184 222 184 222 164.5 241.5 c 128,-1,18
 145 261 145 261 134 287 c 128,-1,19
 123 313 123 313 123 342 c 0,0,1
EndSplineSet
EndChar

StartChar: endash
Encoding: 8211 8211 115
Width: 500
GlyphClass: 2
Flags: W
LayerCount: 2
Fore
SplineSet
435 348 m 2,0,1
 471 348 471 348 485.5 326.5 c 128,-1,2
 500 305 500 305 500 270 c 0,3,4
 500 245 500 245 494 224.5 c 128,-1,5
 488 204 488 204 486 199 c 1,6,-1
 65 199 l 2,7,8
 29 199 29 199 14.5 220.5 c 128,-1,9
 0 242 0 242 0 277 c 0,10,11
 0 302 0 302 6 322.5 c 128,-1,12
 12 343 12 343 14 348 c 1,13,-1
 435 348 l 2,0,1
EndSplineSet
EndChar

StartChar: emdash
Encoding: 8212 8212 116
Width: 1000
GlyphClass: 2
Flags: W
LayerCount: 2
Fore
SplineSet
935 348 m 2,0,1
 971 348 971 348 985.5 326.5 c 128,-1,2
 1000 305 1000 305 1000 270 c 0,3,4
 1000 245 1000 245 994 224.5 c 128,-1,5
 988 204 988 204 986 199 c 1,6,-1
 65 199 l 2,7,8
 29 199 29 199 14.5 220.5 c 128,-1,9
 0 242 0 242 0 277 c 0,10,11
 0 302 0 302 6 322.5 c 128,-1,12
 12 343 12 343 14 348 c 1,13,-1
 935 348 l 2,0,1
EndSplineSet
EndChar

StartChar: tilde
Encoding: 732 732 117
Width: 500
GlyphClass: 2
Flags: W
LayerCount: 2
Fore
SplineSet
61 589 m 1,0,1
 65 610 65 610 74 630.5 c 128,-1,2
 83 651 83 651 97.5 667 c 128,-1,3
 112 683 112 683 132.5 692.5 c 128,-1,4
 153 702 153 702 180 702 c 0,5,6
 204 702 204 702 222.5 698 c 128,-1,7
 241 694 241 694 254 690 c 2,8,-1
 279 682 l 2,9,10
 290 679 290 679 297.5 677.5 c 128,-1,11
 305 676 305 676 315 676 c 0,12,13
 327 676 327 676 336 683.5 c 128,-1,14
 345 691 345 691 350 710 c 1,15,-1
 439 692 l 1,16,17
 434 671 434 671 425.5 650.5 c 128,-1,18
 417 630 417 630 402.5 614 c 128,-1,19
 388 598 388 598 368 588.5 c 128,-1,20
 348 579 348 579 320 579 c 0,21,22
 299 579 299 579 281.5 583.5 c 128,-1,23
 264 588 264 588 244 593 c 2,24,-1
 220 600 l 2,25,26
 212 602 212 602 202.5 604 c 128,-1,27
 193 606 193 606 185 606 c 0,28,29
 174 606 174 606 165 598 c 128,-1,30
 156 590 156 590 151 570 c 1,31,-1
 61 589 l 1,0,1
EndSplineSet
EndChar

StartChar: trademark
Encoding: 8482 8482 118
Width: 996
GlyphClass: 2
Flags: W
LayerCount: 2
Fore
SplineSet
157 581 m 1,0,-1
 67 581 l 2,1,2
 36 581 36 581 23 594 c 128,-1,3
 10 607 10 607 10 631 c 0,4,5
 10 651 10 651 15.5 666 c 128,-1,6
 21 681 21 681 24 686 c 1,7,-1
 367 686 l 2,8,9
 398 686 398 686 411 673 c 128,-1,10
 424 660 424 660 424 636 c 0,11,12
 424 616 424 616 418.5 601 c 128,-1,13
 413 586 413 586 410 581 c 1,14,-1
 277 581 l 1,15,-1
 277 268 l 1,16,-1
 157 268 l 1,17,-1
 157 581 l 1,0,-1
482 628 m 2,18,19
 484 664 484 664 504 675 c 128,-1,20
 524 686 524 686 549 686 c 0,21,22
 576 686 576 686 595 678.5 c 128,-1,23
 614 671 614 671 621 666 c 1,24,25
 629 649 629 649 639 626 c 128,-1,26
 649 603 649 603 660 578 c 128,-1,27
 671 553 671 553 682.5 528 c 128,-1,28
 694 503 694 503 705 481 c 1,29,30
 725 520 725 520 743 562 c 128,-1,31
 761 604 761 604 778 640 c 0,32,33
 789 666 789 666 808 676 c 128,-1,34
 827 686 827 686 852 686 c 0,35,36
 878 686 878 686 897.5 678.5 c 128,-1,37
 917 671 917 671 923 667 c 1,38,-1
 946 268 l 1,39,-1
 825 268 l 1,40,-1
 814 488 l 1,41,42
 794 449 794 449 776.5 407 c 128,-1,43
 759 365 759 365 748 337 c 1,44,-1
 660 337 l 1,45,46
 646 369 646 369 630 409.5 c 128,-1,47
 614 450 614 450 594 488 c 1,48,49
 591 434 591 434 588 377 c 128,-1,50
 585 320 585 320 583 268 c 1,51,-1
 462 268 l 1,52,-1
 482 628 l 2,18,19
EndSplineSet
EndChar

StartChar: guilsinglright
Encoding: 8250 8250 120
Width: 351
GlyphClass: 2
Flags: W
LayerCount: 2
Fore
SplineSet
160 257 m 1,0,-1
 30 411 l 1,1,-1
 121 495 l 1,2,-1
 293 319 l 2,3,4
 304 307 304 307 312.5 291 c 128,-1,5
 321 275 321 275 321 257 c 256,6,7
 321 239 321 239 312.5 222.5 c 128,-1,8
 304 206 304 206 293 194 c 2,9,-1
 121 19 l 1,10,-1
 30 103 l 1,11,-1
 160 257 l 1,0,-1
EndSplineSet
EndChar

StartChar: oe
Encoding: 339 339 121
Width: 958
GlyphClass: 2
Flags: W
LayerCount: 2
Fore
SplineSet
603 188 m 1,0,1
 605 176 605 176 613.5 164.5 c 128,-1,2
 622 153 622 153 637.5 143 c 128,-1,3
 653 133 653 133 677 127 c 128,-1,4
 701 121 701 121 735 121 c 0,5,6
 761 121 761 121 784 125.5 c 128,-1,7
 807 130 807 130 824 135 c 128,-1,8
 841 140 841 140 852 145 c 128,-1,9
 863 150 863 150 865 152 c 1,10,-1
 921 40 l 1,11,12
 913 35 913 35 894.5 26 c 128,-1,13
 876 17 876 17 848 8 c 128,-1,14
 820 -1 820 -1 782.5 -7.5 c 128,-1,15
 745 -14 745 -14 700 -14 c 0,16,17
 643 -14 643 -14 591 7.5 c 128,-1,18
 539 29 539 29 509 66 c 1,19,20
 476 29 476 29 423.5 7.5 c 128,-1,21
 371 -14 371 -14 308 -14 c 0,22,23
 253 -14 253 -14 203.5 6 c 128,-1,24
 154 26 154 26 116.5 61.5 c 128,-1,25
 79 97 79 97 57 146.5 c 128,-1,26
 35 196 35 196 35 255 c 0,27,28
 35 315 35 315 57 364.5 c 128,-1,29
 79 414 79 414 117 449.5 c 128,-1,30
 155 485 155 485 205 504.5 c 128,-1,31
 255 524 255 524 312 524 c 0,32,33
 373 524 373 524 427 501 c 128,-1,34
 481 478 481 478 511 440 c 1,35,36
 543 481 543 481 595 502.5 c 128,-1,37
 647 524 647 524 705 524 c 0,38,39
 759 524 759 524 802 509.5 c 128,-1,40
 845 495 845 495 874.5 470 c 128,-1,41
 904 445 904 445 919.5 413 c 128,-1,42
 935 381 935 381 935 347 c 0,43,44
 935 310 935 310 922 280.5 c 128,-1,45
 909 251 909 251 875.5 230.5 c 128,-1,46
 842 210 842 210 784.5 199 c 128,-1,47
 727 188 727 188 638 188 c 2,48,-1
 603 188 l 1,0,1
317 130 m 0,49,50
 342 130 342 130 363.5 139.5 c 128,-1,51
 385 149 385 149 401 165.5 c 128,-1,52
 417 182 417 182 425.5 205 c 128,-1,53
 434 228 434 228 434 255 c 256,54,55
 434 282 434 282 425.5 305 c 128,-1,56
 417 328 417 328 401 344.5 c 128,-1,57
 385 361 385 361 363.5 370.5 c 128,-1,58
 342 380 342 380 317 380 c 0,59,60
 291 380 291 380 270 370.5 c 128,-1,61
 249 361 249 361 233 344.5 c 128,-1,62
 217 328 217 328 208.5 305 c 128,-1,63
 200 282 200 282 200 255 c 256,64,65
 200 228 200 228 208.5 205 c 128,-1,66
 217 182 217 182 233 165.5 c 128,-1,67
 249 149 249 149 270 139.5 c 128,-1,68
 291 130 291 130 317 130 c 0,49,50
595 292 m 1,69,70
 662 292 662 292 699 297 c 128,-1,71
 736 302 736 302 754 310 c 128,-1,72
 772 318 772 318 776 328 c 128,-1,73
 780 338 780 338 780 348 c 0,74,75
 780 369 780 369 761 384.5 c 128,-1,76
 742 400 742 400 704 400 c 0,77,78
 677 400 677 400 657 390.5 c 128,-1,79
 637 381 637 381 623.5 366 c 128,-1,80
 610 351 610 351 603 331.5 c 128,-1,81
 596 312 596 312 595 292 c 1,69,70
EndSplineSet
EndChar

StartChar: exclamdown
Encoding: 161 161 124
Width: 278
GlyphClass: 2
Flags: W
LayerCount: 2
Fore
SplineSet
59 434 m 1,0,-1
 220 434 l 1,1,-1
 220 64 l 2,2,3
 220 25 220 25 197 9 c 128,-1,4
 174 -7 174 -7 136 -7 c 0,5,6
 109 -7 109 -7 87 -0.5 c 128,-1,7
 65 6 65 6 59 8 c 1,8,-1
 59 434 l 1,0,-1
43 603 m 256,9,10
 43 622 43 622 50.5 639 c 128,-1,11
 58 656 58 656 71.5 668.5 c 128,-1,12
 85 681 85 681 102 688.5 c 128,-1,13
 119 696 119 696 139 696 c 0,14,15
 158 696 158 696 175.5 688.5 c 128,-1,16
 193 681 193 681 206.5 668.5 c 128,-1,17
 220 656 220 656 227.5 639 c 128,-1,18
 235 622 235 622 235 603 c 256,19,20
 235 584 235 584 227.5 567.5 c 128,-1,21
 220 551 220 551 206.5 538.5 c 128,-1,22
 193 526 193 526 175.5 518.5 c 128,-1,23
 158 511 158 511 139 511 c 0,24,25
 119 511 119 511 102 518.5 c 128,-1,26
 85 526 85 526 71.5 538.5 c 128,-1,27
 58 551 58 551 50.5 567.5 c 128,-1,28
 43 584 43 584 43 603 c 256,9,10
EndSplineSet
EndChar

StartChar: cent
Encoding: 162 162 125
Width: 547
GlyphClass: 2
Flags: W
LayerCount: 2
Fore
SplineSet
284 76 m 1,0,1
 236 82 236 82 192.5 101.5 c 128,-1,2
 149 121 149 121 116.5 154 c 128,-1,3
 84 187 84 187 65 234.5 c 128,-1,4
 46 282 46 282 46 343 c 0,5,6
 46 401 46 401 64.5 447.5 c 128,-1,7
 83 494 83 494 115 527.5 c 128,-1,8
 147 561 147 561 190.5 582 c 128,-1,9
 234 603 234 603 284 609 c 1,10,-1
 284 692 l 2,11,12
 284 712 284 712 295.5 721 c 128,-1,13
 307 730 307 730 327 730 c 0,14,15
 342 730 342 730 353.5 726.5 c 128,-1,16
 365 723 365 723 368 722 c 2,17,-1
 368 610 l 1,18,19
 410 605 410 605 444.5 592.5 c 128,-1,20
 479 580 479 580 498 562 c 0,21,22
 509 551 509 551 515.5 538.5 c 128,-1,23
 522 526 522 526 522 509 c 256,24,25
 522 492 522 492 516 478 c 128,-1,26
 510 464 510 464 501 453 c 128,-1,27
 492 442 492 442 482.5 433.5 c 128,-1,28
 473 425 473 425 466 421 c 1,29,30
 451 436 451 436 426 449.5 c 128,-1,31
 401 463 401 463 368 468 c 1,32,-1
 368 220 l 1,33,34
 404 225 404 225 427.5 237 c 128,-1,35
 451 249 451 249 457 254 c 1,36,-1
 527 132 l 1,37,38
 509 120 509 120 469.5 101.5 c 128,-1,39
 430 83 430 83 368 76 c 1,40,-1
 368 -36 l 1,41,-1
 284 -36 l 1,42,-1
 284 76 l 1,0,1
284 459 m 1,43,44
 252 446 252 446 231.5 417 c 128,-1,45
 211 388 211 388 211 343 c 0,46,47
 211 296 211 296 231.5 268 c 128,-1,48
 252 240 252 240 284 228 c 1,49,-1
 284 459 l 1,43,44
EndSplineSet
EndChar

StartChar: sterling
Encoding: 163 163 126
Width: 612
GlyphClass: 2
Flags: W
LayerCount: 2
Fore
SplineSet
85 445 m 2,0,1
 85 571 85 571 158.5 637.5 c 128,-1,2
 232 704 232 704 359 704 c 0,3,4
 425 704 425 704 474.5 688 c 128,-1,5
 524 672 524 672 549 650 c 0,6,7
 561 639 561 639 568.5 626 c 128,-1,8
 576 613 576 613 576 595 c 256,9,10
 576 577 576 577 569 562 c 128,-1,11
 562 547 562 547 551.5 535 c 128,-1,12
 541 523 541 523 530 514.5 c 128,-1,13
 519 506 519 506 510 501 c 1,14,15
 490 520 490 520 454 537 c 128,-1,16
 418 554 418 554 366 554 c 0,17,18
 302 554 302 554 273.5 523 c 128,-1,19
 245 492 245 492 245 442 c 2,20,-1
 245 429 l 1,21,-1
 426 429 l 2,22,23
 471 429 471 429 490 410.5 c 128,-1,24
 509 392 509 392 509 356 c 0,25,26
 509 330 509 330 501 307 c 128,-1,27
 493 284 493 284 489 277 c 1,28,-1
 245 277 l 1,29,-1
 245 152 l 1,30,-1
 576 152 l 1,31,-1
 576 0 l 1,32,-1
 85 0 l 1,33,-1
 85 445 l 2,0,1
EndSplineSet
EndChar

StartChar: currency
Encoding: 164 164 127
Width: 650
GlyphClass: 2
Flags: W
LayerCount: 2
Fore
SplineSet
144 66 m 1,0,-1
 48 162 l 1,1,-1
 114 228 l 1,2,3
 100 254 100 254 92 282.5 c 128,-1,4
 84 311 84 311 84 343 c 256,5,6
 84 375 84 375 92 403.5 c 128,-1,7
 100 432 100 432 114 458 c 1,8,-1
 48 524 l 1,9,-1
 144 620 l 1,10,-1
 212 553 l 1,11,12
 238 566 238 566 266 573 c 128,-1,13
 294 580 294 580 325 580 c 0,14,15
 355 580 355 580 383.5 572.5 c 128,-1,16
 412 565 412 565 438 552 c 1,17,-1
 506 620 l 1,18,-1
 602 524 l 1,19,-1
 536 458 l 1,20,21
 550 432 550 432 558 403.5 c 128,-1,22
 566 375 566 375 566 343 c 0,23,24
 566 312 566 312 558 283 c 128,-1,25
 550 254 550 254 536 228 c 1,26,-1
 602 162 l 1,27,-1
 506 66 l 1,28,-1
 439 134 l 1,29,30
 413 121 413 121 385 113.5 c 128,-1,31
 357 106 357 106 325 106 c 0,32,33
 294 106 294 106 266 113.5 c 128,-1,34
 238 121 238 121 212 134 c 1,35,-1
 144 66 l 1,0,-1
325 224 m 256,36,37
 349 224 349 224 370 233.5 c 128,-1,38
 391 243 391 243 407 259 c 128,-1,39
 423 275 423 275 432 296.5 c 128,-1,40
 441 318 441 318 441 343 c 256,41,42
 441 368 441 368 432 389.5 c 128,-1,43
 423 411 423 411 407 427 c 128,-1,44
 391 443 391 443 370 452.5 c 128,-1,45
 349 462 349 462 325 462 c 256,46,47
 301 462 301 462 279.5 452.5 c 128,-1,48
 258 443 258 443 242.5 427 c 128,-1,49
 227 411 227 411 218 389.5 c 128,-1,50
 209 368 209 368 209 343 c 256,51,52
 209 318 209 318 218 296.5 c 128,-1,53
 227 275 227 275 242.5 259 c 128,-1,54
 258 243 258 243 279.5 233.5 c 128,-1,55
 301 224 301 224 325 224 c 256,36,37
EndSplineSet
EndChar

StartChar: yen
Encoding: 165 165 128
Width: 677
GlyphClass: 2
Flags: W
LayerCount: 2
Fore
SplineSet
245 158 m 1,0,-1
 88 158 l 2,1,2
 62 158 62 158 51 171 c 128,-1,3
 40 184 40 184 40 207 c 0,4,5
 40 224 40 224 44 236 c 128,-1,6
 48 248 48 248 50 253 c 1,7,-1
 245 253 l 1,8,9
 231 270 231 270 216.5 289.5 c 128,-1,10
 202 309 202 309 188 329 c 1,11,-1
 88 329 l 2,12,13
 62 329 62 329 51 342 c 128,-1,14
 40 355 40 355 40 378 c 0,15,16
 40 395 40 395 44 407 c 128,-1,17
 48 419 48 419 50 424 c 1,18,-1
 123 424 l 1,19,-1
 83 482 l 2,20,21
 51 529 51 529 34.5 557.5 c 128,-1,22
 18 586 18 586 18 615 c 0,23,24
 18 652 18 652 41 669 c 128,-1,25
 64 686 64 686 96 686 c 0,26,27
 124 686 124 686 141.5 681 c 128,-1,28
 159 676 159 676 165 673 c 0,29,30
 178 652 178 652 198.5 618.5 c 128,-1,31
 219 585 219 585 241.5 546.5 c 128,-1,32
 264 508 264 508 287.5 469.5 c 128,-1,33
 311 431 311 431 331 400 c 1,34,35
 348 427 348 427 365.5 457 c 128,-1,36
 383 487 383 487 399.5 517 c 128,-1,37
 416 547 416 547 431.5 574.5 c 128,-1,38
 447 602 447 602 460 625 c 0,39,40
 466 634 466 634 474.5 645 c 128,-1,41
 483 656 483 656 495.5 665 c 128,-1,42
 508 674 508 674 525 680 c 128,-1,43
 542 686 542 686 565 686 c 0,44,45
 583 686 583 686 599 681.5 c 128,-1,46
 615 677 615 677 627.5 671 c 128,-1,47
 640 665 640 665 648 659 c 128,-1,48
 656 653 656 653 659 650 c 0,49,50
 652 635 652 635 638.5 610.5 c 128,-1,51
 625 586 625 586 606.5 556 c 128,-1,52
 588 526 588 526 567 492 c 128,-1,53
 546 458 546 458 524 424 c 1,54,-1
 572 424 l 2,55,56
 599 424 599 424 609.5 410.5 c 128,-1,57
 620 397 620 397 620 375 c 0,58,59
 620 358 620 358 616 345.5 c 128,-1,60
 612 333 612 333 610 329 c 1,61,-1
 465 329 l 1,62,-1
 412 253 l 1,63,-1
 572 253 l 2,64,65
 599 253 599 253 609.5 239.5 c 128,-1,66
 620 226 620 226 620 204 c 0,67,68
 620 187 620 187 616 174.5 c 128,-1,69
 612 162 612 162 610 158 c 1,70,-1
 412 158 l 1,71,-1
 412 0 l 1,72,-1
 245 0 l 1,73,-1
 245 158 l 1,0,-1
EndSplineSet
EndChar

StartChar: brokenbar
Encoding: 166 166 129
Width: 284
GlyphClass: 2
Flags: W
LayerCount: 2
Fore
SplineSet
70 157 m 1,0,-1
 214 157 l 1,1,-1
 214 -132 l 1,2,-1
 70 -132 l 1,3,-1
 70 157 l 1,0,-1
70 674 m 2,4,5
 70 709 70 709 90.5 723 c 128,-1,6
 111 737 111 737 146 737 c 0,7,8
 171 737 171 737 190 731.5 c 128,-1,9
 209 726 209 726 214 724 c 1,10,-1
 214 446 l 1,11,-1
 70 446 l 1,12,-1
 70 674 l 2,4,5
EndSplineSet
EndChar

StartChar: section
Encoding: 167 167 130
Width: 646
GlyphClass: 2
Flags: W
LayerCount: 2
Fore
SplineSet
103 -16 m 1,0,1
 106 -18 106 -18 123.5 -26 c 128,-1,2
 141 -34 141 -34 170 -43 c 128,-1,3
 199 -52 199 -52 238 -59 c 128,-1,4
 277 -66 277 -66 324 -66 c 256,5,6
 371 -66 371 -66 402 -52 c 128,-1,7
 433 -38 433 -38 433 -6 c 0,8,9
 433 17 433 17 414 33.5 c 128,-1,10
 395 50 395 50 345 58 c 2,11,-1
 251 71 l 2,12,13
 205 78 205 78 167.5 92.5 c 128,-1,14
 130 107 130 107 103 129.5 c 128,-1,15
 76 152 76 152 61.5 182 c 128,-1,16
 47 212 47 212 47 249 c 0,17,18
 47 299 47 299 70 334.5 c 128,-1,19
 93 370 93 370 130 391 c 1,20,21
 109 402 109 402 93.5 419.5 c 128,-1,22
 78 437 78 437 67.5 457 c 128,-1,23
 57 477 57 477 52 498 c 128,-1,24
 47 519 47 519 47 538 c 0,25,26
 47 575 47 575 60.5 610.5 c 128,-1,27
 74 646 74 646 105 674 c 128,-1,28
 136 702 136 702 187.5 719.5 c 128,-1,29
 239 737 239 737 314 737 c 0,30,31
 384 737 384 737 436 727.5 c 128,-1,32
 488 718 488 718 520 701 c 0,33,34
 541 690 541 690 553.5 674 c 128,-1,35
 566 658 566 658 566 635 c 0,36,37
 566 617 566 617 559 603 c 128,-1,38
 552 589 552 589 543 579 c 128,-1,39
 534 569 534 569 525.5 564 c 128,-1,40
 517 559 517 559 515 558 c 0,41,42
 511 562 511 562 496 570 c 128,-1,43
 481 578 481 578 456 586 c 128,-1,44
 431 594 431 594 398 600 c 128,-1,45
 365 606 365 606 325 606 c 0,46,47
 272 606 272 606 245 589 c 128,-1,48
 218 572 218 572 218 542 c 0,49,50
 218 520 218 520 235.5 506 c 128,-1,51
 253 492 253 492 294 486 c 2,52,-1
 411 469 l 2,53,54
 464 461 464 461 500.5 445.5 c 128,-1,55
 537 430 537 430 560 408.5 c 128,-1,56
 583 387 583 387 593 359.5 c 128,-1,57
 603 332 603 332 603 301 c 0,58,59
 603 265 603 265 591 238.5 c 128,-1,60
 579 212 579 212 564 193.5 c 128,-1,61
 549 175 549 175 534.5 165 c 128,-1,62
 520 155 520 155 515 153 c 1,63,64
 531 143 531 143 547 130.5 c 128,-1,65
 563 118 563 118 575.5 100 c 128,-1,66
 588 82 588 82 595.5 58.5 c 128,-1,67
 603 35 603 35 603 3 c 0,68,69
 603 -41 603 -41 586.5 -78 c 128,-1,70
 570 -115 570 -115 536 -142 c 128,-1,71
 502 -169 502 -169 450 -184.5 c 128,-1,72
 398 -200 398 -200 327 -200 c 0,73,74
 262 -200 262 -200 210 -191 c 128,-1,75
 158 -182 158 -182 121.5 -171 c 128,-1,76
 85 -160 85 -160 65 -150.5 c 128,-1,77
 45 -141 45 -141 43 -140 c 2,78,-1
 103 -16 l 1,0,1
210 274 m 0,79,80
 210 261 210 261 215.5 247 c 128,-1,81
 221 233 221 233 236.5 221.5 c 128,-1,82
 252 210 252 210 280.5 202.5 c 128,-1,83
 309 195 309 195 355 195 c 0,84,85
 390 195 390 195 415 213.5 c 128,-1,86
 440 232 440 232 440 268 c 0,87,88
 440 281 440 281 434.5 295 c 128,-1,89
 429 309 429 309 413 320.5 c 128,-1,90
 397 332 397 332 369 339.5 c 128,-1,91
 341 347 341 347 295 347 c 0,92,93
 260 347 260 347 235 328.5 c 128,-1,94
 210 310 210 310 210 274 c 0,79,80
EndSplineSet
EndChar

StartChar: dieresis
Encoding: 168 168 131
Width: 500
GlyphClass: 2
Flags: W
LayerCount: 2
Fore
SplineSet
70 642 m 0,0,1
 70 655 70 655 76 668 c 128,-1,2
 82 681 82 681 92.5 691 c 128,-1,3
 103 701 103 701 116.5 707 c 128,-1,4
 130 713 130 713 145 713 c 0,5,6
 175 713 175 713 196.5 691 c 128,-1,7
 218 669 218 669 218 642 c 0,8,9
 218 614 218 614 196.5 592 c 128,-1,10
 175 570 175 570 145 570 c 0,11,12
 130 570 130 570 116.5 576 c 128,-1,13
 103 582 103 582 92.5 592 c 128,-1,14
 82 602 82 602 76 615 c 128,-1,15
 70 628 70 628 70 642 c 0,0,1
283 642 m 0,16,17
 283 669 283 669 304.5 691 c 128,-1,18
 326 713 326 713 357 713 c 256,19,20
 388 713 388 713 409 691 c 128,-1,21
 430 669 430 669 430 642 c 0,22,23
 430 614 430 614 409 592 c 128,-1,24
 388 570 388 570 357 570 c 256,25,26
 326 570 326 570 304.5 592 c 128,-1,27
 283 614 283 614 283 642 c 0,16,17
EndSplineSet
EndChar

StartChar: copyright
Encoding: 169 169 132
Width: 816
GlyphClass: 2
Flags: W
LayerCount: 2
Fore
SplineSet
40 343 m 256,0,1
 40 419 40 419 69 486 c 128,-1,2
 98 553 98 553 148 603 c 128,-1,3
 198 653 198 653 265 682 c 128,-1,4
 332 711 332 711 408 711 c 256,5,6
 484 711 484 711 551 682 c 128,-1,7
 618 653 618 653 668 603 c 128,-1,8
 718 553 718 553 747 486 c 128,-1,9
 776 419 776 419 776 343 c 256,10,11
 776 267 776 267 747 200 c 128,-1,12
 718 133 718 133 668 83 c 128,-1,13
 618 33 618 33 551 4 c 128,-1,14
 484 -25 484 -25 408 -25 c 256,15,16
 332 -25 332 -25 265 4 c 128,-1,17
 198 33 198 33 148 83 c 128,-1,18
 98 133 98 133 69 200 c 128,-1,19
 40 267 40 267 40 343 c 256,0,1
408 70 m 256,20,21
 463 70 463 70 511 91.5 c 128,-1,22
 559 113 559 113 595 149.5 c 128,-1,23
 631 186 631 186 651.5 236 c 128,-1,24
 672 286 672 286 672 343 c 256,25,26
 672 400 672 400 651.5 450 c 128,-1,27
 631 500 631 500 595 536.5 c 128,-1,28
 559 573 559 573 511 594.5 c 128,-1,29
 463 616 463 616 408 616 c 256,30,31
 353 616 353 616 305 594.5 c 128,-1,32
 257 573 257 573 221 536.5 c 128,-1,33
 185 500 185 500 164.5 450 c 128,-1,34
 144 400 144 400 144 343 c 256,35,36
 144 286 144 286 164.5 236 c 128,-1,37
 185 186 185 186 221 149.5 c 128,-1,38
 257 113 257 113 305 91.5 c 128,-1,39
 353 70 353 70 408 70 c 256,20,21
570 186 m 1,40,41
 564 181 564 181 551.5 173.5 c 128,-1,42
 539 166 539 166 521 159.5 c 128,-1,43
 503 153 503 153 479 148 c 128,-1,44
 455 143 455 143 425 143 c 0,45,46
 382 143 382 143 344 155.5 c 128,-1,47
 306 168 306 168 277.5 192.5 c 128,-1,48
 249 217 249 217 232 254.5 c 128,-1,49
 215 292 215 292 215 342 c 0,50,51
 215 391 215 391 231.5 428.5 c 128,-1,52
 248 466 248 466 276.5 491.5 c 128,-1,53
 305 517 305 517 343 530 c 128,-1,54
 381 543 381 543 425 543 c 0,55,56
 463 543 463 543 497 532.5 c 128,-1,57
 531 522 531 522 548 506 c 0,58,59
 556 499 556 499 560.5 490.5 c 128,-1,60
 565 482 565 482 565 468 c 0,61,62
 565 444 565 444 550.5 427 c 128,-1,63
 536 410 536 410 525 404 c 1,64,65
 512 416 512 416 488 428 c 128,-1,66
 464 440 464 440 433 440 c 0,67,68
 390 440 390 440 364 414.5 c 128,-1,69
 338 389 338 389 338 341 c 0,70,71
 338 295 338 295 365.5 270.5 c 128,-1,72
 393 246 393 246 438 246 c 0,73,74
 466 246 466 246 486.5 254 c 128,-1,75
 507 262 507 262 521 272 c 1,76,-1
 570 186 l 1,40,41
EndSplineSet
EndChar

StartChar: ordfeminine
Encoding: 170 170 133
Width: 432
GlyphClass: 2
Flags: W
LayerCount: 2
Fore
SplineSet
389 319 m 1,0,1
 376 317 376 317 356.5 314.5 c 128,-1,2
 337 312 337 312 314 310 c 128,-1,3
 291 308 291 308 266 306.5 c 128,-1,4
 241 305 241 305 216 305 c 0,5,6
 153 305 153 305 113.5 316.5 c 128,-1,7
 74 328 74 328 52 347 c 128,-1,8
 30 366 30 366 22 389.5 c 128,-1,9
 14 413 14 413 14 436 c 0,10,11
 14 465 14 465 24 488 c 128,-1,12
 34 511 34 511 57 526.5 c 128,-1,13
 80 542 80 542 116.5 550.5 c 128,-1,14
 153 559 153 559 206 559 c 0,15,16
 221 559 221 559 238 558 c 128,-1,17
 255 557 255 557 270 556 c 1,18,19
 270 585 270 585 247.5 597 c 128,-1,20
 225 609 225 609 188 609 c 0,21,22
 165 609 165 609 146 605.5 c 128,-1,23
 127 602 127 602 113.5 597.5 c 128,-1,24
 100 593 100 593 92.5 589 c 128,-1,25
 85 585 85 585 84 584 c 1,26,27
 83 585 83 585 78 590 c 128,-1,28
 73 595 73 595 68 602.5 c 128,-1,29
 63 610 63 610 58.5 619 c 128,-1,30
 54 628 54 628 54 636 c 0,31,32
 54 652 54 652 61.5 662 c 128,-1,33
 69 672 69 672 80 680 c 256,34,35
 91 688 91 688 117.5 696 c 128,-1,36
 144 704 144 704 189 704 c 0,37,38
 283 704 283 704 336 665 c 128,-1,39
 389 626 389 626 389 541 c 2,40,-1
 389 319 l 1,0,1
270 475 m 1,41,42
 265 476 265 476 249 477 c 128,-1,43
 233 478 233 478 210 478 c 0,44,45
 172 478 172 478 153.5 470 c 128,-1,46
 135 462 135 462 135 437 c 0,47,48
 135 416 135 416 153.5 406.5 c 128,-1,49
 172 397 172 397 221 397 c 0,50,51
 242 397 242 397 252.5 398.5 c 128,-1,52
 263 400 263 400 270 401 c 1,53,-1
 270 475 l 1,41,42
EndSplineSet
EndChar

StartChar: glyph134
Encoding: 65537 -1 134
Width: 643
GlyphClass: 2
Flags: W
LayerCount: 2
Fore
SplineSet
230 19 m 1,0,-1
 58 194 l 2,1,2
 47 206 47 206 38.5 222.5 c 128,-1,3
 30 239 30 239 30 257 c 256,4,5
 30 275 30 275 38.5 291 c 128,-1,6
 47 307 47 307 58 319 c 2,7,-1
 230 495 l 1,8,-1
 321 411 l 1,9,-1
 191 257 l 1,10,-1
 321 103 l 1,11,-1
 230 19 l 1,0,-1
522 19 m 1,12,-1
 350 194 l 2,13,14
 339 206 339 206 330.5 222.5 c 128,-1,15
 322 239 322 239 322 257 c 256,16,17
 322 275 322 275 330.5 291 c 128,-1,18
 339 307 339 307 350 319 c 2,19,-1
 522 495 l 1,20,-1
 613 411 l 1,21,-1
 483 257 l 1,22,-1
 613 103 l 1,23,-1
 522 19 l 1,12,-1
EndSplineSet
EndChar

StartChar: logicalnot
Encoding: 172 172 135
Width: 630
GlyphClass: 2
Flags: W
LayerCount: 2
Fore
SplineSet
507 508 m 2,0,1
 546 508 546 508 562 487 c 128,-1,2
 578 466 578 466 578 428 c 2,3,-1
 578 178 l 1,4,-1
 420 178 l 1,5,-1
 420 355 l 1,6,-1
 123 355 l 2,7,8
 84 355 84 355 68 376 c 128,-1,9
 52 397 52 397 52 435 c 0,10,11
 52 462 52 462 58.5 482.5 c 128,-1,12
 65 503 65 503 67 508 c 1,13,-1
 507 508 l 2,0,1
EndSplineSet
EndChar

StartChar: registered
Encoding: 174 174 137
Width: 816
GlyphClass: 2
Flags: W
LayerCount: 2
Fore
SplineSet
246 484 m 2,0,1
 246 510 246 510 260.5 521.5 c 128,-1,2
 275 533 275 533 294 536 c 0,3,4
 304 538 304 538 324.5 540 c 128,-1,5
 345 542 345 542 382 542 c 0,6,7
 435 542 435 542 470 531.5 c 128,-1,8
 505 521 505 521 526 503 c 128,-1,9
 547 485 547 485 556 461.5 c 128,-1,10
 565 438 565 438 565 413 c 0,11,12
 565 381 565 381 553 356 c 128,-1,13
 541 331 541 331 509 314 c 1,14,15
 526 287 526 287 545 244 c 128,-1,16
 564 201 564 201 579 162 c 1,17,-1
 457 162 l 1,18,19
 455 168 455 168 449.5 183.5 c 128,-1,20
 444 199 444 199 436.5 218 c 128,-1,21
 429 237 429 237 421 256 c 128,-1,22
 413 275 413 275 407 286 c 0,23,24
 403 285 403 285 395.5 285 c 128,-1,25
 388 285 388 285 382 285 c 0,26,27
 377 285 377 285 366 285 c 128,-1,28
 355 285 355 285 351 286 c 1,29,-1
 351 162 l 1,30,-1
 246 162 l 1,31,-1
 246 484 l 2,0,1
351 371 m 1,32,33
 353 371 353 371 360.5 370.5 c 128,-1,34
 368 370 368 370 390 370 c 0,35,36
 430 370 430 370 442.5 382.5 c 128,-1,37
 455 395 455 395 455 412 c 0,38,39
 455 419 455 419 452.5 427.5 c 128,-1,40
 450 436 450 436 443 443 c 128,-1,41
 436 450 436 450 422 454.5 c 128,-1,42
 408 459 408 459 386 459 c 0,43,44
 369 459 369 459 361 458.5 c 128,-1,45
 353 458 353 458 351 458 c 1,46,-1
 351 371 l 1,32,33
40 343 m 256,47,48
 40 419 40 419 69 486 c 128,-1,49
 98 553 98 553 148 603 c 128,-1,50
 198 653 198 653 265 682 c 128,-1,51
 332 711 332 711 408 711 c 256,52,53
 484 711 484 711 551 682 c 128,-1,54
 618 653 618 653 668 603 c 128,-1,55
 718 553 718 553 747 486 c 128,-1,56
 776 419 776 419 776 343 c 256,57,58
 776 267 776 267 747 200 c 128,-1,59
 718 133 718 133 668 83 c 128,-1,60
 618 33 618 33 551 4 c 128,-1,61
 484 -25 484 -25 408 -25 c 256,62,63
 332 -25 332 -25 265 4 c 128,-1,64
 198 33 198 33 148 83 c 128,-1,65
 98 133 98 133 69 200 c 128,-1,66
 40 267 40 267 40 343 c 256,47,48
408 70 m 256,67,68
 463 70 463 70 511 91.5 c 128,-1,69
 559 113 559 113 595 149.5 c 128,-1,70
 631 186 631 186 651.5 236 c 128,-1,71
 672 286 672 286 672 343 c 256,72,73
 672 400 672 400 651.5 450 c 128,-1,74
 631 500 631 500 595 536.5 c 128,-1,75
 559 573 559 573 511 594.5 c 128,-1,76
 463 616 463 616 408 616 c 256,77,78
 353 616 353 616 305 594.5 c 128,-1,79
 257 573 257 573 221 536.5 c 128,-1,80
 185 500 185 500 164.5 450 c 128,-1,81
 144 400 144 400 144 343 c 256,82,83
 144 286 144 286 164.5 236 c 128,-1,84
 185 186 185 186 221 149.5 c 128,-1,85
 257 113 257 113 305 91.5 c 128,-1,86
 353 70 353 70 408 70 c 256,67,68
EndSplineSet
EndChar

StartChar: macron
Encoding: 175 175 138
Width: 500
GlyphClass: 2
Flags: W
LayerCount: 2
Fore
SplineSet
375 692 m 2,0,1
 402 692 402 692 412.5 678.5 c 128,-1,2
 423 665 423 665 423 643 c 0,3,4
 423 626 423 626 419 613.5 c 128,-1,5
 415 601 415 601 413 597 c 1,6,-1
 127 597 l 2,7,8
 101 597 101 597 90 610 c 128,-1,9
 79 623 79 623 79 646 c 0,10,11
 79 663 79 663 83 675 c 128,-1,12
 87 687 87 687 89 692 c 1,13,-1
 375 692 l 2,0,1
EndSplineSet
EndChar

StartChar: degree
Encoding: 176 176 139
Width: 402
GlyphClass: 2
Flags: W
LayerCount: 2
Fore
SplineSet
18 557 m 256,0,1
 18 595 18 595 32.5 628 c 128,-1,2
 47 661 47 661 71.5 685 c 128,-1,3
 96 709 96 709 129.5 723 c 128,-1,4
 163 737 163 737 201 737 c 256,5,6
 239 737 239 737 272.5 723 c 128,-1,7
 306 709 306 709 330.5 685 c 128,-1,8
 355 661 355 661 369.5 628 c 128,-1,9
 384 595 384 595 384 557 c 256,10,11
 384 519 384 519 369.5 486.5 c 128,-1,12
 355 454 355 454 330.5 430 c 128,-1,13
 306 406 306 406 272.5 392 c 128,-1,14
 239 378 239 378 201 378 c 256,15,16
 163 378 163 378 129.5 392 c 128,-1,17
 96 406 96 406 71.5 430 c 128,-1,18
 47 454 47 454 32.5 486.5 c 128,-1,19
 18 519 18 519 18 557 c 256,0,1
201 483 m 0,20,21
 233 483 233 483 254.5 505 c 128,-1,22
 276 527 276 527 276 557 c 0,23,24
 276 589 276 589 254.5 611 c 128,-1,25
 233 633 233 633 201 633 c 0,26,27
 171 633 171 633 149 611 c 128,-1,28
 127 589 127 589 127 557 c 0,29,30
 127 527 127 527 149 505 c 128,-1,31
 171 483 171 483 201 483 c 0,20,21
EndSplineSet
EndChar

StartChar: plusminus
Encoding: 177 177 140
Width: 630
GlyphClass: 2
Flags: W
LayerCount: 2
Fore
SplineSet
236 153 m 1,0,-1
 236 274 l 1,1,-1
 123 274 l 2,2,3
 84 274 84 274 68 295 c 128,-1,4
 52 316 52 316 52 354 c 0,5,6
 52 381 52 381 58.5 401.5 c 128,-1,7
 65 422 65 422 67 427 c 1,8,-1
 236 427 l 1,9,-1
 236 534 l 2,10,11
 236 573 236 573 258.5 589 c 128,-1,12
 281 605 281 605 319 605 c 0,13,14
 346 605 346 605 367 598.5 c 128,-1,15
 388 592 388 592 394 590 c 1,16,-1
 394 427 l 1,17,-1
 507 427 l 2,18,19
 546 427 546 427 562 406 c 128,-1,20
 578 385 578 385 578 347 c 0,21,22
 578 320 578 320 571.5 299.5 c 128,-1,23
 565 279 565 279 563 274 c 1,24,-1
 394 274 l 1,25,-1
 394 153 l 1,26,-1
 507 153 l 2,27,28
 546 153 546 153 562 132 c 128,-1,29
 578 111 578 111 578 73 c 0,30,31
 578 46 578 46 571.5 25.5 c 128,-1,32
 565 5 565 5 563 0 c 1,33,-1
 123 0 l 2,34,35
 84 0 84 0 68 21 c 128,-1,36
 52 42 52 42 52 80 c 0,37,38
 52 107 52 107 58.5 127.5 c 128,-1,39
 65 148 65 148 67 153 c 1,40,-1
 236 153 l 1,0,-1
EndSplineSet
EndChar

StartChar: uni00B2
Encoding: 178 178 141
Width: 497
GlyphClass: 2
Flags: W
LayerCount: 2
Fore
SplineSet
48 387 m 1,0,1
 52 389 52 389 70.5 400 c 128,-1,2
 89 411 89 411 113.5 426 c 128,-1,3
 138 441 138 441 164 458 c 128,-1,4
 190 475 190 475 210 490 c 0,5,6
 233 507 233 507 253 530 c 128,-1,7
 273 553 273 553 273 576 c 0,8,9
 273 595 273 595 260.5 608.5 c 128,-1,10
 248 622 248 622 218 622 c 0,11,12
 199 622 199 622 182 614 c 128,-1,13
 165 606 165 606 152.5 595.5 c 128,-1,14
 140 585 140 585 132 574.5 c 128,-1,15
 124 564 124 564 122 560 c 1,16,17
 117 561 117 561 105 564.5 c 128,-1,18
 93 568 93 568 81 576 c 128,-1,19
 69 584 69 584 60 596.5 c 128,-1,20
 51 609 51 609 51 629 c 0,21,22
 51 651 51 651 65.5 671 c 128,-1,23
 80 691 80 691 104 705.5 c 128,-1,24
 128 720 128 720 159.5 728.5 c 128,-1,25
 191 737 191 737 226 737 c 0,26,27
 277 737 277 737 314 725.5 c 128,-1,28
 351 714 351 714 375.5 693 c 128,-1,29
 400 672 400 672 412 644 c 128,-1,30
 424 616 424 616 424 583 c 0,31,32
 424 547 424 547 405.5 518 c 128,-1,33
 387 489 387 489 362.5 466.5 c 128,-1,34
 338 444 338 444 312.5 428.5 c 128,-1,35
 287 413 287 413 274 406 c 1,36,-1
 427 406 l 1,37,-1
 427 287 l 1,38,-1
 48 287 l 1,39,-1
 48 387 l 1,0,1
EndSplineSet
Substitution2: "Single Substitution lookup 30 subtable" uni2080
Substitution2: "'frac' Diagonal Fractions lookup 14 subtable" uni2070
AlternateSubs2: "'sups' Superscript in Latin lookup 6 subtable" zero
EndChar

StartChar: uni00B3
Encoding: 179 179 142
Width: 497
GlyphClass: 2
Flags: W
LayerCount: 2
Fore
SplineSet
71 421 m 1,0,1
 73 420 73 420 84.5 415 c 128,-1,2
 96 410 96 410 115.5 404 c 128,-1,3
 135 398 135 398 161 393.5 c 128,-1,4
 187 389 187 389 217 389 c 0,5,6
 252 389 252 389 267 398.5 c 128,-1,7
 282 408 282 408 282 424 c 0,8,9
 282 437 282 437 269.5 448.5 c 128,-1,10
 257 460 257 460 217 460 c 2,11,-1
 170 460 l 2,12,13
 168 461 168 461 158.5 473 c 128,-1,14
 149 485 149 485 149 511 c 0,15,16
 149 535 149 535 162 546 c 128,-1,17
 175 557 175 557 209 557 c 2,18,-1
 216 557 l 2,19,20
 251 557 251 557 263.5 566.5 c 128,-1,21
 276 576 276 576 276 592 c 0,22,23
 276 604 276 604 263.5 615.5 c 128,-1,24
 251 627 251 627 211 627 c 0,25,26
 185 627 185 627 166 621 c 128,-1,27
 147 615 147 615 133.5 607.5 c 128,-1,28
 120 600 120 600 112.5 593.5 c 128,-1,29
 105 587 105 587 104 585 c 0,30,31
 98 586 98 586 88.5 590.5 c 128,-1,32
 79 595 79 595 69.5 602 c 128,-1,33
 60 609 60 609 53 619.5 c 128,-1,34
 46 630 46 630 46 644 c 256,35,36
 46 658 46 658 51.5 670 c 128,-1,37
 57 682 57 682 66 691 c 0,38,39
 71 697 71 697 82.5 704.5 c 128,-1,40
 94 712 94 712 113 719.5 c 128,-1,41
 132 727 132 727 160 732 c 128,-1,42
 188 737 188 737 226 737 c 0,43,44
 281 737 281 737 319.5 724.5 c 128,-1,45
 358 712 358 712 382 693.5 c 128,-1,46
 406 675 406 675 416.5 652 c 128,-1,47
 427 629 427 629 427 608 c 0,48,49
 427 574 427 574 409.5 550 c 128,-1,50
 392 526 392 526 360 512 c 1,51,52
 434 484 434 484 434 410 c 0,53,54
 434 383 434 383 421.5 358.5 c 128,-1,55
 409 334 409 334 384.5 316 c 128,-1,56
 360 298 360 298 322.5 287 c 128,-1,57
 285 276 285 276 236 276 c 0,58,59
 191 276 191 276 154.5 282 c 128,-1,60
 118 288 118 288 91.5 295 c 128,-1,61
 65 302 65 302 49.5 308.5 c 128,-1,62
 34 315 34 315 31 317 c 2,63,-1
 71 421 l 1,0,1
EndSplineSet
Substitution2: "Single Substitution lookup 30 subtable" uni2081
Substitution2: "'frac' Diagonal Fractions lookup 14 subtable" uni00B9
AlternateSubs2: "'sups' Superscript in Latin lookup 6 subtable" one
EndChar

StartChar: acute
Encoding: 180 180 143
Width: 500
GlyphClass: 2
Flags: W
LayerCount: 2
Fore
SplineSet
123 636 m 1,0,-1
 238 709 l 2,1,2
 255 720 255 720 271.5 728.5 c 128,-1,3
 288 737 288 737 305 737 c 0,4,5
 327 737 327 737 341 726 c 128,-1,6
 355 715 355 715 363 701 c 128,-1,7
 371 687 371 687 374.5 675 c 128,-1,8
 378 663 378 663 378 660 c 2,9,-1
 167 570 l 1,10,-1
 123 636 l 1,0,-1
EndSplineSet
EndChar

StartChar: mu
Encoding: 181 181 144
Width: 620
GlyphClass: 2
Flags: W
LayerCount: 2
Fore
SplineSet
55 -200 m 1,0,-1
 55 439 l 2,1,2
 55 478 55 478 78 494 c 128,-1,3
 101 510 101 510 139 510 c 0,4,5
 166 510 166 510 188 503.5 c 128,-1,6
 210 497 210 497 216 495 c 1,7,-1
 216 224 l 2,8,9
 216 194 216 194 226 174 c 128,-1,10
 236 154 236 154 254 142 c 128,-1,11
 272 130 272 130 296 125 c 128,-1,12
 320 120 320 120 348 120 c 0,13,14
 367 120 367 120 382 121.5 c 128,-1,15
 397 123 397 123 404 125 c 1,16,-1
 404 439 l 2,17,18
 404 478 404 478 427 494 c 128,-1,19
 450 510 450 510 488 510 c 0,20,21
 515 510 515 510 537 503.5 c 128,-1,22
 559 497 559 497 565 495 c 1,23,-1
 565 0 l 1,24,25
 554 -2 554 -2 506.5 -8 c 128,-1,26
 459 -14 459 -14 384 -14 c 0,27,28
 342 -14 342 -14 311.5 -8.5 c 128,-1,29
 281 -3 281 -3 261 5 c 128,-1,30
 241 13 241 13 230 20.5 c 128,-1,31
 219 28 219 28 215 33 c 1,32,-1
 215 -200 l 1,33,-1
 55 -200 l 1,0,-1
EndSplineSet
EndChar

StartChar: paragraph
Encoding: 182 182 145
Width: 618
GlyphClass: 2
Flags: W
LayerCount: 2
Fore
SplineSet
245 -200 m 1,0,-1
 245 217 l 1,1,2
 145 227 145 227 90.5 289.5 c 128,-1,3
 36 352 36 352 36 455 c 0,4,5
 36 501 36 501 51 544.5 c 128,-1,6
 66 588 66 588 100.5 621.5 c 128,-1,7
 135 655 135 655 190 675.5 c 128,-1,8
 245 696 245 696 326 696 c 0,9,10
 390 696 390 696 424.5 692.5 c 128,-1,11
 459 689 459 689 479 685 c 0,12,13
 492 683 492 683 504.5 677.5 c 128,-1,14
 517 672 517 672 526.5 661.5 c 128,-1,15
 536 651 536 651 542 635 c 128,-1,16
 548 619 548 619 548 597 c 2,17,-1
 548 -200 l 1,18,-1
 441 -200 l 1,19,-1
 441 587 l 1,20,21
 432 588 432 588 418.5 588.5 c 128,-1,22
 405 589 405 589 391.5 589.5 c 128,-1,23
 378 590 378 590 367 590 c 128,-1,24
 356 590 356 590 352 590 c 1,25,-1
 352 -200 l 1,26,-1
 245 -200 l 1,0,-1
EndSplineSet
EndChar

StartChar: periodcentered
Encoding: 183 183 146
Width: 337
GlyphClass: 2
Flags: W
LayerCount: 2
Fore
SplineSet
169 246 m 0,0,1
 149 246 149 246 132 253.5 c 128,-1,2
 115 261 115 261 101.5 274.5 c 128,-1,3
 88 288 88 288 80.5 305.5 c 128,-1,4
 73 323 73 323 73 343 c 0,5,6
 73 362 73 362 80.5 379.5 c 128,-1,7
 88 397 88 397 101.5 410.5 c 128,-1,8
 115 424 115 424 132 431.5 c 128,-1,9
 149 439 149 439 169 439 c 0,10,11
 188 439 188 439 205.5 431.5 c 128,-1,12
 223 424 223 424 236.5 410.5 c 128,-1,13
 250 397 250 397 257.5 379.5 c 128,-1,14
 265 362 265 362 265 343 c 0,15,16
 265 323 265 323 257.5 305.5 c 128,-1,17
 250 288 250 288 236.5 274.5 c 128,-1,18
 223 261 223 261 205.5 253.5 c 128,-1,19
 188 246 188 246 169 246 c 0,0,1
EndSplineSet
EndChar

StartChar: cedilla
Encoding: 184 184 147
Width: 500
GlyphClass: 2
Flags: W
LayerCount: 2
Fore
SplineSet
145 -114 m 1,0,1
 147 -116 147 -116 156 -119 c 128,-1,2
 165 -122 165 -122 178.5 -126 c 128,-1,3
 192 -130 192 -130 207 -132.5 c 128,-1,4
 222 -135 222 -135 236 -135 c 0,5,6
 257 -135 257 -135 265.5 -129.5 c 128,-1,7
 274 -124 274 -124 274 -112 c 0,8,9
 274 -98 274 -98 254.5 -91 c 128,-1,10
 235 -84 235 -84 215 -84 c 1,11,-1
 232 -25 l 1,12,13
 258 -25 258 -25 285 -29.5 c 128,-1,14
 312 -34 312 -34 334 -44.5 c 128,-1,15
 356 -55 356 -55 370 -71.5 c 128,-1,16
 384 -88 384 -88 384 -113 c 0,17,18
 384 -158 384 -158 347.5 -184.5 c 128,-1,19
 311 -211 311 -211 248 -211 c 0,20,21
 191 -211 191 -211 158 -200 c 128,-1,22
 125 -189 125 -189 116 -182 c 1,23,-1
 145 -114 l 1,0,1
EndSplineSet
EndChar

StartChar: uni00B9
Encoding: 185 185 148
Width: 497
GlyphClass: 2
Flags: W
LayerCount: 2
Fore
SplineSet
197 574 m 1,0,-1
 127 528 l 2,1,2
 124 529 124 529 114 533.5 c 128,-1,3
 104 538 104 538 92.5 546.5 c 128,-1,4
 81 555 81 555 72 567.5 c 128,-1,5
 63 580 63 580 63 597 c 0,6,7
 63 617 63 617 74 632 c 128,-1,8
 85 647 85 647 111 664 c 2,9,-1
 177 706 l 2,10,11
 203 722 203 722 220.5 729.5 c 128,-1,12
 238 737 238 737 263 737 c 0,13,14
 291 737 291 737 311.5 728 c 128,-1,15
 332 719 332 719 340 713 c 1,16,-1
 340 287 l 1,17,-1
 197 287 l 1,18,-1
 197 574 l 1,0,-1
EndSplineSet
Substitution2: "Single Substitution lookup 30 subtable" uni2082
Substitution2: "'frac' Diagonal Fractions lookup 14 subtable" uni00B2
AlternateSubs2: "'sups' Superscript in Latin lookup 6 subtable" two
EndChar

StartChar: ordmasculine
Encoding: 186 186 149
Width: 465
GlyphClass: 2
Flags: W
LayerCount: 2
Fore
SplineSet
23 504 m 256,0,1
 23 546 23 546 39 582.5 c 128,-1,2
 55 619 55 619 83.5 646 c 128,-1,3
 112 673 112 673 150 688.5 c 128,-1,4
 188 704 188 704 232 704 c 256,5,6
 276 704 276 704 314.5 688.5 c 128,-1,7
 353 673 353 673 381.5 646 c 128,-1,8
 410 619 410 619 426 582.5 c 128,-1,9
 442 546 442 546 442 504 c 256,10,11
 442 462 442 462 426 426 c 128,-1,12
 410 390 410 390 381.5 363 c 128,-1,13
 353 336 353 336 314.5 320.5 c 128,-1,14
 276 305 276 305 232 305 c 256,15,16
 188 305 188 305 150 320.5 c 128,-1,17
 112 336 112 336 83.5 363 c 128,-1,18
 55 390 55 390 39 426 c 128,-1,19
 23 462 23 462 23 504 c 256,0,1
232 420 m 256,20,21
 267 420 267 420 288.5 444.5 c 128,-1,22
 310 469 310 469 310 504 c 256,23,24
 310 539 310 539 288.5 564 c 128,-1,25
 267 589 267 589 232 589 c 256,26,27
 197 589 197 589 176 564 c 128,-1,28
 155 539 155 539 155 504 c 256,29,30
 155 469 155 469 176 444.5 c 128,-1,31
 197 420 197 420 232 420 c 256,20,21
EndSplineSet
EndChar

StartChar: glyph150
Encoding: 65538 -1 150
Width: 643
GlyphClass: 2
Flags: W
LayerCount: 2
Fore
SplineSet
452 257 m 1,0,-1
 322 411 l 1,1,-1
 413 495 l 1,2,-1
 585 319 l 2,3,4
 596 307 596 307 604.5 291 c 128,-1,5
 613 275 613 275 613 257 c 256,6,7
 613 239 613 239 604.5 222.5 c 128,-1,8
 596 206 596 206 585 194 c 2,9,-1
 413 19 l 1,10,-1
 322 103 l 1,11,-1
 452 257 l 1,0,-1
160 257 m 1,12,-1
 30 411 l 1,13,-1
 121 495 l 1,14,-1
 293 319 l 2,15,16
 304 307 304 307 312.5 291 c 128,-1,17
 321 275 321 275 321 257 c 256,18,19
 321 239 321 239 312.5 222.5 c 128,-1,20
 304 206 304 206 293 194 c 2,21,-1
 121 19 l 1,22,-1
 30 103 l 1,23,-1
 160 257 l 1,12,-1
EndSplineSet
EndChar

StartChar: onequarter
Encoding: 188 188 151
Width: 1020
GlyphClass: 2
Flags: W
LayerCount: 2
Fore
SplineSet
164 574 m 1,0,-1
 94 528 l 2,1,2
 91 529 91 529 81 533.5 c 128,-1,3
 71 538 71 538 59.5 546.5 c 128,-1,4
 48 555 48 555 39 567.5 c 128,-1,5
 30 580 30 580 30 597 c 0,6,7
 30 617 30 617 41 632 c 128,-1,8
 52 647 52 647 78 664 c 2,9,-1
 144 706 l 2,10,11
 170 722 170 722 187.5 729.5 c 128,-1,12
 205 737 205 737 230 737 c 0,13,14
 258 737 258 737 278.5 728 c 128,-1,15
 299 719 299 719 307 713 c 1,16,-1
 307 287 l 1,17,-1
 164 287 l 1,18,-1
 164 574 l 1,0,-1
596 686 m 2,19,20
 608 707 608 707 624 722 c 128,-1,21
 640 737 640 737 675 737 c 0,22,23
 692 737 692 737 706.5 733 c 128,-1,24
 721 729 721 729 732 724 c 128,-1,25
 743 719 743 719 750 714 c 128,-1,26
 757 709 757 709 759 708 c 1,27,-1
 348 0 l 1,28,-1
 198 0 l 1,29,-1
 596 686 l 2,19,20
782 84 m 1,30,-1
 649 84 l 2,31,32
 600 84 600 84 573.5 101.5 c 128,-1,33
 547 119 547 119 547 164 c 0,34,35
 547 205 547 205 570.5 247.5 c 128,-1,36
 594 290 594 290 624 325 c 0,37,38
 646 350 646 350 673 373.5 c 128,-1,39
 700 397 700 397 728.5 415 c 128,-1,40
 757 433 757 433 785 443.5 c 128,-1,41
 813 454 813 454 837 454 c 0,42,43
 867 454 867 454 886.5 449 c 128,-1,44
 906 444 906 444 915 439 c 1,45,-1
 915 187 l 1,46,-1
 924 187 l 2,47,48
 950 187 950 187 960 172.5 c 128,-1,49
 970 158 970 158 970 143 c 0,50,51
 970 125 970 125 966 110 c 128,-1,52
 962 95 962 95 957 84 c 1,53,-1
 915 84 l 1,54,-1
 915 4 l 1,55,-1
 782 4 l 1,56,-1
 782 84 l 1,30,-1
782 189 m 1,57,-1
 782 317 l 1,58,59
 763 306 763 306 744 289.5 c 128,-1,60
 725 273 725 273 715 261 c 0,61,62
 701 244 701 244 693.5 229.5 c 128,-1,63
 686 215 686 215 686 204 c 0,64,65
 686 195 686 195 691.5 192 c 128,-1,66
 697 189 697 189 707 189 c 2,67,-1
 782 189 l 1,57,-1
EndSplineSet
Ligature2: "'frac' Diagonal Fractions lookup 3 subtable" uni06F1.tnum fraction uni06F4.tnum
Ligature2: "'frac' Diagonal Fractions lookup 3 subtable" uni06F1 fraction uni06F4
Ligature2: "'frac' Diagonal Fractions lookup 3 subtable" uni0661.tnum fraction uni0664.tnum
Ligature2: "'frac' Diagonal Fractions lookup 3 subtable" uni0661 fraction uni0664
Ligature2: "'frac' Diagonal Fractions lookup 3 subtable" uniF815 fraction uniF818
Ligature2: "'frac' Diagonal Fractions lookup 3 subtable" uniF80B fraction uniF80E
Ligature2: "'frac' Diagonal Fractions lookup 3 subtable" uniF801 fraction uniF804
Ligature2: "'frac' Diagonal Fractions lookup 3 subtable" uni2081 fraction uni2084
Ligature2: "'frac' Diagonal Fractions lookup 3 subtable" uni00B9 fraction uni2074
Ligature2: "'frac' Diagonal Fractions lookup 3 subtable" one fraction four
EndChar

StartChar: onehalf
Encoding: 189 189 152
Width: 1058
GlyphClass: 2
Flags: W
LayerCount: 2
Fore
SplineSet
164 574 m 1,0,-1
 94 528 l 2,1,2
 91 529 91 529 81 533.5 c 128,-1,3
 71 538 71 538 59.5 546.5 c 128,-1,4
 48 555 48 555 39 567.5 c 128,-1,5
 30 580 30 580 30 597 c 0,6,7
 30 617 30 617 41 632 c 128,-1,8
 52 647 52 647 78 664 c 2,9,-1
 144 706 l 2,10,11
 170 722 170 722 187.5 729.5 c 128,-1,12
 205 737 205 737 230 737 c 0,13,14
 258 737 258 737 278.5 728 c 128,-1,15
 299 719 299 719 307 713 c 1,16,-1
 307 287 l 1,17,-1
 164 287 l 1,18,-1
 164 574 l 1,0,-1
597 686 m 2,19,20
 609 707 609 707 625 722 c 128,-1,21
 641 737 641 737 676 737 c 0,22,23
 693 737 693 737 707.5 733 c 128,-1,24
 722 729 722 729 733 724 c 128,-1,25
 744 719 744 719 751 714 c 128,-1,26
 758 709 758 709 760 708 c 1,27,-1
 349 0 l 1,28,-1
 199 0 l 1,29,-1
 597 686 l 2,19,20
619 104 m 1,30,31
 623 106 623 106 641.5 117 c 128,-1,32
 660 128 660 128 684.5 143 c 128,-1,33
 709 158 709 158 735 175 c 128,-1,34
 761 192 761 192 781 207 c 0,35,36
 804 224 804 224 824 247 c 128,-1,37
 844 270 844 270 844 293 c 0,38,39
 844 312 844 312 831.5 325.5 c 128,-1,40
 819 339 819 339 789 339 c 0,41,42
 770 339 770 339 753 331 c 128,-1,43
 736 323 736 323 723.5 312.5 c 128,-1,44
 711 302 711 302 703 291.5 c 128,-1,45
 695 281 695 281 693 277 c 1,46,47
 688 278 688 278 676 281.5 c 128,-1,48
 664 285 664 285 652 293 c 128,-1,49
 640 301 640 301 631 313.5 c 128,-1,50
 622 326 622 326 622 346 c 0,51,52
 622 368 622 368 636.5 388 c 128,-1,53
 651 408 651 408 675 422.5 c 128,-1,54
 699 437 699 437 730.5 445.5 c 128,-1,55
 762 454 762 454 797 454 c 0,56,57
 848 454 848 454 885 442.5 c 128,-1,58
 922 431 922 431 946.5 410 c 128,-1,59
 971 389 971 389 983 361 c 128,-1,60
 995 333 995 333 995 300 c 0,61,62
 995 264 995 264 976.5 235 c 128,-1,63
 958 206 958 206 933.5 183.5 c 128,-1,64
 909 161 909 161 883.5 145.5 c 128,-1,65
 858 130 858 130 845 123 c 1,66,-1
 998 123 l 1,67,-1
 998 4 l 1,68,-1
 619 4 l 1,69,-1
 619 104 l 1,30,31
EndSplineSet
Ligature2: "'frac' Diagonal Fractions lookup 3 subtable" uni06F1.tnum fraction uni06F2.tnum
Ligature2: "'frac' Diagonal Fractions lookup 3 subtable" uni06F1 fraction uni06F2
Ligature2: "'frac' Diagonal Fractions lookup 3 subtable" uni0661.tnum fraction uni0662.tnum
Ligature2: "'frac' Diagonal Fractions lookup 3 subtable" uni0661 fraction uni0662
Ligature2: "'frac' Diagonal Fractions lookup 3 subtable" uniF815 fraction uniF816
Ligature2: "'frac' Diagonal Fractions lookup 3 subtable" uniF80B fraction uniF80C
Ligature2: "'frac' Diagonal Fractions lookup 3 subtable" uniF801 fraction uniF802
Ligature2: "'frac' Diagonal Fractions lookup 3 subtable" uni2081 fraction uni2082
Ligature2: "'frac' Diagonal Fractions lookup 3 subtable" uni00B9 fraction uni00B2
Ligature2: "'frac' Diagonal Fractions lookup 3 subtable" one fraction two
EndChar

StartChar: threequarters
Encoding: 190 190 153
Width: 1100
GlyphClass: 2
Flags: W
LayerCount: 2
Fore
SplineSet
70 421 m 1,0,1
 72 420 72 420 83.5 415 c 128,-1,2
 95 410 95 410 114.5 404 c 128,-1,3
 134 398 134 398 160 393.5 c 128,-1,4
 186 389 186 389 216 389 c 0,5,6
 251 389 251 389 266 398.5 c 128,-1,7
 281 408 281 408 281 424 c 0,8,9
 281 437 281 437 268.5 448.5 c 128,-1,10
 256 460 256 460 216 460 c 2,11,-1
 169 460 l 2,12,13
 167 461 167 461 157.5 473 c 128,-1,14
 148 485 148 485 148 511 c 0,15,16
 148 535 148 535 161 546 c 128,-1,17
 174 557 174 557 208 557 c 2,18,-1
 215 557 l 2,19,20
 250 557 250 557 262.5 566.5 c 128,-1,21
 275 576 275 576 275 592 c 0,22,23
 275 604 275 604 262.5 615.5 c 128,-1,24
 250 627 250 627 210 627 c 0,25,26
 184 627 184 627 165 621 c 128,-1,27
 146 615 146 615 132.5 607.5 c 128,-1,28
 119 600 119 600 111.5 593.5 c 128,-1,29
 104 587 104 587 103 585 c 0,30,31
 97 586 97 586 87.5 590.5 c 128,-1,32
 78 595 78 595 68.5 602 c 128,-1,33
 59 609 59 609 52 619.5 c 128,-1,34
 45 630 45 630 45 644 c 256,35,36
 45 658 45 658 50.5 670 c 128,-1,37
 56 682 56 682 65 691 c 0,38,39
 70 697 70 697 81.5 704.5 c 128,-1,40
 93 712 93 712 112 719.5 c 128,-1,41
 131 727 131 727 159 732 c 128,-1,42
 187 737 187 737 225 737 c 0,43,44
 280 737 280 737 318.5 724.5 c 128,-1,45
 357 712 357 712 381 693.5 c 128,-1,46
 405 675 405 675 415.5 652 c 128,-1,47
 426 629 426 629 426 608 c 0,48,49
 426 574 426 574 408.5 550 c 128,-1,50
 391 526 391 526 359 512 c 1,51,52
 433 484 433 484 433 410 c 0,53,54
 433 383 433 383 420.5 358.5 c 128,-1,55
 408 334 408 334 383.5 316 c 128,-1,56
 359 298 359 298 321.5 287 c 128,-1,57
 284 276 284 276 235 276 c 0,58,59
 190 276 190 276 153.5 282 c 128,-1,60
 117 288 117 288 90.5 295 c 128,-1,61
 64 302 64 302 48.5 308.5 c 128,-1,62
 33 315 33 315 30 317 c 2,63,-1
 70 421 l 1,0,1
674 686 m 2,64,65
 686 707 686 707 702 722 c 128,-1,66
 718 737 718 737 753 737 c 0,67,68
 770 737 770 737 784.5 733 c 128,-1,69
 799 729 799 729 810 724 c 128,-1,70
 821 719 821 719 828 714 c 128,-1,71
 835 709 835 709 837 708 c 1,72,-1
 426 0 l 1,73,-1
 276 0 l 1,74,-1
 674 686 l 2,64,65
862 84 m 1,75,-1
 729 84 l 2,76,77
 680 84 680 84 653.5 101.5 c 128,-1,78
 627 119 627 119 627 164 c 0,79,80
 627 205 627 205 650.5 247.5 c 128,-1,81
 674 290 674 290 704 325 c 0,82,83
 726 350 726 350 753 373.5 c 128,-1,84
 780 397 780 397 808.5 415 c 128,-1,85
 837 433 837 433 865 443.5 c 128,-1,86
 893 454 893 454 917 454 c 0,87,88
 947 454 947 454 966.5 449 c 128,-1,89
 986 444 986 444 995 439 c 1,90,-1
 995 187 l 1,91,-1
 1004 187 l 2,92,93
 1030 187 1030 187 1040 172.5 c 128,-1,94
 1050 158 1050 158 1050 143 c 0,95,96
 1050 125 1050 125 1046 110 c 128,-1,97
 1042 95 1042 95 1037 84 c 1,98,-1
 995 84 l 1,99,-1
 995 4 l 1,100,-1
 862 4 l 1,101,-1
 862 84 l 1,75,-1
862 189 m 1,102,-1
 862 317 l 1,103,104
 843 306 843 306 824 289.5 c 128,-1,105
 805 273 805 273 795 261 c 0,106,107
 781 244 781 244 773.5 229.5 c 128,-1,108
 766 215 766 215 766 204 c 0,109,110
 766 195 766 195 771.5 192 c 128,-1,111
 777 189 777 189 787 189 c 2,112,-1
 862 189 l 1,102,-1
EndSplineSet
Ligature2: "'frac' Diagonal Fractions lookup 3 subtable" uni06F3.tnum fraction uni06F4.tnum
Ligature2: "'frac' Diagonal Fractions lookup 3 subtable" uni06F3 fraction uni06F4
Ligature2: "'frac' Diagonal Fractions lookup 3 subtable" uni0663.tnum fraction uni0664.tnum
Ligature2: "'frac' Diagonal Fractions lookup 3 subtable" uni0663 fraction uni0664
Ligature2: "'frac' Diagonal Fractions lookup 3 subtable" uniF817 fraction uniF818
Ligature2: "'frac' Diagonal Fractions lookup 3 subtable" uniF80D fraction uniF80E
Ligature2: "'frac' Diagonal Fractions lookup 3 subtable" uniF803 fraction uniF804
Ligature2: "'frac' Diagonal Fractions lookup 3 subtable" uni2083 fraction uni2084
Ligature2: "'frac' Diagonal Fractions lookup 3 subtable" uni00B3 fraction uni2074
Ligature2: "'frac' Diagonal Fractions lookup 3 subtable" three fraction four
EndChar

StartChar: questiondown
Encoding: 191 191 154
Width: 542
GlyphClass: 2
Flags: W
LayerCount: 2
Fore
SplineSet
385 459 m 1,0,-1
 385 436 l 2,1,2
 385 386 385 386 366 355 c 128,-1,3
 347 324 347 324 305 300 c 0,4,5
 262 276 262 276 233.5 252 c 128,-1,6
 205 228 205 228 205 189 c 0,7,8
 205 160 205 160 228 136.5 c 128,-1,9
 251 113 251 113 306 113 c 0,10,11
 359 113 359 113 393 135.5 c 128,-1,12
 427 158 427 158 444 187 c 1,13,14
 475 179 475 179 498 155 c 128,-1,15
 521 131 521 131 521 102 c 0,16,17
 521 85 521 85 515.5 69.5 c 128,-1,18
 510 54 510 54 496 38 c 0,19,20
 488 30 488 30 473.5 19 c 128,-1,21
 459 8 459 8 434.5 -2 c 128,-1,22
 410 -12 410 -12 374.5 -18.5 c 128,-1,23
 339 -25 339 -25 291 -25 c 0,24,25
 226 -25 226 -25 179 -9 c 128,-1,26
 132 7 132 7 101 34.5 c 128,-1,27
 70 62 70 62 55 98.5 c 128,-1,28
 40 135 40 135 40 175 c 256,29,30
 40 215 40 215 49.5 245 c 128,-1,31
 59 275 59 275 74.5 298.5 c 128,-1,32
 90 322 90 322 109 339 c 128,-1,33
 128 356 128 356 147 369 c 0,34,35
 181 392 181 392 203 409.5 c 128,-1,36
 225 427 225 427 225 459 c 1,37,-1
 385 459 l 1,0,-1
209 603 m 256,38,39
 209 622 209 622 216.5 639 c 128,-1,40
 224 656 224 656 237.5 668.5 c 128,-1,41
 251 681 251 681 268 688.5 c 128,-1,42
 285 696 285 696 305 696 c 0,43,44
 324 696 324 696 341.5 688.5 c 128,-1,45
 359 681 359 681 372.5 668.5 c 128,-1,46
 386 656 386 656 393.5 639 c 128,-1,47
 401 622 401 622 401 603 c 256,48,49
 401 584 401 584 393.5 567.5 c 128,-1,50
 386 551 386 551 372.5 538.5 c 128,-1,51
 359 526 359 526 341.5 518.5 c 128,-1,52
 324 511 324 511 305 511 c 0,53,54
 285 511 285 511 268 518.5 c 128,-1,55
 251 526 251 526 237.5 538.5 c 128,-1,56
 224 551 224 551 216.5 567.5 c 128,-1,57
 209 584 209 584 209 603 c 256,38,39
EndSplineSet
EndChar

StartChar: Aring
Encoding: 197 197 160
Width: 769
GlyphClass: 2
Flags: W
LayerCount: 2
Fore
SplineSet
5 0 m 1,0,1
 26 56 26 56 56 130.5 c 128,-1,2
 86 205 86 205 120.5 288.5 c 128,-1,3
 155 372 155 372 192.5 459 c 128,-1,4
 230 546 230 546 266 627 c 0,5,6
 282 666 282 666 308 684 c 1,7,8
 291 699 291 699 280.5 720.5 c 128,-1,9
 270 742 270 742 270 767 c 0,10,11
 270 790 270 790 279 810.5 c 128,-1,12
 288 831 288 831 304 846.5 c 128,-1,13
 320 862 320 862 341 871 c 128,-1,14
 362 880 362 880 386 880 c 256,15,16
 410 880 410 880 430.5 871 c 128,-1,17
 451 862 451 862 466.5 846.5 c 128,-1,18
 482 831 482 831 491 810.5 c 128,-1,19
 500 790 500 790 500 767 c 0,20,21
 500 743 500 743 490 721.5 c 128,-1,22
 480 700 480 700 463 685 c 1,23,24
 479 673 479 673 493 649 c 0,25,26
 504 629 504 629 526 579.5 c 128,-1,27
 548 530 548 530 575.5 465 c 128,-1,28
 603 400 603 400 633 327.5 c 128,-1,29
 663 255 663 255 689.5 189.5 c 128,-1,30
 716 124 716 124 736 73 c 128,-1,31
 756 22 756 22 764 0 c 1,32,-1
 580 0 l 1,33,34
 569 29 569 29 556 64.5 c 128,-1,35
 543 100 543 100 524 148 c 1,36,-1
 233 148 l 1,37,38
 217 106 217 106 204.5 71 c 128,-1,39
 192 36 192 36 178 0 c 1,40,-1
 5 0 l 1,0,1
467 299 m 1,41,42
 457 326 457 326 444 359.5 c 128,-1,43
 431 393 431 393 419 424.5 c 128,-1,44
 407 456 407 456 396.5 482.5 c 128,-1,45
 386 509 386 509 380 522 c 1,46,47
 374 508 374 508 364 482.5 c 128,-1,48
 354 457 354 457 342 425.5 c 128,-1,49
 330 394 330 394 317 361 c 128,-1,50
 304 328 304 328 293 299 c 1,51,-1
 467 299 l 1,41,42
386 721 m 0,52,53
 406 721 406 721 417.5 733.5 c 128,-1,54
 429 746 429 746 429 767 c 0,55,56
 429 787 429 787 417.5 800 c 128,-1,57
 406 813 406 813 386 813 c 0,58,59
 365 813 365 813 353.5 800 c 128,-1,60
 342 787 342 787 342 767 c 0,61,62
 342 746 342 746 353.5 733.5 c 128,-1,63
 365 721 365 721 386 721 c 0,52,53
EndSplineSet
EndChar

StartChar: AE
Encoding: 198 198 161
Width: 1087
GlyphClass: 2
Flags: W
LayerCount: 2
Fore
SplineSet
5 0 m 1,0,1
 32 50 32 50 70 117.5 c 128,-1,2
 108 185 108 185 153 262.5 c 128,-1,3
 198 340 198 340 247.5 425 c 128,-1,4
 297 510 297 510 348 594 c 0,5,6
 366 623 366 623 382.5 641 c 128,-1,7
 399 659 399 659 416 669 c 128,-1,8
 433 679 433 679 452 682.5 c 128,-1,9
 471 686 471 686 493 686 c 2,10,-1
 957 686 l 2,11,12
 1003 686 1003 686 1022.5 666.5 c 128,-1,13
 1042 647 1042 647 1042 610 c 0,14,15
 1042 583 1042 583 1034 560.5 c 128,-1,16
 1026 538 1026 538 1021 530 c 1,17,-1
 703 530 l 1,18,-1
 703 423 l 1,19,-1
 944 423 l 2,20,21
 990 423 990 423 1009.5 403.5 c 128,-1,22
 1029 384 1029 384 1029 347 c 0,23,24
 1029 320 1029 320 1021 297.5 c 128,-1,25
 1013 275 1013 275 1008 267 c 1,26,-1
 703 267 l 1,27,-1
 703 156 l 1,28,-1
 1037 156 l 1,29,-1
 1037 0 l 1,30,-1
 536 0 l 1,31,-1
 536 166 l 1,32,-1
 279 166 l 1,33,34
 247 109 247 109 222.5 64 c 128,-1,35
 198 19 198 19 187 0 c 1,36,-1
 5 0 l 1,0,1
536 317 m 1,37,-1
 536 527 l 1,38,-1
 482 527 l 1,39,-1
 364 317 l 1,40,-1
 536 317 l 1,37,-1
EndSplineSet
EndChar

StartChar: Eth
Encoding: 208 208 171
Width: 779
GlyphClass: 2
Flags: W
LayerCount: 2
Fore
SplineSet
98 288 m 1,0,-1
 73 288 l 2,1,2
 40 288 40 288 26 305.5 c 128,-1,3
 12 323 12 323 12 355 c 0,4,5
 12 375 12 375 17 390 c 128,-1,6
 22 405 22 405 26 411 c 1,7,-1
 98 411 l 1,8,-1
 98 597 l 2,9,10
 98 619 98 619 104 635 c 128,-1,11
 110 651 110 651 119.5 661.5 c 128,-1,12
 129 672 129 672 141.5 677.5 c 128,-1,13
 154 683 154 683 167 685 c 0,14,15
 186 689 186 689 222.5 692.5 c 128,-1,16
 259 696 259 696 330 696 c 0,17,18
 423 696 423 696 498.5 673 c 128,-1,19
 574 650 574 650 627.5 605 c 128,-1,20
 681 560 681 560 710 494.5 c 128,-1,21
 739 429 739 429 739 344 c 0,22,23
 739 260 739 260 712 194.5 c 128,-1,24
 685 129 685 129 631.5 83.5 c 128,-1,25
 578 38 578 38 498.5 14 c 128,-1,26
 419 -10 419 -10 314 -10 c 0,27,28
 201 -10 201 -10 151.5 -5.5 c 128,-1,29
 102 -1 102 -1 98 0 c 1,30,-1
 98 288 l 1,0,-1
265 148 m 1,31,32
 271 147 271 147 291.5 145.5 c 128,-1,33
 312 144 312 144 341 144 c 0,34,35
 391 144 391 144 432 155.5 c 128,-1,36
 473 167 473 167 502.5 191.5 c 128,-1,37
 532 216 532 216 548 254 c 128,-1,38
 564 292 564 292 564 344 c 0,39,40
 564 388 564 388 551 425 c 128,-1,41
 538 462 538 462 511.5 489 c 128,-1,42
 485 516 485 516 444.5 531 c 128,-1,43
 404 546 404 546 349 546 c 0,44,45
 310 546 310 546 289 544.5 c 128,-1,46
 268 543 268 543 265 542 c 2,47,-1
 265 411 l 1,48,-1
 383 411 l 2,49,50
 417 411 417 411 430.5 393.5 c 128,-1,51
 444 376 444 376 444 347 c 0,52,53
 444 325 444 325 439 309.5 c 128,-1,54
 434 294 434 294 430 288 c 1,55,-1
 265 288 l 1,56,-1
 265 148 l 1,31,32
EndSplineSet
EndChar

StartChar: multiply
Encoding: 215 215 178
Width: 637
GlyphClass: 2
Flags: W
LayerCount: 2
Fore
SplineSet
208 342 m 1,0,-1
 125 422 l 2,1,2
 101 446 101 446 101 471 c 0,3,4
 101 499 101 499 131 529 c 0,5,6
 151 549 151 549 169.5 558.5 c 128,-1,7
 188 568 188 568 193 570 c 1,8,-1
 313 448 l 1,9,-1
 396 533 l 2,10,11
 419 556 419 556 444 556 c 0,12,13
 474 556 474 556 505 525 c 0,14,15
 524 505 524 505 534 486 c 128,-1,16
 544 467 544 467 547 461 c 1,17,-1
 422 339 l 1,18,-1
 505 259 l 2,19,20
 518 247 518 247 523 235 c 128,-1,21
 528 223 528 223 528 211 c 0,22,23
 528 196 528 196 520 181.5 c 128,-1,24
 512 167 512 167 498 152 c 0,25,26
 479 133 479 133 460 123 c 128,-1,27
 441 113 441 113 436 111 c 1,28,-1
 316 234 l 1,29,-1
 234 148 l 2,30,31
 211 125 211 125 185 125 c 0,32,33
 156 125 156 125 125 156 c 0,34,35
 105 176 105 176 95 194.5 c 128,-1,36
 85 213 85 213 82 220 c 1,37,-1
 208 342 l 1,0,-1
EndSplineSet
EndChar

StartChar: Oslash
Encoding: 216 216 179
Width: 822
GlyphClass: 2
Flags: W
LayerCount: 2
Fore
SplineSet
196 46 m 1,0,1
 124 95 124 95 82 172 c 128,-1,2
 40 249 40 249 40 343 c 0,3,4
 40 419 40 419 68.5 485 c 128,-1,5
 97 551 97 551 147 599.5 c 128,-1,6
 197 648 197 648 265 676 c 128,-1,7
 333 704 333 704 411 704 c 0,8,9
 456 704 456 704 502 693 c 1,10,-1
 522 736 l 2,11,12
 534 761 534 761 550 773 c 128,-1,13
 566 785 566 785 598 785 c 0,14,15
 615 785 615 785 630 781 c 128,-1,16
 645 777 645 777 656 771.5 c 128,-1,17
 667 766 667 766 674.5 761 c 128,-1,18
 682 756 682 756 684 754 c 2,19,-1
 629 637 l 1,20,21
 699 588 699 588 740.5 512 c 128,-1,22
 782 436 782 436 782 343 c 0,23,24
 782 267 782 267 753.5 201 c 128,-1,25
 725 135 725 135 675 86.5 c 128,-1,26
 625 38 625 38 557 10 c 128,-1,27
 489 -18 489 -18 411 -18 c 0,28,29
 388 -18 388 -18 366 -15.5 c 128,-1,30
 344 -13 344 -13 323 -8 c 1,31,-1
 281 -98 l 1,32,-1
 128 -98 l 1,33,-1
 196 46 l 1,0,1
432 547 m 1,34,35
 430 547 430 547 423 547.5 c 128,-1,36
 416 548 416 548 411 548 c 0,37,38
 368 548 368 548 332 532.5 c 128,-1,39
 296 517 296 517 270 489.5 c 128,-1,40
 244 462 244 462 229.5 424.5 c 128,-1,41
 215 387 215 387 215 343 c 0,42,43
 215 255 215 255 268 199 c 1,44,-1
 432 547 l 1,34,35
411 138 m 2,45,46
 454 138 454 138 490 153.5 c 128,-1,47
 526 169 526 169 552 197 c 128,-1,48
 578 225 578 225 592.5 262 c 128,-1,49
 607 299 607 299 607 343 c 0,50,51
 607 385 607 385 593.5 421 c 128,-1,52
 580 457 580 457 556 484 c 1,53,-1
 393 138 l 1,54,-1
 411 138 l 2,45,46
EndSplineSet
EndChar

StartChar: Thorn
Encoding: 222 222 185
Width: 668
GlyphClass: 2
Flags: W
LayerCount: 2
Fore
SplineSet
70 612 m 2,0,1
 70 653 70 653 93 669.5 c 128,-1,2
 116 686 116 686 155 686 c 0,3,4
 184 686 184 686 206 679 c 128,-1,5
 228 672 228 672 233 670 c 1,6,-1
 233 582 l 1,7,8
 250 583 250 583 271 583.5 c 128,-1,9
 292 584 292 584 318 584 c 0,10,11
 408 584 408 584 468 563.5 c 128,-1,12
 528 543 528 543 564.5 509.5 c 128,-1,13
 601 476 601 476 616.5 432.5 c 128,-1,14
 632 389 632 389 632 343 c 0,15,16
 632 290 632 290 615 246 c 128,-1,17
 598 202 598 202 562 170.5 c 128,-1,18
 526 139 526 139 469.5 121.5 c 128,-1,19
 413 104 413 104 335 104 c 0,20,21
 317 104 317 104 300 105 c 128,-1,22
 283 106 283 106 269 107 c 128,-1,23
 255 108 255 108 245.5 109.5 c 128,-1,24
 236 111 236 111 233 111 c 1,25,-1
 233 0 l 1,26,-1
 70 0 l 1,27,-1
 70 612 l 2,0,1
233 252 m 1,28,29
 240 251 240 251 257.5 248.5 c 128,-1,30
 275 246 275 246 315 246 c 0,31,32
 361 246 361 246 389.5 254.5 c 128,-1,33
 418 263 418 263 434 277 c 128,-1,34
 450 291 450 291 455.5 308.5 c 128,-1,35
 461 326 461 326 461 343 c 0,36,37
 461 359 461 359 456.5 376 c 128,-1,38
 452 393 452 393 437 407.5 c 128,-1,39
 422 422 422 422 393.5 431.5 c 128,-1,40
 365 441 365 441 317 441 c 0,41,42
 282 441 282 441 260 439.5 c 128,-1,43
 238 438 238 438 233 437 c 1,44,-1
 233 252 l 1,28,29
EndSplineSet
EndChar

StartChar: germandbls
Encoding: 223 223 186
Width: 643
GlyphClass: 2
Flags: W
LayerCount: 2
Fore
SplineSet
55 0 m 1,0,-1
 55 522 l 2,1,2
 55 561 55 561 66.5 599.5 c 128,-1,3
 78 638 78 638 106.5 668.5 c 128,-1,4
 135 699 135 699 182.5 718 c 128,-1,5
 230 737 230 737 301 737 c 0,6,7
 367 737 367 737 412 720.5 c 128,-1,8
 457 704 457 704 484.5 677.5 c 128,-1,9
 512 651 512 651 524.5 619 c 128,-1,10
 537 587 537 587 537 556 c 0,11,12
 537 500 537 500 512.5 464 c 128,-1,13
 488 428 488 428 459 415 c 1,14,15
 487 409 487 409 514 395.5 c 128,-1,16
 541 382 541 382 562 357.5 c 128,-1,17
 583 333 583 333 595.5 297 c 128,-1,18
 608 261 608 261 608 211 c 0,19,20
 608 156 608 156 589 114 c 128,-1,21
 570 72 570 72 538 43.5 c 128,-1,22
 506 15 506 15 463 0.5 c 128,-1,23
 420 -14 420 -14 372 -14 c 0,24,25
 325 -14 325 -14 299.5 -8 c 128,-1,26
 274 -2 274 -2 270 0 c 1,27,-1
 287 129 l 1,28,29
 292 127 292 127 309.5 124 c 128,-1,30
 327 121 327 121 345 121 c 0,31,32
 375 121 375 121 394 129 c 128,-1,33
 413 137 413 137 424 150.5 c 128,-1,34
 435 164 435 164 439 181.5 c 128,-1,35
 443 199 443 199 443 219 c 0,36,37
 443 273 443 273 409 301 c 128,-1,38
 375 329 375 329 321 329 c 2,39,-1
 280 329 l 1,40,-1
 280 456 l 1,41,-1
 297 456 l 2,42,43
 333 456 333 456 356 475.5 c 128,-1,44
 379 495 379 495 379 533 c 0,45,46
 379 576 379 576 354 595.5 c 128,-1,47
 329 615 329 615 298 615 c 0,48,49
 255 615 255 615 235 590.5 c 128,-1,50
 215 566 215 566 215 524 c 2,51,-1
 215 0 l 1,52,-1
 55 0 l 1,0,-1
EndSplineSet
EndChar

StartChar: ae
Encoding: 230 230 193
Width: 890
GlyphClass: 2
Flags: W
LayerCount: 2
Fore
SplineSet
853 40 m 1,0,1
 845 35 845 35 826.5 26 c 128,-1,2
 808 17 808 17 780 8 c 128,-1,3
 752 -1 752 -1 714.5 -7.5 c 128,-1,4
 677 -14 677 -14 632 -14 c 0,5,6
 599 -14 599 -14 572 -8.5 c 128,-1,7
 545 -3 545 -3 524.5 5 c 128,-1,8
 504 13 504 13 490 20.5 c 128,-1,9
 476 28 476 28 469 33 c 0,10,11
 467 31 467 31 454.5 23.5 c 128,-1,12
 442 16 442 16 418 8 c 128,-1,13
 394 0 394 0 358.5 -7 c 128,-1,14
 323 -14 323 -14 274 -14 c 0,15,16
 204 -14 204 -14 157.5 -0.5 c 128,-1,17
 111 13 111 13 82.5 36 c 128,-1,18
 54 59 54 59 42 89.5 c 128,-1,19
 30 120 30 120 30 154 c 0,20,21
 30 246 30 246 87.5 285.5 c 128,-1,22
 145 325 145 325 264 325 c 0,23,24
 277 325 277 325 293.5 324 c 128,-1,25
 310 323 310 323 324.5 322 c 128,-1,26
 339 321 339 321 350.5 320 c 128,-1,27
 362 319 362 319 365 318 c 1,28,29
 365 356 365 356 336.5 376.5 c 128,-1,30
 308 397 308 397 242 397 c 0,31,32
 211 397 211 397 187.5 393 c 128,-1,33
 164 389 164 389 147.5 384 c 128,-1,34
 131 379 131 379 121 374 c 128,-1,35
 111 369 111 369 107 366 c 0,36,37
 105 368 105 368 99 374 c 128,-1,38
 93 380 93 380 87 389.5 c 128,-1,39
 81 399 81 399 76 411 c 128,-1,40
 71 423 71 423 71 437 c 0,41,42
 71 524 71 524 249 524 c 0,43,44
 300 524 300 524 337 515.5 c 128,-1,45
 374 507 374 507 399 495.5 c 128,-1,46
 424 484 424 484 439 471.5 c 128,-1,47
 454 459 454 459 461 451 c 1,48,49
 467 458 467 458 481.5 470 c 128,-1,50
 496 482 496 482 519 494 c 128,-1,51
 542 506 542 506 573 515 c 128,-1,52
 604 524 604 524 643 524 c 0,53,54
 695 524 695 524 736.5 509.5 c 128,-1,55
 778 495 778 495 807 470 c 128,-1,56
 836 445 836 445 851.5 413 c 128,-1,57
 867 381 867 381 867 347 c 0,58,59
 867 310 867 310 854 280.5 c 128,-1,60
 841 251 841 251 811.5 231 c 128,-1,61
 782 211 782 211 733.5 200 c 128,-1,62
 685 189 685 189 614 189 c 0,63,64
 590 189 590 189 566 190 c 128,-1,65
 542 191 542 191 535 192 c 1,66,67
 537 178 537 178 545.5 165.5 c 128,-1,68
 554 153 554 153 569.5 143 c 128,-1,69
 585 133 585 133 609 127 c 128,-1,70
 633 121 633 121 667 121 c 0,71,72
 693 121 693 121 716 125.5 c 128,-1,73
 739 130 739 130 756 135 c 128,-1,74
 773 140 773 140 784 145 c 128,-1,75
 795 150 795 150 797 152 c 1,76,-1
 853 40 l 1,0,1
392 122 m 1,77,78
 390 126 390 126 385.5 136 c 128,-1,79
 381 146 381 146 377 158.5 c 128,-1,80
 373 171 373 171 369.5 185.5 c 128,-1,81
 366 200 366 200 366 212 c 1,82,83
 357 214 357 214 339 215.5 c 128,-1,84
 321 217 321 217 287 217 c 0,85,86
 257 217 257 217 238 212 c 128,-1,87
 219 207 219 207 208.5 198.5 c 128,-1,88
 198 190 198 190 194 179 c 128,-1,89
 190 168 190 168 190 156 c 0,90,91
 190 147 190 147 193 137 c 128,-1,92
 196 127 196 127 206 118.5 c 128,-1,93
 216 110 216 110 236 104.5 c 128,-1,94
 256 99 256 99 289 99 c 0,95,96
 334 99 334 99 360.5 109.5 c 128,-1,97
 387 120 387 120 392 122 c 1,77,78
566 294 m 2,98,99
 618 294 618 294 647.5 299 c 128,-1,100
 677 304 677 304 691.5 311.5 c 128,-1,101
 706 319 706 319 709 329 c 128,-1,102
 712 339 712 339 712 348 c 0,103,104
 712 369 712 369 693 384.5 c 128,-1,105
 674 400 674 400 636 400 c 0,106,107
 610 400 610 400 590 391 c 128,-1,108
 570 382 570 382 556.5 367 c 128,-1,109
 543 352 543 352 535.5 333.5 c 128,-1,110
 528 315 528 315 527 296 c 2,111,-1
 527 294 l 1,112,-1
 566 294 l 2,98,99
EndSplineSet
EndChar

StartChar: eth
Encoding: 240 240 203
Width: 634
GlyphClass: 2
Flags: W
LayerCount: 2
Fore
SplineSet
144 568 m 1,0,-1
 235 615 l 1,1,2
 220 623 220 623 203 630 c 128,-1,3
 186 637 186 637 168 643 c 1,4,-1
 212 737 l 1,5,6
 291 713 291 713 355 678 c 1,7,-1
 469 737 l 1,8,-1
 509 662 l 1,9,-1
 435 623 l 1,10,11
 518 554 518 554 558.5 465 c 128,-1,12
 599 376 599 376 599 279 c 0,13,14
 599 204 599 204 578.5 149 c 128,-1,15
 558 94 558 94 521 57.5 c 128,-1,16
 484 21 484 21 432 3.5 c 128,-1,17
 380 -14 380 -14 317 -14 c 0,18,19
 255 -14 255 -14 203 3 c 128,-1,20
 151 20 151 20 113.5 51.5 c 128,-1,21
 76 83 76 83 55.5 127.5 c 128,-1,22
 35 172 35 172 35 228 c 256,23,24
 35 284 35 284 55 328 c 128,-1,25
 75 372 75 372 108 403 c 128,-1,26
 141 434 141 434 183.5 450 c 128,-1,27
 226 466 226 466 271 466 c 0,28,29
 306 466 306 466 331.5 461 c 128,-1,30
 357 456 357 456 373.5 448.5 c 128,-1,31
 390 441 390 441 399.5 433.5 c 128,-1,32
 409 426 409 426 413 421 c 1,33,34
 411 427 411 427 405.5 441.5 c 128,-1,35
 400 456 400 456 388.5 475.5 c 128,-1,36
 377 495 377 495 359 517 c 128,-1,37
 341 539 341 539 316 561 c 1,38,-1
 185 493 l 1,39,-1
 144 568 l 1,0,-1
200 228 m 256,40,41
 200 179 200 179 231.5 147 c 128,-1,42
 263 115 263 115 317 115 c 256,43,44
 371 115 371 115 402.5 147 c 128,-1,45
 434 179 434 179 434 228 c 256,46,47
 434 277 434 277 402.5 309 c 128,-1,48
 371 341 371 341 317 341 c 256,49,50
 263 341 263 341 231.5 309 c 128,-1,51
 200 277 200 277 200 228 c 256,40,41
EndSplineSet
EndChar

StartChar: divide
Encoding: 247 247 210
Width: 630
GlyphClass: 2
Flags: W
LayerCount: 2
Fore
SplineSet
507 417 m 2,0,1
 546 417 546 417 562 396 c 128,-1,2
 578 375 578 375 578 337 c 0,3,4
 578 310 578 310 571.5 289.5 c 128,-1,5
 565 269 565 269 563 264 c 1,6,-1
 123 264 l 2,7,8
 84 264 84 264 68 285 c 128,-1,9
 52 306 52 306 52 344 c 0,10,11
 52 371 52 371 58.5 391.5 c 128,-1,12
 65 412 65 412 67 417 c 1,13,-1
 507 417 l 2,0,1
226 546 m 256,14,15
 226 584 226 584 251.5 610 c 128,-1,16
 277 636 277 636 315 636 c 256,17,18
 353 636 353 636 379 610 c 128,-1,19
 405 584 405 584 405 546 c 256,20,21
 405 508 405 508 379 482.5 c 128,-1,22
 353 457 353 457 315 457 c 256,23,24
 277 457 277 457 251.5 482.5 c 128,-1,25
 226 508 226 508 226 546 c 256,14,15
226 134 m 256,26,27
 226 172 226 172 251.5 198 c 128,-1,28
 277 224 277 224 315 224 c 256,29,30
 353 224 353 224 379 198 c 128,-1,31
 405 172 405 172 405 134 c 256,32,33
 405 96 405 96 379 70.5 c 128,-1,34
 353 45 353 45 315 45 c 256,35,36
 277 45 277 45 251.5 70.5 c 128,-1,37
 226 96 226 96 226 134 c 256,26,27
EndSplineSet
EndChar

StartChar: oslash
Encoding: 248 248 211
Width: 634
GlyphClass: 2
Flags: W
LayerCount: 2
Fore
SplineSet
157 31 m 1,0,1
 101 67 101 67 68 125 c 128,-1,2
 35 183 35 183 35 255 c 0,3,4
 35 313 35 313 57 362 c 128,-1,5
 79 411 79 411 117.5 447 c 128,-1,6
 156 483 156 483 207 503.5 c 128,-1,7
 258 524 258 524 317 524 c 0,8,9
 337 524 337 524 356 521.5 c 128,-1,10
 375 519 375 519 393 514 c 1,11,-1
 412 554 l 2,12,13
 420 571 420 571 431.5 579 c 128,-1,14
 443 587 443 587 464 587 c 0,15,16
 487 587 487 587 503 577.5 c 128,-1,17
 519 568 519 568 522 566 c 2,18,-1
 478 477 l 1,19,20
 533 441 533 441 566 383.5 c 128,-1,21
 599 326 599 326 599 255 c 0,22,23
 599 197 599 197 577 148 c 128,-1,24
 555 99 555 99 516.5 63 c 128,-1,25
 478 27 478 27 426.5 6.5 c 128,-1,26
 375 -14 375 -14 317 -14 c 0,27,28
 278 -14 278 -14 242 -5 c 1,29,-1
 207 -76 l 1,30,-1
 105 -76 l 1,31,-1
 157 31 l 1,0,1
328 382 m 1,32,33
 325 383 325 383 317 383 c 0,34,35
 291 383 291 383 268.5 373.5 c 128,-1,36
 246 364 246 364 230 346.5 c 128,-1,37
 214 329 214 329 205 305.5 c 128,-1,38
 196 282 196 282 196 255 c 0,39,40
 196 204 196 204 225 169 c 1,41,-1
 328 382 l 1,32,33
317 127 m 2,42,43
 343 127 343 127 365.5 136.5 c 128,-1,44
 388 146 388 146 404 163.5 c 128,-1,45
 420 181 420 181 429 204.5 c 128,-1,46
 438 228 438 228 438 255 c 0,47,48
 438 304 438 304 410 338 c 1,49,-1
 307 127 l 1,50,-1
 317 127 l 2,42,43
EndSplineSet
EndChar

StartChar: thorn
Encoding: 254 254 217
Width: 632
GlyphClass: 2
Flags: W
LayerCount: 2
Fore
SplineSet
43 -200 m 1,0,-1
 43 666 l 2,1,2
 43 705 43 705 66.5 721 c 128,-1,3
 90 737 90 737 128 737 c 0,4,5
 155 737 155 737 176.5 730.5 c 128,-1,6
 198 724 198 724 204 722 c 1,7,-1
 204 472 l 1,8,9
 222 490 222 490 258.5 507 c 128,-1,10
 295 524 295 524 350 524 c 0,11,12
 401 524 401 524 446 505 c 128,-1,13
 491 486 491 486 524.5 451 c 128,-1,14
 558 416 558 416 577.5 367 c 128,-1,15
 597 318 597 318 597 257 c 0,16,17
 597 195 597 195 577.5 145.5 c 128,-1,18
 558 96 558 96 524.5 61 c 128,-1,19
 491 26 491 26 446 7 c 128,-1,20
 401 -12 401 -12 350 -12 c 0,21,22
 294 -12 294 -12 257.5 5.5 c 128,-1,23
 221 23 221 23 203 41 c 1,24,-1
 203 -200 l 1,25,-1
 43 -200 l 1,0,-1
317 133 m 0,26,27
 367 133 367 133 399.5 167.5 c 128,-1,28
 432 202 432 202 432 256 c 256,29,30
 432 310 432 310 399.5 343 c 128,-1,31
 367 376 367 376 317 376 c 256,32,33
 267 376 267 376 234.5 344 c 128,-1,34
 202 312 202 312 202 256 c 0,35,36
 202 230 202 230 210.5 207.5 c 128,-1,37
 219 185 219 185 234.5 168.5 c 128,-1,38
 250 152 250 152 271 142.5 c 128,-1,39
 292 133 292 133 317 133 c 0,26,27
EndSplineSet
EndChar

StartChar: Aogonek
Encoding: 260 260 223
Width: 769
GlyphClass: 2
Flags: W
LayerCount: 2
Fore
SplineSet
5 0 m 1,0,1
 26 56 26 56 56 130.5 c 128,-1,2
 86 205 86 205 120.5 288.5 c 128,-1,3
 155 372 155 372 192.5 459 c 128,-1,4
 230 546 230 546 266 627 c 0,5,6
 285 670 285 670 312.5 687 c 128,-1,7
 340 704 340 704 385 704 c 0,8,9
 402 704 402 704 418.5 700 c 128,-1,10
 435 696 435 696 448 690.5 c 128,-1,11
 461 685 461 685 469 680 c 128,-1,12
 477 675 477 675 479 674 c 0,13,14
 494 649 494 649 518.5 595 c 128,-1,15
 543 541 543 541 572 473.5 c 128,-1,16
 601 406 601 406 632 332 c 128,-1,17
 663 258 663 258 689.5 191.5 c 128,-1,18
 716 125 716 125 736 73.5 c 128,-1,19
 756 22 756 22 764 0 c 1,20,-1
 703 0 l 2,21,22
 693 -2 693 -2 677.5 -6.5 c 128,-1,23
 662 -11 662 -11 647.5 -20 c 128,-1,24
 633 -29 633 -29 622.5 -41.5 c 128,-1,25
 612 -54 612 -54 612 -70 c 0,26,27
 612 -88 612 -88 625 -94 c 128,-1,28
 638 -100 638 -100 652 -100 c 0,29,30
 679 -100 679 -100 697 -92 c 128,-1,31
 715 -84 715 -84 719 -82 c 1,32,-1
 750 -149 l 1,33,34
 736 -157 736 -157 705 -167.5 c 128,-1,35
 674 -178 674 -178 627 -178 c 0,36,37
 575 -178 575 -178 542 -157.5 c 128,-1,38
 509 -137 509 -137 509 -92 c 0,39,40
 509 -70 509 -70 517.5 -53 c 128,-1,41
 526 -36 526 -36 537.5 -24.5 c 128,-1,42
 549 -13 549 -13 561 -6.5 c 128,-1,43
 573 0 573 0 579 2 c 1,44,45
 568 31 568 31 555 66 c 128,-1,46
 542 101 542 101 524 148 c 1,47,-1
 233 148 l 1,48,49
 217 106 217 106 204.5 71 c 128,-1,50
 192 36 192 36 178 0 c 1,51,-1
 5 0 l 1,0,1
467 299 m 1,52,53
 457 326 457 326 444 359.5 c 128,-1,54
 431 393 431 393 419 424.5 c 128,-1,55
 407 456 407 456 396.5 482.5 c 128,-1,56
 386 509 386 509 380 522 c 1,57,58
 374 508 374 508 364 482.5 c 128,-1,59
 354 457 354 457 342 425.5 c 128,-1,60
 330 394 330 394 317 361 c 128,-1,61
 304 328 304 328 293 299 c 1,62,-1
 467 299 l 1,52,53
EndSplineSet
EndChar

StartChar: aogonek
Encoding: 261 261 224
Width: 582
GlyphClass: 2
Flags: W
LayerCount: 2
Fore
SplineSet
527 3 m 1,0,1
 522 1 522 1 503.5 -1 c 128,-1,2
 485 -3 485 -3 457 -6 c 0,3,4
 446 -10 446 -10 434 -15.5 c 128,-1,5
 422 -21 422 -21 412 -29.5 c 128,-1,6
 402 -38 402 -38 395.5 -48.5 c 128,-1,7
 389 -59 389 -59 389 -72 c 0,8,9
 389 -92 389 -92 403 -98.5 c 128,-1,10
 417 -105 417 -105 432 -105 c 0,11,12
 460 -105 460 -105 477 -97 c 128,-1,13
 494 -89 494 -89 498 -87 c 1,14,-1
 527 -151 l 1,15,16
 513 -159 513 -159 483 -169 c 128,-1,17
 453 -179 453 -179 406 -179 c 0,18,19
 355 -179 355 -179 322.5 -159.5 c 128,-1,20
 290 -140 290 -140 290 -95 c 0,21,22
 290 -63 290 -63 305 -43.5 c 128,-1,23
 320 -24 320 -24 336 -13 c 1,24,25
 325 -14 325 -14 313 -14 c 128,-1,26
 301 -14 301 -14 290 -14 c 0,27,28
 214 -14 214 -14 164 -0.5 c 128,-1,29
 114 13 114 13 84 36 c 128,-1,30
 54 59 54 59 42 89.5 c 128,-1,31
 30 120 30 120 30 154 c 0,32,33
 30 246 30 246 89 285.5 c 128,-1,34
 148 325 148 325 276 325 c 0,35,36
 308 325 308 325 329.5 324 c 128,-1,37
 351 323 351 323 365 321 c 1,38,39
 365 356 365 356 336.5 376 c 128,-1,40
 308 396 308 396 242 396 c 0,41,42
 211 396 211 396 187.5 392.5 c 128,-1,43
 164 389 164 389 147.5 384 c 128,-1,44
 131 379 131 379 121 374 c 128,-1,45
 111 369 111 369 107 366 c 0,46,47
 105 368 105 368 99 374 c 128,-1,48
 93 380 93 380 87 389.5 c 128,-1,49
 81 399 81 399 76 411 c 128,-1,50
 71 423 71 423 71 437 c 0,51,52
 71 524 71 524 249 524 c 0,53,54
 307 524 307 524 358 513.5 c 128,-1,55
 409 503 409 503 446.5 477.5 c 128,-1,56
 484 452 484 452 505.5 410 c 128,-1,57
 527 368 527 368 527 305 c 2,58,-1
 527 3 l 1,0,1
366 212 m 1,59,60
 357 214 357 214 339.5 215.5 c 128,-1,61
 322 217 322 217 287 217 c 0,62,63
 257 217 257 217 238 212 c 128,-1,64
 219 207 219 207 208.5 198.5 c 128,-1,65
 198 190 198 190 194 179 c 128,-1,66
 190 168 190 168 190 156 c 0,67,68
 190 147 190 147 193 137 c 128,-1,69
 196 127 196 127 206 119 c 128,-1,70
 216 111 216 111 236 105.5 c 128,-1,71
 256 100 256 100 289 100 c 0,72,73
 315 100 315 100 337 101.5 c 128,-1,74
 359 103 359 103 366 105 c 1,75,-1
 366 212 l 1,59,60
EndSplineSet
EndChar

StartChar: dcaron
Encoding: 271 271 234
Width: 812
GlyphClass: 2
Flags: W
LayerCount: 2
Fore
SplineSet
589 278 m 2,0,1
 589 214 589 214 576 167 c 128,-1,2
 563 120 563 120 539 88 c 0,3,4
 501 38 501 38 442 12 c 128,-1,5
 383 -14 383 -14 311 -14 c 0,6,7
 252 -14 252 -14 201.5 5.5 c 128,-1,8
 151 25 151 25 114 60 c 128,-1,9
 77 95 77 95 56 145 c 128,-1,10
 35 195 35 195 35 255 c 0,11,12
 35 316 35 316 54.5 365.5 c 128,-1,13
 74 415 74 415 107.5 450 c 128,-1,14
 141 485 141 485 186 504.5 c 128,-1,15
 231 524 231 524 282 524 c 0,16,17
 338 524 338 524 374.5 505.5 c 128,-1,18
 411 487 411 487 429 469 c 1,19,-1
 429 666 l 2,20,21
 429 705 429 705 452 721 c 128,-1,22
 475 737 475 737 513 737 c 0,23,24
 540 737 540 737 561.5 730.5 c 128,-1,25
 583 724 583 724 589 722 c 1,26,-1
 589 278 l 2,0,1
315 134 m 256,27,28
 365 134 365 134 397.5 166 c 128,-1,29
 430 198 430 198 430 254 c 0,30,31
 430 280 430 280 421.5 302.5 c 128,-1,32
 413 325 413 325 397.5 341.5 c 128,-1,33
 382 358 382 358 361 367.5 c 128,-1,34
 340 377 340 377 315 377 c 0,35,36
 265 377 265 377 232.5 342.5 c 128,-1,37
 200 308 200 308 200 254 c 256,38,39
 200 200 200 200 232.5 167 c 128,-1,40
 265 134 265 134 315 134 c 256,27,28
677 668 m 2,41,42
 677 706 677 706 699.5 721.5 c 128,-1,43
 722 737 722 737 759 737 c 0,44,45
 772 737 772 737 778.5 735 c 128,-1,46
 785 733 785 733 788 731 c 128,-1,47
 791 729 791 729 792.5 726.5 c 128,-1,48
 794 724 794 724 797 723 c 2,49,-1
 778 503 l 1,50,-1
 677 503 l 1,51,-1
 677 668 l 2,41,42
EndSplineSet
EndChar

StartChar: dcroat
Encoding: 273 273 236
Width: 632
GlyphClass: 2
Flags: W
LayerCount: 2
Fore
SplineSet
200 244 m 256,0,1
 200 190 200 190 232.5 162 c 128,-1,2
 265 134 265 134 315 134 c 256,3,4
 365 134 365 134 397.5 164 c 128,-1,5
 430 194 430 194 430 250 c 0,6,7
 430 302 430 302 397 329.5 c 128,-1,8
 364 357 364 357 314 357 c 256,9,10
 264 357 264 357 232 327.5 c 128,-1,11
 200 298 200 298 200 244 c 256,0,1
589 274 m 2,12,13
 589 210 589 210 576 165 c 128,-1,14
 563 120 563 120 539 88 c 0,15,16
 501 38 501 38 442 12 c 128,-1,17
 383 -14 383 -14 311 -14 c 0,18,19
 252 -14 252 -14 201.5 4 c 128,-1,20
 151 22 151 22 114 55.5 c 128,-1,21
 77 89 77 89 56 137 c 128,-1,22
 35 185 35 185 35 245 c 0,23,24
 35 306 35 306 54.5 354 c 128,-1,25
 74 402 74 402 107.5 435.5 c 128,-1,26
 141 469 141 469 186 486.5 c 128,-1,27
 231 504 231 504 282 504 c 0,28,29
 338 504 338 504 374.5 485.5 c 128,-1,30
 411 467 411 467 429 449 c 1,31,-1
 429 555 l 1,32,-1
 332 555 l 2,33,34
 303 555 303 555 291 569 c 128,-1,35
 279 583 279 583 279 605 c 0,36,37
 279 625 279 625 281.5 636.5 c 128,-1,38
 284 648 284 648 287 657 c 1,39,-1
 429 657 l 1,40,-1
 429 666 l 2,41,42
 429 705 429 705 452 721 c 128,-1,43
 475 737 475 737 513 737 c 0,44,45
 540 737 540 737 561.5 730.5 c 128,-1,46
 583 724 583 724 589 722 c 1,47,-1
 589 657 l 1,48,-1
 632 657 l 2,49,50
 664 657 664 657 674 642 c 128,-1,51
 684 627 684 627 684 602 c 0,52,53
 684 584 684 584 680.5 572 c 128,-1,54
 677 560 677 560 675 555 c 1,55,-1
 589 555 l 1,56,-1
 589 274 l 2,12,13
EndSplineSet
EndChar

StartChar: Eogonek
Encoding: 280 280 243
Width: 641
GlyphClass: 2
Flags: W
LayerCount: 2
Fore
SplineSet
70 591 m 2,0,1
 70 686 70 686 169 686 c 2,2,-1
 511 686 l 2,3,4
 557 686 557 686 576.5 666.5 c 128,-1,5
 596 647 596 647 596 610 c 0,6,7
 596 583 596 583 588 560.5 c 128,-1,8
 580 538 580 538 575 530 c 1,9,-1
 237 530 l 1,10,-1
 237 423 l 1,11,-1
 498 423 l 2,12,13
 544 423 544 423 563.5 403.5 c 128,-1,14
 583 384 583 384 583 347 c 0,15,16
 583 320 583 320 575 297.5 c 128,-1,17
 567 275 567 275 562 267 c 1,18,-1
 237 267 l 1,19,-1
 237 156 l 1,20,-1
 591 156 l 1,21,-1
 591 0 l 1,22,-1
 544 0 l 2,23,24
 534 -2 534 -2 518.5 -6.5 c 128,-1,25
 503 -11 503 -11 488.5 -20 c 128,-1,26
 474 -29 474 -29 463.5 -41.5 c 128,-1,27
 453 -54 453 -54 453 -70 c 0,28,29
 453 -88 453 -88 466 -94 c 128,-1,30
 479 -100 479 -100 493 -100 c 0,31,32
 520 -100 520 -100 538 -92 c 128,-1,33
 556 -84 556 -84 560 -82 c 1,34,-1
 591 -149 l 1,35,36
 577 -157 577 -157 546 -167.5 c 128,-1,37
 515 -178 515 -178 468 -178 c 0,38,39
 416 -178 416 -178 383 -157.5 c 128,-1,40
 350 -137 350 -137 350 -92 c 0,41,42
 350 -71 350 -71 357 -55.5 c 128,-1,43
 364 -40 364 -40 374 -29 c 128,-1,44
 384 -18 384 -18 395 -11 c 128,-1,45
 406 -4 406 -4 414 0 c 1,46,-1
 70 0 l 1,47,-1
 70 591 l 2,0,1
EndSplineSet
EndChar

